<svg id="svg" xmlns="http://www.w3.org/2000/svg" xmlns:xlink="http://www.w3.org/1999/xlink" width="400" height="922" viewBox="0, 0, 400,922"><g id="svgg"><path id="path0" d="M172.032 91.166 C 142.821 94.919,115.767 119.476,109.271 148.136 C 99.941 189.295,122.760 228.846,162.866 241.028 C 173.203 244.168,173.000 243.624,173.000 268.112 C 173.000 286.966,172.832 288.985,171.089 291.139 L 169.179 293.500 111.000 294.000 L 52.822 294.500 50.911 296.861 C 48.629 299.680,48.396 305.693,50.455 308.633 C 51.892 310.683,52.655 310.718,109.705 311.297 C 173.134 311.940,171.701 311.825,172.513 316.360 C 172.822 318.087,172.945 377.100,172.787 447.500 L 172.500 575.500 168.099 584.500 C 165.678 589.450,160.223 600.700,155.976 609.500 C 151.728 618.300,139.817 642.600,129.507 663.500 C 111.185 700.640,101.131 721.235,88.501 747.500 C 85.063 754.650,73.644 777.961,63.125 799.302 C 41.108 843.972,40.307 847.466,51.599 849.585 C 57.599 850.710,57.821 850.367,77.304 810.000 C 81.949 800.375,90.482 782.825,96.266 771.000 C 102.049 759.175,112.718 737.350,119.974 722.500 C 163.464 633.491,177.690 604.743,179.357 602.500 C 183.250 597.263,183.182 597.145,221.374 675.500 C 235.314 704.100,252.685 739.650,259.975 754.500 C 267.266 769.350,276.385 788.025,280.240 796.000 C 308.284 854.014,306.445 850.990,312.735 849.422 C 317.119 848.329,321.377 842.888,320.435 839.581 C 320.109 838.437,308.893 815.225,295.510 788.000 C 282.126 760.775,268.041 731.975,264.208 724.000 C 255.612 706.112,241.441 677.139,214.578 622.534 C 203.223 599.453,193.273 578.625,192.466 576.249 C 191.208 572.543,191.000 553.843,191.000 444.521 L 191.000 317.112 193.277 314.464 L 195.554 311.817 252.027 311.350 C 283.087 311.093,309.542 310.668,310.816 310.406 C 316.833 309.166,316.577 297.311,310.483 294.994 C 308.867 294.379,286.919 294.000,252.982 294.000 C 214.886 294.000,197.349 293.660,195.657 292.890 C 191.505 290.998,191.000 288.182,191.000 266.905 C 191.000 243.111,190.556 243.986,204.768 239.732 C 235.850 230.428,256.327 201.408,256.444 166.500 C 256.493 152.109,256.344 151.280,251.272 137.607 C 239.926 107.017,205.536 86.862,172.032 91.166 M196.000 109.561 C 246.570 121.476,254.305 195.665,207.500 219.861 C 175.417 236.446,134.920 217.456,126.537 181.897 C 116.140 137.787,152.978 99.425,196.000 109.561 " stroke="none" fill="#000000" fill-rule="evenodd"></path></g></svg>