<svg id="svg" xmlns="http://www.w3.org/2000/svg" xmlns:xlink="http://www.w3.org/1999/xlink" width="400" height="175" viewBox="0, 0, 400,175" version="1.1"><g id="svgg"><path id="path0" d="M72.214 31.883 C 71.831 31.973,71.300 32.255,71.034 32.510 C 70.721 32.809,70.201 33.043,69.563 33.170 C 68.652 33.352,68.543 33.427,68.142 34.145 C 67.904 34.573,67.559 35.065,67.376 35.237 C 67.194 35.410,66.848 35.938,66.609 36.409 C 66.370 36.881,66.068 37.330,65.938 37.408 C 65.807 37.486,65.556 37.786,65.380 38.074 C 64.594 39.363,63.420 41.098,62.977 41.625 C 62.712 41.942,62.495 42.301,62.495 42.425 C 62.495 42.549,62.221 42.957,61.887 43.332 C 61.553 43.708,61.185 44.254,61.068 44.546 C 60.952 44.838,60.575 45.406,60.231 45.809 C 59.286 46.917,58.776 47.601,58.293 48.410 C 57.568 49.626,56.776 50.813,56.195 51.554 C 55.465 52.486,54.914 53.292,54.269 54.374 C 53.976 54.866,53.577 55.412,53.382 55.588 C 53.188 55.764,52.879 56.248,52.695 56.663 C 52.511 57.078,52.289 57.418,52.201 57.418 C 52.112 57.418,51.789 57.889,51.482 58.464 C 51.176 59.039,50.823 59.571,50.698 59.646 C 50.573 59.720,50.325 60.018,50.147 60.306 C 49.151 61.924,47.929 63.698,47.620 63.978 C 47.424 64.155,47.265 64.411,47.265 64.548 C 47.265 64.685,47.025 65.037,46.733 65.329 C 46.440 65.622,46.036 66.187,45.834 66.585 C 45.633 66.983,45.203 67.604,44.878 67.965 C 44.554 68.327,44.289 68.694,44.289 68.780 C 44.289 68.867,44.033 69.256,43.720 69.643 C 43.407 70.031,42.796 70.954,42.363 71.694 C 41.930 72.434,41.331 73.325,41.032 73.675 C 40.733 74.025,40.386 74.508,40.261 74.748 C 40.135 74.989,39.770 75.509,39.448 75.904 C 39.126 76.299,38.862 76.713,38.862 76.823 C 38.862 76.933,38.586 77.328,38.249 77.701 C 37.912 78.074,37.637 78.454,37.637 78.546 C 37.637 78.637,37.373 79.021,37.050 79.400 C 36.727 79.778,36.324 80.363,36.155 80.700 C 35.985 81.037,35.643 81.530,35.395 81.795 C 35.147 82.060,34.743 82.621,34.496 83.042 C 33.775 84.274,32.794 85.685,32.475 85.950 C 32.313 86.084,32.021 86.534,31.826 86.949 C 31.631 87.363,31.403 87.702,31.318 87.702 C 31.234 87.702,30.959 88.116,30.707 88.621 C 30.454 89.127,30.016 89.785,29.732 90.083 C 28.804 91.060,28.637 92.234,29.263 93.390 C 29.551 93.921,29.857 94.354,29.945 94.354 C 30.032 94.354,30.296 94.734,30.530 95.197 C 30.765 95.660,31.085 96.145,31.240 96.274 C 31.396 96.404,31.689 96.894,31.891 97.364 C 32.094 97.835,32.405 98.298,32.584 98.394 C 32.763 98.489,33.059 98.860,33.241 99.218 C 33.424 99.576,33.748 100.026,33.961 100.219 C 34.174 100.411,34.535 100.938,34.764 101.388 C 34.992 101.839,35.261 102.258,35.361 102.319 C 35.461 102.381,35.733 102.808,35.966 103.267 C 36.199 103.727,36.586 104.231,36.825 104.388 C 37.064 104.545,37.316 104.853,37.383 105.072 C 37.451 105.291,37.851 105.931,38.272 106.494 C 38.693 107.058,39.037 107.616,39.037 107.736 C 39.037 107.856,39.204 108.105,39.408 108.288 C 39.612 108.471,40.047 109.015,40.374 109.497 C 40.701 109.978,41.144 110.619,41.359 110.922 C 41.575 111.224,41.908 111.730,42.101 112.046 C 43.402 114.182,45.040 116.586,45.193 116.586 C 45.270 116.586,45.525 116.966,45.760 117.429 C 45.995 117.892,46.318 118.380,46.477 118.512 C 46.636 118.644,46.949 119.112,47.172 119.551 C 47.395 119.991,47.751 120.508,47.965 120.700 C 48.178 120.893,48.505 121.350,48.692 121.715 C 48.878 122.081,49.149 122.425,49.292 122.481 C 49.436 122.536,49.677 122.827,49.828 123.128 C 50.341 124.155,51.377 125.724,52.035 126.471 C 52.396 126.881,52.691 127.315,52.691 127.435 C 52.691 127.556,53.046 128.126,53.479 128.702 C 53.912 129.279,54.267 129.831,54.267 129.930 C 54.267 130.030,54.508 130.396,54.802 130.745 C 55.783 131.908,56.529 132.946,56.962 133.753 C 57.198 134.192,57.521 134.659,57.680 134.791 C 57.839 134.923,58.131 135.352,58.330 135.743 C 58.528 136.135,58.896 136.705,59.148 137.011 C 59.725 137.711,60.547 138.862,61.021 139.633 C 61.222 139.960,61.587 140.441,61.833 140.704 C 62.079 140.967,62.334 141.360,62.400 141.579 C 62.466 141.798,62.785 142.323,63.109 142.747 C 63.432 143.171,63.824 143.764,63.980 144.065 C 64.136 144.367,64.381 144.658,64.524 144.713 C 64.668 144.768,64.949 145.135,65.150 145.528 C 65.632 146.472,66.525 147.822,67.314 148.796 C 67.664 149.230,68.181 149.939,68.463 150.372 C 69.739 152.338,69.953 152.554,70.751 152.678 C 71.168 152.744,125.600 152.803,191.710 152.810 L 311.909 152.823 312.760 152.242 C 313.228 151.923,313.744 151.400,313.907 151.079 C 314.071 150.758,314.436 150.251,314.719 149.953 C 315.003 149.654,315.373 149.133,315.542 148.796 C 315.712 148.460,316.036 147.940,316.262 147.642 C 316.489 147.344,316.674 147.014,316.674 146.909 C 316.674 146.803,316.969 146.368,317.330 145.942 C 317.691 145.516,318.127 144.940,318.297 144.662 C 319.253 143.108,319.866 142.207,320.240 141.807 C 320.471 141.559,320.799 141.081,320.969 140.744 C 321.138 140.407,321.541 139.822,321.864 139.443 C 322.187 139.065,322.451 138.665,322.451 138.555 C 322.451 138.444,322.655 138.163,322.906 137.930 C 323.156 137.696,323.554 137.151,323.791 136.718 C 324.364 135.669,325.304 134.282,325.807 133.742 C 326.031 133.501,326.341 133.028,326.496 132.691 C 326.651 132.354,326.953 131.923,327.167 131.732 C 327.381 131.542,327.668 131.117,327.805 130.790 C 327.942 130.462,328.330 129.889,328.666 129.516 C 329.003 129.144,329.278 128.736,329.278 128.610 C 329.278 128.484,329.521 128.149,329.819 127.866 C 330.117 127.584,330.521 127.037,330.718 126.652 C 330.915 126.267,331.301 125.693,331.577 125.377 C 331.853 125.061,332.079 124.691,332.079 124.556 C 332.079 124.421,332.394 123.946,332.779 123.501 C 333.164 123.056,333.479 122.627,333.479 122.547 C 333.479 122.467,333.794 122.020,334.179 121.554 C 334.565 121.088,334.880 120.620,334.880 120.515 C 334.880 120.410,335.084 120.133,335.334 119.899 C 335.584 119.666,335.949 119.160,336.144 118.775 C 336.339 118.389,336.765 117.709,337.090 117.263 C 337.415 116.817,337.681 116.378,337.681 116.287 C 337.681 116.196,337.885 115.931,338.135 115.698 C 338.386 115.464,338.784 114.919,339.021 114.486 C 339.632 113.369,340.550 112.022,341.052 111.510 C 341.287 111.269,341.646 110.747,341.849 110.350 C 342.051 109.953,342.338 109.581,342.487 109.524 C 342.635 109.467,342.943 109.004,343.171 108.496 C 343.399 107.987,343.793 107.380,344.046 107.147 C 344.300 106.913,344.508 106.622,344.508 106.499 C 344.508 106.376,344.773 106.015,345.097 105.698 C 345.421 105.380,345.826 104.845,345.997 104.508 C 346.169 104.171,346.534 103.621,346.809 103.286 C 347.084 102.951,347.309 102.540,347.309 102.373 C 347.309 102.206,347.565 101.779,347.877 101.424 C 348.190 101.068,348.604 100.524,348.796 100.213 C 349.170 99.610,350.007 98.445,350.668 97.606 C 350.890 97.324,351.269 96.764,351.510 96.360 C 352.196 95.209,353.314 93.595,353.744 93.134 C 354.422 92.405,354.275 91.831,352.869 89.730 C 352.509 89.193,352.140 88.753,352.049 88.753 C 351.958 88.753,351.836 88.601,351.777 88.417 C 351.718 88.232,351.280 87.551,350.802 86.905 C 350.325 86.258,349.934 85.635,349.934 85.521 C 349.934 85.406,349.730 85.122,349.480 84.888 C 349.230 84.655,348.881 84.183,348.705 83.839 C 348.529 83.496,348.248 83.102,348.081 82.964 C 347.914 82.826,347.602 82.319,347.388 81.838 C 347.174 81.357,346.824 80.805,346.610 80.613 C 346.396 80.420,346.078 79.982,345.902 79.638 C 345.727 79.295,345.454 78.906,345.295 78.774 C 345.136 78.642,344.816 78.160,344.585 77.704 C 344.353 77.247,344.016 76.769,343.836 76.642 C 343.655 76.515,343.347 76.096,343.151 75.711 C 342.955 75.326,342.620 74.853,342.407 74.661 C 342.194 74.468,341.860 73.996,341.665 73.611 C 341.469 73.225,341.104 72.666,340.852 72.367 C 340.600 72.069,340.256 71.596,340.087 71.317 C 339.919 71.038,339.589 70.534,339.354 70.197 C 339.119 69.860,338.685 69.230,338.389 68.796 C 338.093 68.363,337.655 67.733,337.416 67.396 C 337.177 67.059,336.843 66.558,336.674 66.284 C 336.506 66.009,335.993 65.269,335.536 64.640 C 335.079 64.011,334.705 63.403,334.705 63.289 C 334.705 63.174,334.500 62.890,334.250 62.656 C 334.000 62.423,333.651 61.951,333.475 61.608 C 333.299 61.264,333.025 60.875,332.866 60.743 C 332.707 60.611,332.394 60.144,332.172 59.705 C 331.949 59.265,331.592 58.748,331.379 58.556 C 331.166 58.363,330.848 57.925,330.673 57.581 C 330.497 57.238,330.224 56.849,330.065 56.717 C 329.906 56.585,329.593 56.118,329.371 55.678 C 329.148 55.239,328.791 54.722,328.578 54.530 C 328.365 54.337,328.050 53.904,327.877 53.567 C 327.705 53.230,327.387 52.796,327.171 52.604 C 326.954 52.411,326.599 51.857,326.383 51.372 C 326.166 50.886,325.857 50.380,325.696 50.246 C 325.535 50.113,325.281 49.762,325.132 49.466 C 324.983 49.170,324.710 48.762,324.525 48.560 C 324.221 48.226,323.489 47.132,322.674 45.792 C 322.503 45.511,322.119 44.999,321.821 44.654 C 321.224 43.961,320.153 42.383,319.473 41.192 C 319.232 40.769,318.949 40.367,318.845 40.299 C 318.646 40.168,317.580 38.611,316.849 37.383 C 316.608 36.979,316.230 36.417,316.008 36.136 C 315.502 35.495,314.842 34.551,314.442 33.898 C 313.583 32.494,313.389 32.290,312.643 32.004 C 311.746 31.660,73.676 31.541,72.214 31.883 M310.845 36.519 C 311.018 36.771,311.455 37.280,311.816 37.650 C 312.177 38.020,312.473 38.414,312.473 38.525 C 312.473 38.636,312.827 39.198,313.260 39.775 C 313.694 40.351,314.048 40.919,314.048 41.037 C 314.048 41.155,314.253 41.443,314.503 41.676 C 314.753 41.910,315.100 42.376,315.273 42.713 C 315.447 43.050,315.762 43.523,315.973 43.764 C 316.185 44.004,316.477 44.438,316.624 44.726 C 316.770 45.015,317.055 45.432,317.256 45.652 C 317.457 45.872,317.822 46.392,318.067 46.807 C 318.873 48.176,320.062 49.891,320.204 49.891 C 320.281 49.891,320.536 50.270,320.771 50.733 C 321.006 51.196,321.329 51.684,321.489 51.817 C 321.648 51.949,322.010 52.515,322.293 53.075 C 322.575 53.634,322.877 54.092,322.964 54.092 C 323.051 54.092,323.299 54.387,323.515 54.748 C 323.731 55.109,324.100 55.602,324.335 55.842 C 324.816 56.335,325.770 57.847,326.275 58.916 C 326.460 59.307,326.811 59.758,327.056 59.918 C 327.301 60.078,327.556 60.389,327.624 60.608 C 327.692 60.827,328.092 61.467,328.513 62.030 C 328.934 62.594,329.278 63.151,329.278 63.269 C 329.278 63.387,329.483 63.675,329.733 63.908 C 329.983 64.142,330.329 64.608,330.502 64.945 C 330.675 65.282,330.991 65.716,331.204 65.908 C 331.417 66.101,331.774 66.618,331.997 67.057 C 332.219 67.496,332.532 67.964,332.691 68.096 C 332.851 68.229,333.171 68.710,333.402 69.167 C 333.633 69.624,333.904 70.047,334.003 70.109 C 334.102 70.170,334.456 70.628,334.790 71.128 C 335.124 71.627,335.543 72.232,335.721 72.473 C 336.464 73.478,337.137 74.540,337.562 75.383 C 337.811 75.876,338.133 76.326,338.277 76.381 C 338.422 76.436,338.705 76.805,338.906 77.199 C 339.107 77.594,339.390 77.962,339.534 78.017 C 339.678 78.072,339.960 78.439,340.161 78.833 C 340.642 79.777,341.536 81.126,342.325 82.101 C 342.986 82.918,343.850 84.201,344.373 85.144 C 344.678 85.694,345.324 86.576,346.415 87.928 C 346.742 88.334,347.125 88.941,347.267 89.278 C 347.409 89.615,347.740 90.136,348.003 90.436 C 348.878 91.433,348.842 92.767,347.910 93.875 C 347.668 94.162,347.354 94.676,347.211 95.018 C 347.068 95.360,346.794 95.750,346.602 95.884 C 346.409 96.019,346.062 96.503,345.831 96.960 C 345.600 97.416,345.280 97.898,345.121 98.030 C 344.962 98.162,344.687 98.551,344.510 98.894 C 344.333 99.238,343.945 99.789,343.648 100.119 C 343.351 100.449,343.107 100.809,343.107 100.919 C 343.107 101.029,342.864 101.389,342.566 101.719 C 342.269 102.049,341.836 102.689,341.605 103.141 C 341.375 103.593,341.079 104.026,340.949 104.104 C 340.818 104.182,340.566 104.481,340.388 104.770 C 339.391 106.388,338.170 108.162,337.860 108.442 C 337.665 108.619,337.505 108.849,337.504 108.955 C 337.503 109.060,337.238 109.479,336.914 109.886 C 336.591 110.293,336.223 110.883,336.097 111.199 C 335.971 111.514,335.586 112.102,335.242 112.505 C 334.300 113.609,333.788 114.296,333.304 115.103 C 332.370 116.664,331.791 117.520,331.160 118.274 C 330.799 118.706,330.503 119.124,330.503 119.204 C 330.503 119.284,330.188 119.731,329.803 120.197 C 329.418 120.663,329.103 121.144,329.103 121.265 C 329.103 121.387,328.827 121.792,328.490 122.165 C 328.153 122.538,327.877 122.914,327.877 123.000 C 327.877 123.087,327.568 123.532,327.189 123.990 C 326.811 124.448,326.411 125.096,326.301 125.431 C 326.190 125.765,325.962 126.137,325.793 126.258 C 325.624 126.378,325.340 126.713,325.160 127.002 C 324.162 128.611,322.933 130.409,322.696 130.605 C 322.547 130.729,322.272 131.131,322.084 131.498 C 321.897 131.866,321.667 132.166,321.574 132.166 C 321.482 132.166,321.177 132.619,320.897 133.173 C 320.617 133.726,320.214 134.337,320.001 134.529 C 319.788 134.721,319.493 135.115,319.345 135.404 C 319.197 135.693,318.885 136.166,318.652 136.455 C 318.008 137.254,317.085 138.645,316.647 139.475 C 316.431 139.884,316.194 140.219,316.121 140.219 C 316.048 140.219,315.773 140.593,315.509 141.050 C 315.246 141.508,314.770 142.191,314.452 142.570 C 314.133 142.948,313.873 143.362,313.873 143.488 C 313.873 143.615,313.597 144.024,313.260 144.397 C 312.923 144.770,312.648 145.146,312.648 145.232 C 312.648 145.319,312.337 145.765,311.957 146.225 C 311.578 146.684,311.105 147.322,310.908 147.642 C 310.609 148.125,310.410 148.243,309.735 148.335 C 309.288 148.396,255.820 148.446,190.916 148.446 L 72.910 148.446 71.947 147.502 C 70.597 146.177,69.913 145.303,69.526 144.406 C 69.342 143.981,69.016 143.475,68.801 143.282 C 68.585 143.090,68.266 142.651,68.090 142.308 C 67.915 141.964,67.640 141.574,67.479 141.440 C 67.172 141.185,66.215 139.816,65.470 138.565 C 65.230 138.160,64.852 137.599,64.630 137.317 C 64.409 137.036,63.805 136.136,63.288 135.317 C 62.772 134.499,62.192 133.657,62.001 133.445 C 61.809 133.234,61.435 132.663,61.170 132.176 C 60.905 131.689,60.625 131.291,60.548 131.291 C 60.472 131.291,60.195 130.917,59.934 130.460 C 59.672 130.002,59.236 129.402,58.963 129.126 C 58.691 128.850,58.468 128.533,58.468 128.422 C 58.468 128.311,58.243 127.946,57.969 127.611 C 57.694 127.276,57.329 126.726,57.157 126.389 C 56.985 126.053,56.580 125.481,56.256 125.120 C 55.932 124.759,55.667 124.385,55.667 124.289 C 55.667 124.193,55.392 123.810,55.056 123.438 C 54.719 123.065,54.332 122.493,54.196 122.166 C 54.059 121.839,53.733 121.341,53.471 121.058 C 53.209 120.776,52.892 120.298,52.766 119.996 C 52.640 119.694,52.406 119.338,52.246 119.206 C 51.941 118.953,50.983 117.580,50.241 116.333 C 50.000 115.928,49.620 115.367,49.396 115.085 C 49.173 114.804,48.758 114.219,48.475 113.786 C 47.687 112.578,47.156 111.823,46.689 111.247 C 46.455 110.958,46.125 110.452,45.955 110.121 C 45.786 109.791,45.420 109.279,45.143 108.983 C 44.865 108.688,44.589 108.289,44.528 108.096 C 44.468 107.904,44.113 107.413,43.741 107.006 C 43.368 106.599,43.063 106.173,43.063 106.060 C 43.063 105.946,42.878 105.610,42.652 105.312 C 42.425 105.014,42.100 104.495,41.928 104.158 C 41.756 103.821,41.350 103.249,41.026 102.888 C 40.703 102.527,40.438 102.153,40.438 102.057 C 40.438 101.961,40.171 101.587,39.845 101.226 C 39.520 100.865,39.078 100.195,38.863 99.737 C 38.649 99.280,38.410 98.906,38.332 98.906 C 38.254 98.906,38.012 98.611,37.794 98.249 C 37.576 97.888,37.156 97.307,36.861 96.956 C 36.334 96.332,35.710 95.392,34.834 93.907 C 34.592 93.497,34.250 93.002,34.074 92.808 C 33.851 92.561,33.792 92.330,33.880 92.048 C 34.085 91.387,35.379 89.103,35.548 89.103 C 35.634 89.103,35.855 88.807,36.041 88.446 C 36.226 88.085,36.580 87.615,36.827 87.401 C 37.075 87.187,37.398 86.724,37.546 86.371 C 37.693 86.018,38.089 85.425,38.425 85.053 C 38.762 84.680,39.037 84.269,39.037 84.139 C 39.037 84.009,39.239 83.685,39.486 83.418 C 39.733 83.152,40.138 82.609,40.387 82.211 C 40.635 81.813,41.064 81.229,41.339 80.913 C 41.613 80.597,41.838 80.225,41.838 80.088 C 41.838 79.950,42.064 79.578,42.340 79.262 C 42.616 78.946,43.001 78.372,43.196 77.987 C 43.392 77.602,43.726 77.129,43.939 76.937 C 44.152 76.744,44.470 76.305,44.645 75.962 C 44.820 75.619,45.094 75.230,45.253 75.098 C 45.411 74.966,45.726 74.493,45.952 74.048 C 46.178 73.603,46.493 73.130,46.652 72.998 C 46.812 72.865,47.129 72.388,47.358 71.937 C 47.587 71.485,47.892 71.070,48.037 71.015 C 48.182 70.959,48.506 70.536,48.756 70.074 C 49.476 68.744,50.931 66.659,52.009 65.412 C 52.356 65.011,52.692 64.470,52.754 64.211 C 52.817 63.951,53.183 63.375,53.568 62.931 C 53.952 62.487,54.267 62.021,54.267 61.897 C 54.267 61.772,54.469 61.453,54.716 61.186 C 54.962 60.920,55.368 60.377,55.616 59.979 C 55.865 59.581,56.294 58.997,56.568 58.681 C 56.843 58.365,57.068 57.991,57.068 57.850 C 57.068 57.709,57.333 57.298,57.657 56.937 C 57.982 56.576,58.414 55.950,58.619 55.545 C 58.824 55.141,59.098 54.748,59.229 54.670 C 59.360 54.593,59.673 54.201,59.924 53.800 C 60.174 53.399,60.463 53.019,60.565 52.956 C 60.667 52.893,60.951 52.473,61.195 52.023 C 61.670 51.147,62.575 49.777,63.231 48.941 C 63.452 48.659,63.829 48.098,64.070 47.695 C 65.118 45.938,66.274 44.300,67.328 43.081 C 67.628 42.734,68.031 42.096,68.223 41.663 C 68.416 41.230,68.782 40.684,69.035 40.451 C 69.289 40.217,69.497 39.922,69.497 39.795 C 69.497 39.668,69.756 39.268,70.072 38.906 C 70.388 38.545,70.864 37.912,71.129 37.499 C 71.394 37.086,71.864 36.594,72.173 36.405 C 72.730 36.066,73.910 36.063,191.633 36.062 L 310.531 36.061 310.845 36.519 M122.016 76.812 C 121.366 77.338,121.328 78.201,121.321 92.885 C 121.312 109.284,121.307 109.176,122.122 109.517 C 123.366 110.037,125.421 109.711,125.799 108.934 C 125.978 108.567,126.115 80.091,125.946 78.444 C 125.779 76.818,125.411 76.499,123.703 76.499 C 122.715 76.499,122.309 76.574,122.016 76.812 M228.211 76.819 C 227.946 77.112,227.921 78.498,227.921 93.165 C 227.921 111.640,227.669 109.639,230.007 109.731 C 232.386 109.826,232.199 110.516,232.267 101.391 L 232.324 93.759 232.792 93.173 C 234.164 91.457,235.183 90.640,236.632 90.098 C 238.286 89.478,238.608 89.479,240.120 90.108 L 241.313 90.604 242.057 92.063 L 242.801 93.522 242.801 101.284 C 242.801 109.043,242.801 109.046,243.184 109.402 C 243.659 109.845,245.622 109.902,246.581 109.501 L 247.199 109.243 247.132 100.792 L 247.066 92.341 246.429 90.853 C 245.717 89.191,244.626 87.830,243.679 87.423 C 243.343 87.279,242.910 87.012,242.716 86.831 C 241.706 85.888,237.163 85.851,236.009 86.777 C 235.653 87.063,235.046 87.397,234.661 87.519 C 234.276 87.640,233.662 87.941,233.298 88.187 C 232.332 88.838,232.332 88.835,232.268 82.775 C 232.198 76.089,232.345 76.499,230.022 76.499 C 228.770 76.499,228.449 76.556,228.211 76.819 M201.221 77.488 C 199.827 77.844,199.356 78.973,199.868 80.730 C 200.204 81.887,200.425 82.013,202.109 82.013 C 203.800 82.013,204.145 81.807,204.444 80.620 C 205.017 78.345,203.529 76.899,201.221 77.488 M101.402 77.895 C 100.571 78.092,100.335 78.358,100.020 79.454 C 99.864 79.995,99.555 80.798,99.334 81.238 C 99.113 81.678,98.802 82.545,98.643 83.163 C 98.485 83.782,98.201 84.554,98.012 84.878 C 97.823 85.202,97.504 86.069,97.303 86.804 C 97.102 87.539,96.747 88.519,96.514 88.982 C 96.280 89.445,95.941 90.414,95.761 91.135 C 95.581 91.857,95.301 92.649,95.138 92.897 C 94.976 93.145,94.691 93.986,94.504 94.768 C 94.318 95.549,94.007 96.455,93.815 96.782 C 93.622 97.108,93.275 98.030,93.043 98.831 C 92.811 99.632,92.469 100.587,92.282 100.953 C 92.096 101.320,91.805 102.131,91.636 102.757 C 91.466 103.383,91.181 104.141,91.003 104.441 C 90.824 104.741,90.449 105.860,90.169 106.926 C 89.890 107.992,89.617 108.935,89.564 109.021 C 89.380 109.319,90.677 109.759,91.743 109.759 C 93.566 109.759,94.113 109.246,94.620 107.059 C 94.766 106.432,95.034 105.661,95.216 105.345 C 95.398 105.029,95.684 104.179,95.851 103.457 C 96.310 101.468,95.729 101.627,102.778 101.565 C 109.671 101.504,109.618 101.496,109.839 102.703 C 109.906 103.070,110.146 103.689,110.373 104.080 C 110.599 104.471,110.954 105.451,111.160 106.259 C 111.366 107.066,111.687 107.941,111.872 108.201 C 112.058 108.462,112.210 108.756,112.210 108.855 C 112.210 109.680,115.410 110.161,116.381 109.481 C 116.886 109.127,116.781 108.123,116.062 106.433 C 115.796 105.807,115.481 104.862,115.362 104.333 C 115.244 103.803,114.964 103.050,114.741 102.659 C 114.518 102.269,114.167 101.288,113.960 100.481 C 113.754 99.673,113.447 98.811,113.277 98.565 C 113.107 98.319,112.834 97.606,112.671 96.980 C 112.508 96.354,112.147 95.330,111.870 94.705 C 111.401 93.643,111.186 93.043,110.009 89.497 C 109.762 88.751,109.417 87.864,109.244 87.527 C 109.070 87.190,108.714 86.206,108.452 85.339 C 108.190 84.473,107.837 83.527,107.666 83.239 C 107.496 82.950,107.222 82.162,107.057 81.488 C 106.235 78.119,104.664 77.120,101.402 77.895 M212.806 80.896 C 212.338 81.300,212.320 81.384,212.218 83.551 C 212.160 84.782,212.055 85.825,211.984 85.869 C 211.913 85.912,211.236 86.038,210.479 86.147 C 208.780 86.393,208.488 86.620,208.496 87.686 C 208.503 88.796,208.785 89.085,210.168 89.400 C 212.250 89.875,212.107 89.317,212.223 97.432 C 212.349 106.286,212.563 107.283,214.631 108.651 C 215.008 108.901,215.317 109.166,215.317 109.240 C 215.317 109.724,220.015 109.984,221.468 109.581 C 222.728 109.230,223.209 106.883,222.184 106.077 C 221.630 105.641,221.366 105.645,220.627 106.101 C 219.768 106.632,217.880 106.099,217.041 105.088 C 216.629 104.592,216.609 90.962,217.019 90.153 L 217.330 89.540 219.552 89.453 C 222.266 89.346,222.971 88.943,222.764 87.615 C 222.567 86.355,222.285 86.223,219.646 86.157 C 216.666 86.082,216.782 86.187,216.686 83.488 C 216.592 80.867,216.510 80.752,214.606 80.591 C 213.387 80.488,213.253 80.511,212.806 80.896 M104.167 85.791 C 104.413 86.698,104.717 87.628,104.843 87.858 C 104.968 88.088,105.263 88.993,105.498 89.870 C 105.732 90.747,106.040 91.642,106.182 91.858 C 106.323 92.074,106.625 92.945,106.852 93.793 C 107.079 94.642,107.421 95.640,107.611 96.011 C 108.103 96.969,107.861 97.946,107.095 98.100 C 106.216 98.275,99.259 98.220,98.913 98.034 C 98.090 97.594,98.338 94.921,99.394 92.851 C 99.595 92.458,99.923 91.496,100.122 90.713 C 100.322 89.931,100.634 89.032,100.816 88.715 C 100.997 88.399,101.276 87.589,101.435 86.915 C 101.865 85.091,102.044 84.742,102.738 84.376 C 103.625 83.908,103.668 83.949,104.167 85.791 M138.031 86.207 C 137.934 86.242,137.652 86.316,137.403 86.370 C 137.154 86.425,136.651 86.707,136.285 86.998 C 135.919 87.289,135.489 87.527,135.330 87.527 C 134.720 87.527,133.197 89.383,132.322 91.192 C 131.522 92.846,131.707 97.522,132.614 98.600 C 133.137 99.221,133.145 99.427,132.671 100.030 C 131.191 101.911,130.955 104.210,132.084 105.740 C 132.767 106.665,132.678 107.504,131.772 108.685 C 130.616 110.194,130.604 110.229,130.597 112.155 C 130.588 114.708,131.504 116.206,133.484 116.876 C 133.963 117.038,134.664 117.374,135.042 117.622 L 135.729 118.074 140.396 118.074 L 145.063 118.074 145.755 117.594 C 146.136 117.330,146.844 116.997,147.329 116.853 C 147.843 116.700,148.396 116.382,148.658 116.088 C 148.905 115.811,149.261 115.475,149.451 115.341 C 150.238 114.785,151.158 112.568,151.159 111.223 C 151.160 109.513,150.041 107.750,148.572 107.147 C 147.619 106.755,147.544 106.715,146.837 106.213 C 146.203 105.763,144.258 105.570,140.306 105.563 C 136.376 105.556,136.054 105.473,135.422 104.300 C 134.717 102.991,135.879 101.839,137.233 102.506 C 138.697 103.227,143.367 102.999,144.378 102.157 C 144.642 101.938,145.151 101.620,145.510 101.452 C 148.081 100.245,149.375 96.293,148.628 91.929 C 148.334 90.216,148.512 89.651,149.410 89.438 C 149.698 89.370,150.150 89.266,150.413 89.206 C 151.351 88.994,151.782 87.207,151.054 86.548 C 150.714 86.240,138.788 85.928,138.031 86.207 M162.416 86.283 C 162.059 86.358,161.452 86.628,161.067 86.883 C 160.681 87.138,160.052 87.417,159.669 87.504 C 159.046 87.644,157.033 89.149,157.026 89.480 C 157.025 89.543,156.760 89.911,156.438 90.296 C 156.093 90.709,155.541 91.813,155.095 92.982 L 154.337 94.967 154.325 98.293 C 154.316 101.012,154.367 101.747,154.604 102.319 C 154.763 102.705,155.078 103.496,155.302 104.077 C 155.995 105.869,157.936 108.032,159.322 108.557 C 159.839 108.753,160.381 109.014,160.525 109.136 C 161.110 109.633,162.046 109.759,165.158 109.759 L 168.338 109.759 169.716 109.059 C 170.473 108.674,171.198 108.359,171.326 108.359 C 171.453 108.359,171.884 108.063,172.282 107.702 C 173.945 106.193,174.774 105.116,175.144 103.982 C 175.318 103.453,175.604 102.740,175.781 102.399 C 176.676 100.674,176.690 95.076,175.805 93.042 C 175.511 92.368,175.182 91.535,175.072 91.192 C 174.808 90.360,172.130 87.524,171.612 87.526 C 171.403 87.527,170.694 87.237,170.036 86.882 L 168.840 86.237 165.952 86.193 C 164.363 86.168,162.772 86.209,162.416 86.283 M183.195 86.250 C 181.982 86.437,182.057 85.656,182.057 98.067 L 182.057 109.252 182.664 109.506 C 183.613 109.902,185.578 109.842,186.050 109.402 C 186.432 109.047,186.433 109.019,186.433 102.128 C 186.433 95.551,186.552 93.654,186.964 93.654 C 187.041 93.654,187.346 93.260,187.642 92.779 C 187.938 92.298,188.255 91.904,188.346 91.904 C 188.437 91.904,188.733 91.595,189.004 91.218 C 189.620 90.362,190.825 90.040,192.721 90.227 C 194.875 90.440,195.793 89.401,195.066 87.576 C 194.374 85.841,190.582 85.463,188.994 86.969 C 188.693 87.255,188.283 87.538,188.084 87.597 C 187.885 87.657,187.543 87.947,187.325 88.243 C 186.831 88.911,186.354 88.615,186.171 87.527 C 185.989 86.452,184.906 85.987,183.195 86.250 M200.963 86.245 C 200.049 86.435,200.088 85.916,200.088 97.989 C 200.088 108.540,200.108 109.298,200.394 109.516 C 200.852 109.864,203.309 109.836,203.857 109.477 L 204.289 109.194 204.289 98.038 C 204.289 85.203,204.460 86.345,202.520 86.224 C 201.904 86.185,201.204 86.194,200.963 86.245 M254.880 86.346 L 254.267 86.565 254.220 97.856 L 254.173 109.147 254.545 109.453 C 255.100 109.908,257.481 109.889,258.055 109.425 L 258.468 109.090 258.525 101.293 L 258.581 93.495 260.003 92.063 C 260.785 91.276,261.705 90.521,262.047 90.385 C 262.390 90.249,262.827 90.065,263.020 89.976 C 264.390 89.346,266.005 89.830,267.202 91.229 C 268.182 92.373,268.226 92.782,268.309 101.415 L 268.384 109.263 268.979 109.511 C 269.842 109.872,271.727 109.838,272.189 109.453 C 272.552 109.151,272.558 109.030,272.603 101.499 L 272.648 93.852 273.129 93.350 C 273.394 93.073,273.611 92.777,273.611 92.692 C 273.611 92.181,275.662 90.631,277.086 90.066 L 278.599 89.465 280.010 90.148 C 282.423 91.316,282.535 91.790,282.539 100.919 C 282.543 110.082,282.462 109.760,284.762 109.759 C 287.141 109.757,287.149 109.726,287.053 100.219 C 286.985 93.525,286.680 91.091,285.723 89.606 C 284.696 88.014,284.410 87.692,283.724 87.362 C 283.313 87.163,282.700 86.824,282.363 86.608 C 281.805 86.249,281.540 86.214,279.361 86.214 L 276.972 86.214 276.282 86.769 C 275.903 87.074,275.269 87.411,274.873 87.517 C 274.434 87.636,273.994 87.916,273.741 88.239 C 273.455 88.604,273.049 88.840,272.420 89.006 L 271.511 89.246 271.132 88.693 C 270.664 88.009,270.105 87.536,269.761 87.531 C 269.617 87.529,269.075 87.235,268.555 86.877 L 267.610 86.226 265.402 86.162 C 263.289 86.100,263.161 86.117,262.407 86.551 C 261.974 86.800,261.265 87.170,260.832 87.374 C 260.398 87.577,259.824 87.949,259.556 88.199 C 258.942 88.773,258.586 88.596,258.185 87.517 C 257.742 86.325,256.334 85.826,254.880 86.346 M142.700 90.114 C 144.430 91.282,144.689 91.863,144.668 94.530 C 144.653 96.534,144.276 97.912,143.646 98.275 C 143.461 98.381,142.877 98.764,142.348 99.125 C 140.936 100.089,139.690 100.075,138.273 99.081 C 137.724 98.696,137.184 98.381,137.074 98.381 C 136.254 98.381,135.718 94.383,136.269 92.369 C 136.632 91.039,136.726 90.915,138.031 90.038 C 139.927 88.762,140.714 88.775,142.700 90.114 M167.386 89.993 C 169.559 90.714,170.285 91.436,171.226 93.808 C 172.102 96.016,172.233 99.779,171.491 101.412 C 171.265 101.911,170.978 102.631,170.853 103.011 C 170.019 105.570,166.270 106.979,163.113 105.922 C 160.991 105.210,160.322 104.551,159.368 102.228 L 158.687 100.569 158.690 97.943 L 158.692 95.317 159.360 93.761 C 160.232 91.731,161.255 90.644,162.633 90.284 C 163.160 90.146,163.828 89.906,164.116 89.750 C 164.879 89.337,165.561 89.388,167.386 89.993 M143.370 109.469 C 146.112 109.886,146.550 110.147,146.942 111.597 C 147.063 112.046,146.195 113.453,145.629 113.726 C 145.397 113.838,144.598 114.221,143.852 114.578 L 142.495 115.227 140.256 115.158 C 138.234 115.095,137.942 115.044,137.236 114.634 C 136.807 114.385,136.258 114.122,136.018 114.050 C 135.205 113.809,134.792 113.268,134.792 112.446 C 134.792 109.451,137.368 108.557,143.370 109.469 " stroke="none" fill="#14141a" fill-rule="evenodd"></path></g></svg>