<svg id="svg" xmlns="http://www.w3.org/2000/svg" xmlns:xlink="http://www.w3.org/1999/xlink" width="400" height="748.3870967741937" viewBox="0, 0, 400,748.3870967741937" version="1.1"><g id="svgg"><path id="path0" d="M28.344 21.165 L 27.400 21.929 27.108 136.865 C 26.947 200.079,26.816 253.240,26.816 255.000 C 26.834 350.554,27.310 487.057,27.626 487.649 C 27.848 488.064,29.085 488.936,30.374 489.587 C 33.124 490.975,34.100 492.090,35.039 494.918 C 35.418 496.058,36.049 497.518,36.441 498.164 C 37.620 500.102,36.009 501.628,30.703 503.601 C 29.440 504.071,28.135 504.843,27.803 505.316 C 27.064 506.371,26.865 737.827,27.602 739.204 C 27.823 739.617,29.110 740.545,30.461 741.265 C 33.243 742.748,34.396 744.281,34.399 746.500 L 34.400 748.000 202.800 748.000 L 371.200 748.000 371.200 627.273 C 371.200 497.533,371.297 504.188,369.356 501.416 C 368.648 500.404,368.648 499.196,369.356 498.184 C 371.292 495.420,371.200 501.141,371.200 383.627 C 371.200 291.018,371.287 273.739,371.766 271.200 C 372.764 265.903,372.946 256.765,372.139 252.400 C 371.484 248.853,371.423 241.072,371.219 135.668 C 371.005 25.183,370.983 22.723,370.238 22.178 C 367.676 20.305,376.947 20.400,197.283 20.400 C 32.476 20.400,29.271 20.415,28.344 21.165 M349.204 38.228 C 351.446 38.738,352.196 39.118,353.183 40.242 L 354.400 41.628 354.400 142.381 L 354.400 243.134 353.571 245.067 C 352.409 247.778,351.819 248.300,348.892 249.204 C 346.340 249.993,344.919 250.000,197.318 250.000 L 48.320 250.000 47.024 248.700 C 46.311 247.985,45.339 246.358,44.864 245.085 L 44.000 242.770 44.000 142.332 C 44.000 29.133,43.681 40.508,46.914 38.437 L 48.200 37.613 197.321 37.607 C 331.433 37.601,346.720 37.663,349.204 38.228 M349.794 269.168 C 352.316 269.847,353.377 270.545,354.398 272.197 C 355.669 274.254,355.475 478.049,354.200 480.600 C 352.416 484.168,370.369 483.786,199.024 483.903 L 47.849 484.006 46.293 482.977 C 42.567 480.511,42.748 486.358,42.883 372.600 L 43.000 273.800 43.928 272.307 C 45.018 270.554,46.789 269.201,48.546 268.779 C 51.014 268.186,347.570 268.569,349.794 269.168 M346.048 521.973 C 349.906 522.605,351.655 523.218,352.644 524.286 L 353.600 525.317 353.600 626.174 C 353.600 743.132,354.055 732.113,349.167 733.414 C 346.447 734.138,48.926 734.310,47.578 733.588 C 46.428 732.973,45.573 731.021,44.969 727.633 C 44.294 723.847,44.130 528.390,44.800 525.977 C 45.265 524.303,47.010 522.504,48.642 522.015 C 50.227 521.541,343.156 521.499,346.048 521.973 " stroke="none" fill="#131207" fill-rule="evenodd"></path><path id="path1" d="M27.800 17.180 C 25.820 18.129,24.720 19.053,23.750 20.582 C 23.022 21.729,22.994 25.146,22.797 134.582 C 22.603 242.936,22.566 247.495,21.854 249.800 C 20.246 255.011,20.252 255.260,22.128 261.200 C 22.444 262.202,22.631 294.638,22.785 375.200 L 23.000 487.800 23.930 489.295 C 24.453 490.137,25.810 491.359,27.033 492.091 C 29.372 493.489,29.409 493.552,29.806 496.683 C 30.105 499.042,29.658 499.690,26.419 501.600 C 25.478 502.155,24.294 503.328,23.761 504.235 L 22.800 505.870 22.800 622.400 L 22.800 738.930 23.795 740.627 C 24.416 741.688,25.580 742.809,26.895 743.615 C 29.336 745.111,29.586 745.415,29.594 746.900 C 29.599 747.731,29.795 748.000,30.400 748.000 C 31.677 748.000,31.504 745.443,30.142 744.181 C 29.559 743.641,28.925 743.200,28.733 743.200 C 27.875 743.200,24.785 739.808,24.409 738.455 C 23.858 736.473,23.848 508.363,24.398 506.382 C 24.872 504.677,26.897 502.628,29.493 501.228 C 32.581 499.563,32.457 493.853,29.292 491.966 C 26.916 490.549,24.823 488.345,24.397 486.814 C 24.145 485.904,24.002 445.659,23.997 374.000 C 23.990 264.982,23.973 262.519,23.207 258.805 C 22.429 255.034,22.429 254.986,23.212 251.142 C 23.985 247.348,24.000 245.139,24.002 135.737 C 24.004 63.971,24.145 23.696,24.397 22.786 C 24.843 21.182,27.244 18.657,28.926 18.024 C 30.833 17.306,363.705 17.468,367.748 18.189 C 370.913 18.753,372.248 19.520,373.337 21.400 C 373.683 21.998,373.876 51.264,374.099 137.200 C 374.463 277.103,374.471 246.946,374.031 383.600 C 373.827 446.850,373.662 499.140,373.664 499.800 C 373.666 500.460,373.745 556.575,373.840 624.500 C 373.992 733.142,374.084 748.000,374.604 748.000 C 375.125 748.000,375.194 720.061,375.187 512.500 C 375.181 335.731,375.298 274.790,375.655 268.140 C 376.020 261.336,376.021 257.438,375.661 251.340 C 375.323 245.612,375.194 212.612,375.196 132.884 C 375.200 23.675,375.191 22.350,374.411 20.822 C 373.487 19.010,372.078 17.810,370.054 17.108 C 367.246 16.136,29.832 16.206,27.800 17.180 M48.400 42.000 C 47.604 42.796,47.600 43.333,47.600 142.346 L 47.600 241.892 48.430 242.948 L 49.261 244.003 197.601 243.902 L 345.941 243.800 347.071 242.957 L 348.200 242.114 348.200 142.357 L 348.200 42.600 346.800 41.901 C 344.447 40.725,49.577 40.823,48.400 42.000 " stroke="none" fill="#94d44c" fill-rule="evenodd"></path><path id="path2" d="M0.000 374.000 L 0.000 748.000 14.800 748.000 L 29.600 748.000 29.594 746.900 C 29.586 745.415,29.336 745.111,26.895 743.615 C 25.580 742.809,24.416 741.688,23.795 740.627 L 22.800 738.930 22.800 622.400 L 22.800 505.870 23.761 504.235 C 24.294 503.328,25.478 502.155,26.419 501.600 C 29.658 499.690,30.105 499.042,29.806 496.683 C 29.409 493.552,29.372 493.489,27.033 492.091 C 25.810 491.359,24.453 490.137,23.930 489.295 L 23.000 487.800 22.797 375.200 C 22.603 267.059,22.566 262.505,21.854 260.200 C 20.246 254.989,20.252 254.740,22.128 248.800 C 22.445 247.798,22.631 215.311,22.785 134.600 C 22.998 22.702,23.006 21.789,23.800 20.473 C 24.747 18.903,27.607 16.905,29.357 16.593 C 32.218 16.082,368.560 16.591,370.054 17.108 C 371.959 17.768,373.452 18.971,374.308 20.535 C 374.958 21.722,375.018 28.910,375.301 137.600 C 375.665 278.009,375.665 244.134,375.304 383.600 C 375.137 448.390,375.046 556.885,375.103 624.700 L 375.206 748.000 387.603 748.000 L 400.000 748.000 400.000 374.000 L 400.000 0.000 200.000 0.000 L 0.000 0.000 0.000 374.000 " stroke="none" fill="#f8f8f8" fill-rule="evenodd"></path><path id="path3" d="M48.400 274.000 C 47.604 274.796,47.600 275.333,47.600 374.413 C 47.600 481.434,47.499 476.075,49.540 477.168 C 51.043 477.973,343.747 477.758,345.447 476.951 C 348.731 475.392,348.414 486.781,348.301 374.337 L 348.200 274.600 346.800 273.901 C 344.447 272.725,49.577 272.823,48.400 274.000 " stroke="none" fill="#fcfc04" fill-rule="evenodd"></path><path id="path4" d="M28.600 18.169 C 26.917 18.922,24.859 21.199,24.393 22.823 C 24.140 23.707,23.998 63.872,23.995 135.797 C 23.990 245.021,23.973 247.481,23.207 251.195 C 22.429 254.966,22.429 255.014,23.212 258.858 C 23.985 262.652,24.000 264.860,24.002 374.063 C 24.004 445.698,24.145 485.904,24.397 486.814 C 24.823 488.345,26.916 490.549,29.292 491.966 C 32.457 493.853,32.581 499.563,29.493 501.228 C 26.897 502.628,24.872 504.677,24.398 506.382 C 23.848 508.363,23.858 736.473,24.409 738.455 C 24.785 739.808,27.875 743.200,28.733 743.200 C 29.719 743.200,31.200 745.229,31.200 746.581 C 31.200 747.970,31.234 748.000,32.800 748.000 C 36.175 748.000,34.602 743.472,30.461 741.265 C 29.110 740.545,27.823 739.617,27.602 739.204 C 26.865 737.827,27.064 506.371,27.803 505.316 C 28.135 504.843,29.440 504.071,30.703 503.601 C 36.009 501.628,37.620 500.102,36.441 498.164 C 36.049 497.518,35.418 496.058,35.039 494.918 C 34.100 492.090,33.124 490.975,30.374 489.587 C 29.085 488.936,27.848 488.064,27.626 487.649 C 27.310 487.057,26.834 350.554,26.816 255.000 C 26.816 253.240,26.947 200.079,27.108 136.865 L 27.400 21.929 28.344 21.165 C 29.271 20.415,32.476 20.400,197.283 20.400 C 376.947 20.400,367.676 20.305,370.238 22.178 C 370.983 22.723,371.005 25.183,371.219 135.668 C 371.423 241.072,371.484 248.853,372.139 252.400 C 372.946 256.765,372.764 265.903,371.766 271.200 C 371.287 273.739,371.200 291.018,371.200 383.627 C 371.200 501.141,371.292 495.420,369.356 498.184 C 368.648 499.196,368.648 500.404,369.356 501.416 C 371.297 504.188,371.200 497.533,371.200 627.273 L 371.200 748.000 372.606 748.000 L 374.013 748.000 373.840 624.500 C 373.745 556.575,373.666 500.460,373.664 499.800 C 373.662 499.140,373.827 446.850,374.031 383.600 C 374.471 246.946,374.463 277.103,374.099 137.200 C 373.876 51.264,373.683 21.998,373.337 21.400 C 372.248 19.520,370.913 18.753,367.748 18.189 C 363.139 17.368,30.434 17.348,28.600 18.169 M46.914 38.437 C 43.681 40.508,44.000 29.133,44.000 142.332 L 44.000 242.770 44.864 245.085 C 45.339 246.358,46.311 247.985,47.024 248.700 L 48.320 250.000 197.318 250.000 C 344.919 250.000,346.340 249.993,348.892 249.204 C 351.819 248.300,352.409 247.778,353.571 245.067 L 354.400 243.134 354.400 142.381 L 354.400 41.628 353.183 40.242 C 350.674 37.385,363.367 37.599,197.321 37.607 L 48.200 37.613 46.914 38.437 M346.800 41.901 L 348.200 42.600 348.200 142.357 L 348.200 242.114 347.071 242.957 L 345.941 243.800 197.601 243.902 L 49.261 244.003 48.430 242.948 L 47.600 241.892 47.600 142.346 C 47.600 43.333,47.604 42.796,48.400 42.000 C 49.577 40.823,344.447 40.725,346.800 41.901 M48.546 268.779 C 46.789 269.201,45.018 270.554,43.928 272.307 L 43.000 273.800 42.883 372.600 C 42.748 486.358,42.567 480.511,46.293 482.977 L 47.849 484.006 199.024 483.903 C 370.369 483.786,352.416 484.168,354.200 480.600 C 355.475 478.049,355.669 274.254,354.398 272.197 C 353.377 270.545,352.316 269.847,349.794 269.168 C 347.570 268.569,51.014 268.186,48.546 268.779 M349.751 271.534 C 350.604 271.826,351.729 272.493,352.251 273.015 L 353.200 273.964 353.195 374.482 C 353.190 481.629,353.254 477.951,351.360 480.044 C 349.488 482.113,358.339 482.000,197.550 482.000 L 48.445 482.000 47.429 481.100 C 45.079 479.017,45.200 484.814,45.200 374.529 L 45.200 273.627 46.615 272.211 L 48.031 270.796 198.115 270.899 C 321.773 270.983,348.473 271.095,349.751 271.534 " stroke="none" fill="#6c9c3c" fill-rule="evenodd"></path><path id="path5" d="M46.615 272.211 L 45.200 273.627 45.200 374.529 C 45.200 484.814,45.079 479.017,47.429 481.100 L 48.445 482.000 197.550 482.000 C 358.339 482.000,349.488 482.113,351.360 480.044 C 353.254 477.951,353.190 481.629,353.195 374.482 L 353.200 273.964 352.251 273.015 C 350.116 270.880,359.532 271.009,198.115 270.899 L 48.031 270.796 46.615 272.211 M346.800 273.901 L 348.200 274.600 348.301 374.337 C 348.414 486.781,348.731 475.392,345.447 476.951 C 343.747 477.758,51.043 477.973,49.540 477.168 C 47.499 476.075,47.600 481.434,47.600 374.413 C 47.600 275.333,47.604 274.796,48.400 274.000 C 49.577 272.823,344.447 272.725,346.800 273.901 " stroke="none" fill="#c4c404" fill-rule="evenodd"></path><path id="path6" d="M48.642 522.015 C 47.010 522.504,45.265 524.303,44.800 525.977 C 44.130 528.390,44.294 723.847,44.969 727.633 C 45.573 731.021,46.428 732.973,47.578 733.588 C 48.926 734.310,346.447 734.138,349.167 733.414 C 354.055 732.113,353.600 743.132,353.600 626.174 L 353.600 525.317 352.644 524.286 C 351.655 523.218,349.906 522.605,346.048 521.973 C 343.156 521.499,50.227 521.541,48.642 522.015 " stroke="none" fill="#f80404" fill-rule="evenodd"></path></g></svg>