<svg id="svg" xmlns="http://www.w3.org/2000/svg" xmlns:xlink="http://www.w3.org/1999/xlink" width="400" height="172.3076923076923" viewBox="0, 0, 400,172.3076923076923" version="1.1"><g id="svgg"><path id="path0" d="M156.154 24.675 C -32.677 43.676,-18.441 144.383,174.637 155.429 C 345.817 165.222,450.141 88.056,327.921 42.049 C 288.204 27.098,210.341 19.222,156.154 24.675 M252.748 29.991 C 367.409 43.404,412.630 91.539,342.809 125.856 C 232.816 179.916,-2.607 143.460,29.409 77.324 C 46.114 42.816,158.596 18.978,252.748 29.991 M192.308 58.462 C 192.308 73.846,192.692 76.923,194.615 76.923 C 196.538 76.923,196.923 73.846,196.923 58.462 C 196.923 43.077,196.538 40.000,194.615 40.000 C 192.692 40.000,192.308 43.077,192.308 58.462 M108.416 57.308 C 105.241 65.981,102.321 73.942,101.927 75.000 C 101.532 76.058,102.358 76.923,103.762 76.923 C 105.214 76.923,107.007 74.935,107.923 72.308 C 109.402 68.066,110.114 67.692,116.736 67.692 C 123.329 67.692,124.089 68.085,125.683 72.308 C 126.674 74.934,128.548 76.923,130.031 76.923 C 131.896 76.923,132.332 76.158,131.563 74.231 C 130.973 72.750,128.047 64.788,125.062 56.538 C 117.775 36.399,116.040 36.479,108.416 57.308 M249.231 43.846 C 249.231 45.115,250.269 46.154,251.538 46.154 C 252.808 46.154,253.846 45.115,253.846 43.846 C 253.846 42.577,252.808 41.538,251.538 41.538 C 250.269 41.538,249.231 42.577,249.231 43.846 M232.308 47.692 C 232.308 49.402,231.282 50.769,230.000 50.769 C 228.731 50.769,227.692 51.387,227.692 52.143 C 227.692 52.899,228.731 53.915,230.000 54.403 C 231.686 55.050,232.308 57.704,232.308 64.259 C 232.308 69.194,233.138 74.062,234.154 75.077 C 236.701 77.624,243.077 77.416,243.077 74.786 C 243.077 73.611,241.865 72.746,240.385 72.863 C 238.129 73.042,237.618 71.518,237.234 63.462 L 236.776 53.846 243.004 53.846 L 249.231 53.846 249.231 65.385 C 249.231 74.615,249.692 76.923,251.538 76.923 C 253.409 76.923,253.846 74.444,253.846 63.846 L 253.846 50.769 245.385 50.769 C 237.949 50.769,236.923 50.396,236.923 47.692 C 236.923 45.983,235.897 44.615,234.615 44.615 C 233.333 44.615,232.308 45.983,232.308 47.692 M119.790 55.230 C 122.565 63.530,122.126 64.615,115.989 64.615 C 111.873 64.615,110.653 64.061,111.264 62.468 C 111.717 61.287,112.946 57.457,113.995 53.957 C 116.071 47.026,117.125 47.257,119.790 55.230 M136.923 63.846 C 136.923 80.389,141.074 83.457,141.850 67.487 C 142.730 49.355,153.846 49.647,153.846 67.802 C 153.846 74.884,154.362 76.923,156.154 76.923 C 157.960 76.923,158.462 74.824,158.462 67.265 C 158.462 53.056,153.374 47.620,144.514 52.362 C 142.463 53.460,141.538 53.460,141.538 52.362 C 141.538 51.486,140.500 50.769,139.231 50.769 C 137.360 50.769,136.923 53.248,136.923 63.846 M168.077 51.788 C 163.513 53.630,166.079 56.789,170.801 55.143 C 174.248 53.941,176.037 54.011,177.724 55.411 C 181.725 58.732,180.410 61.538,174.854 61.538 C 169.425 61.538,164.615 65.338,164.615 69.627 C 164.615 74.401,168.968 76.814,176.970 76.476 L 184.614 76.154 184.615 65.879 C 184.616 52.380,178.829 47.449,168.077 51.788 M203.077 52.785 C 203.077 53.894,204.848 59.259,207.012 64.708 C 209.849 71.851,210.702 76.225,210.070 80.385 C 209.147 86.465,212.661 89.048,214.256 83.462 C 214.679 81.981,217.516 73.971,220.562 65.662 C 225.135 53.184,225.657 50.640,223.562 51.046 C 222.016 51.346,219.872 54.996,218.076 60.385 C 214.378 71.481,213.463 71.438,210.000 60.000 C 207.516 51.795,203.077 47.169,203.077 52.785 M263.189 54.823 C 256.716 63.052,260.949 76.923,269.934 76.923 C 275.188 76.923,278.462 75.384,278.462 72.912 C 278.462 70.384,277.666 70.263,273.983 72.235 C 269.591 74.585,264.615 70.130,264.615 63.846 C 264.615 57.562,269.591 53.107,273.983 55.458 C 277.666 57.429,278.462 57.309,278.462 54.780 C 278.462 49.420,267.414 49.451,263.189 54.823 M285.504 53.714 C 281.920 57.674,283.175 60.792,289.963 64.798 C 298.282 69.706,295.844 75.699,286.910 72.303 C 283.913 71.163,283.077 71.334,283.077 73.086 C 283.077 74.318,284.905 75.785,287.139 76.346 C 299.256 79.387,304.336 68.118,293.466 62.311 C 285.320 57.959,287.615 51.552,296.147 54.826 C 298.093 55.572,298.676 55.250,298.168 53.707 C 297.006 50.172,288.705 50.177,285.504 53.714 M180.000 67.638 C 180.000 71.173,175.133 74.244,171.650 72.907 C 168.768 71.801,168.423 66.736,171.154 65.634 C 175.894 63.722,180.000 64.652,180.000 67.638 M244.615 124.615 C 244.615 140.000,245.000 143.077,246.923 143.077 C 248.846 143.077,249.231 140.000,249.231 124.615 C 249.231 109.231,248.846 106.154,246.923 106.154 C 245.000 106.154,244.615 109.231,244.615 124.615 M162.308 109.147 C 146.586 115.581,151.147 143.124,167.923 143.056 C 179.002 143.011,180.000 142.108,180.000 132.128 L 180.000 123.077 173.846 123.077 C 170.462 123.077,167.692 123.769,167.692 124.615 C 167.692 125.462,169.423 126.154,171.538 126.154 C 175.000 126.154,175.385 126.769,175.385 132.308 C 175.385 139.764,166.348 141.549,160.623 135.223 C 151.480 125.120,159.021 111.531,173.077 112.783 L 182.308 113.605 178.676 110.649 C 174.931 107.600,167.706 106.937,162.308 109.147 M191.037 120.484 C 183.328 128.690,188.361 143.077,198.941 143.077 C 206.526 143.077,210.769 138.365,210.769 129.940 C 210.769 117.815,198.892 112.123,191.037 120.484 M219.583 118.603 C 215.560 120.945,217.851 123.233,222.463 121.479 C 226.971 119.765,232.308 121.912,232.308 125.439 C 232.308 126.928,230.708 127.692,227.591 127.692 C 220.488 127.692,216.923 130.218,216.923 135.250 C 216.923 141.290,219.576 142.947,228.908 142.735 L 236.923 142.552 236.923 133.157 C 236.923 118.786,229.693 112.717,219.583 118.603 M203.736 122.418 C 209.096 127.778,206.061 138.846,199.231 138.846 C 190.991 138.846,189.072 124.110,196.923 121.121 C 200.564 119.735,201.169 119.851,203.736 122.418 M232.308 133.792 C 232.308 137.215,227.027 140.664,223.726 139.398 C 221.481 138.536,220.731 133.628,222.564 131.795 C 225.068 129.291,232.308 130.775,232.308 133.792 " stroke="none" fill="#000000" fill-rule="evenodd"></path></g></svg>