<svg id="svg" xmlns="http://www.w3.org/2000/svg" xmlns:xlink="http://www.w3.org/1999/xlink" width="400" height="288.1720430107527" viewBox="0, 0, 400,288.1720430107527" version="1.1"><g id="svgg"><path id="path0" d="M207.732 46.979 C 206.638 48.750,214.271 58.442,229.985 75.232 L 253.903 100.790 244.693 109.403 C 237.294 116.324,236.014 118.551,238.181 120.737 C 240.352 122.928,242.682 121.689,250.120 114.388 L 259.363 105.317 314.090 162.329 C 344.190 193.685,370.027 219.343,371.505 219.347 C 378.836 219.368,377.123 217.464,284.018 122.074 L 263.583 101.137 271.771 92.751 C 281.943 82.334,278.412 77.830,267.991 87.930 C 258.722 96.914,260.510 97.869,233.406 69.454 C 216.935 52.184,208.876 45.130,207.732 46.979 M179.025 73.639 L 154.944 97.720 147.550 90.554 C 136.876 80.208,132.763 84.129,143.141 94.757 L 151.187 102.997 95.486 160.288 C 43.863 213.384,33.660 225.231,41.203 223.314 C 42.788 222.910,69.180 196.668,99.851 164.997 L 155.615 107.412 163.826 115.430 C 175.851 127.172,180.856 122.006,169.109 109.976 L 161.007 101.679 184.060 77.622 C 215.441 44.873,211.170 41.494,179.025 73.639 M157.212 176.882 C 150.649 194.317,144.086 213.467,144.086 215.182 C 144.086 219.798,148.776 216.731,150.860 210.753 C 152.889 204.932,154.014 204.301,162.366 204.301 C 170.717 204.301,171.842 204.932,173.871 210.753 C 175.108 214.301,177.581 217.204,179.365 217.204 C 182.204 217.204,171.932 182.714,166.454 173.849 C 164.297 170.360,159.014 172.094,157.212 176.882 M189.247 194.474 C 189.247 224.255,195.116 228.679,196.150 199.678 L 196.774 182.151 206.420 199.678 C 220.368 225.019,223.656 224.055,223.656 194.624 C 223.656 165.561,217.818 160.557,216.757 188.710 L 216.129 205.376 207.396 189.247 C 193.608 163.784,189.247 165.040,189.247 194.474 M234.409 194.624 L 234.409 217.204 245.327 217.204 C 260.703 217.204,268.847 209.223,268.749 194.251 C 268.644 178.407,261.617 172.043,244.227 172.043 L 234.409 172.043 234.409 194.624 M259.670 182.082 C 266.262 191.096,262.568 206.996,253.042 210.618 C 241.306 215.080,240.860 214.485,240.860 194.342 L 240.860 175.781 248.918 177.089 C 253.349 177.808,258.188 180.055,259.670 182.082 M169.733 198.387 C 169.821 199.274,166.505 200.000,162.366 200.000 C 153.609 200.000,153.798 200.538,158.464 188.877 L 162.088 179.818 165.831 188.296 C 167.889 192.959,169.645 197.500,169.733 198.387 " stroke="none" fill="#000000" fill-rule="evenodd"></path></g></svg>