<svg id="svg" xmlns="http://www.w3.org/2000/svg" xmlns:xlink="http://www.w3.org/1999/xlink" width="400" height="222.00956937799043" viewBox="0, 0, 400,222.00956937799043" version="1.1"><g id="svgg"><path id="path0" d="M72.249 63.262 C 64.300 68.009,69.178 69.585,79.658 65.656 C 82.406 64.626,88.422 70.557,86.986 72.882 C 86.388 73.849,83.740 74.641,81.101 74.641 C 70.505 74.641,64.524 84.811,71.196 91.483 C 74.080 94.367,83.548 94.487,85.294 91.662 C 86.225 90.154,87.024 90.225,88.064 91.907 C 93.128 100.102,96.186 76.664,91.315 66.986 C 88.641 61.672,78.295 59.651,72.249 63.262 M103.349 77.512 C 103.349 90.696,103.893 93.780,106.220 93.780 C 108.470 93.780,109.091 91.156,109.091 81.647 C 109.091 70.729,109.547 69.306,113.641 67.441 C 120.380 64.370,122.488 67.773,122.488 81.722 C 122.488 91.310,123.092 93.780,125.439 93.780 C 127.892 93.780,128.296 91.281,127.832 78.988 C 127.203 62.341,122.059 57.005,112.434 63.016 C 109.484 64.859,108.101 64.974,107.583 63.419 C 105.340 56.690,103.349 63.317,103.349 77.512 M140.967 63.659 C 135.243 67.847,137.575 75.028,145.933 78.955 C 156.372 83.859,152.853 91.943,142.064 87.841 C 138.269 86.398,137.621 86.667,138.152 89.467 C 139.116 94.554,151.366 95.051,155.773 90.182 C 160.536 84.919,158.112 78.764,149.930 75.345 C 141.157 71.680,141.769 65.894,150.885 66.322 C 154.848 66.507,156.868 65.807,156.410 64.408 C 155.347 61.165,145.056 60.667,140.967 63.659 M162.690 62.679 C 162.696 63.469,164.671 70.574,167.078 78.469 C 172.722 96.979,177.187 98.130,181.917 82.297 L 185.062 71.770 188.361 82.775 C 192.389 96.215,197.226 97.723,200.642 86.603 C 208.884 59.780,208.594 61.244,205.658 61.244 C 203.902 61.244,201.718 65.449,199.694 72.727 C 195.726 87.000,194.413 87.074,191.031 73.216 C 187.386 58.284,183.077 57.503,179.873 71.193 C 176.135 87.163,175.099 87.485,171.402 73.827 C 168.594 63.454,162.639 55.833,162.690 62.679 M217.138 65.942 C 204.056 79.024,218.602 99.374,236.207 92.618 C 241.790 90.476,239.460 87.515,233.180 88.771 C 226.478 90.111,218.182 86.029,218.182 81.391 C 218.182 79.409,221.199 78.503,229.187 78.086 C 239.596 77.543,240.163 77.259,239.669 72.829 C 238.383 61.304,225.663 57.416,217.138 65.942 M248.804 77.512 C 248.804 90.696,249.348 93.780,251.675 93.780 C 253.896 93.780,254.545 91.271,254.545 82.679 C 254.545 71.170,256.689 66.986,262.584 66.986 C 264.478 66.986,266.029 65.694,266.029 64.115 C 266.029 60.681,260.074 60.308,256.842 63.541 C 255.056 65.327,254.545 65.327,254.545 63.541 C 254.545 62.278,253.254 61.244,251.675 61.244 C 249.348 61.244,248.804 64.327,248.804 77.512 M273.024 63.659 C 267.301 67.847,269.632 75.028,277.990 78.955 C 288.430 83.859,284.910 91.943,274.122 87.841 C 270.327 86.398,269.679 86.667,270.209 89.467 C 271.173 94.554,283.424 95.051,287.830 90.182 C 292.593 84.919,290.170 78.764,281.987 75.345 C 273.214 71.680,273.827 65.894,282.942 66.322 C 286.905 66.507,288.926 65.807,288.467 64.408 C 287.404 61.165,277.113 60.667,273.024 63.659 M232.399 68.079 C 237.313 72.993,235.905 74.641,226.794 74.641 C 222.057 74.641,218.182 73.841,218.182 72.864 C 218.182 70.190,223.839 65.072,226.794 65.072 C 228.223 65.072,230.745 66.425,232.399 68.079 M88.038 81.043 C 88.038 84.949,80.915 90.566,77.583 89.287 C 74.614 88.148,73.558 82.103,75.917 79.745 C 78.313 77.349,88.038 78.391,88.038 81.043 M309.480 92.499 C 308.820 94.219,315.891 98.700,331.240 106.289 C 343.856 112.527,353.022 118.123,351.830 118.860 C 350.648 119.590,350.155 121.423,350.735 122.933 C 351.491 124.904,345.903 128.582,330.918 135.975 C 319.439 141.639,310.048 147.380,310.048 148.734 C 310.048 152.898,313.824 151.504,344.474 136.023 L 374.115 121.052 343.061 105.502 C 308.307 88.099,310.798 89.064,309.480 92.499 M40.191 121.531 C 40.191 123.658,42.424 124.402,48.804 124.402 C 55.183 124.402,57.416 123.658,57.416 121.531 C 57.416 119.405,55.183 118.660,48.804 118.660 C 42.424 118.660,40.191 119.405,40.191 121.531 M74.641 121.531 C 74.641 123.658,76.874 124.402,83.254 124.402 C 89.633 124.402,91.866 123.658,91.866 121.531 C 91.866 119.405,89.633 118.660,83.254 118.660 C 76.874 118.660,74.641 119.405,74.641 121.531 M109.091 121.531 C 109.091 123.658,111.324 124.402,117.703 124.402 C 124.083 124.402,126.316 123.658,126.316 121.531 C 126.316 119.405,124.083 118.660,117.703 118.660 C 111.324 118.660,109.091 119.405,109.091 121.531 M143.541 121.531 C 143.541 123.658,145.774 124.402,152.153 124.402 C 158.533 124.402,160.766 123.658,160.766 121.531 C 160.766 119.405,158.533 118.660,152.153 118.660 C 145.774 118.660,143.541 119.405,143.541 121.531 M177.990 121.531 C 177.990 123.658,180.223 124.402,186.603 124.402 C 192.982 124.402,195.215 123.658,195.215 121.531 C 195.215 119.405,192.982 118.660,186.603 118.660 C 180.223 118.660,177.990 119.405,177.990 121.531 M212.440 121.531 C 212.440 123.658,214.673 124.402,221.053 124.402 C 227.432 124.402,229.665 123.658,229.665 121.531 C 229.665 119.405,227.432 118.660,221.053 118.660 C 214.673 118.660,212.440 119.405,212.440 121.531 M246.890 121.531 C 246.890 123.658,249.123 124.402,255.502 124.402 C 261.882 124.402,264.115 123.658,264.115 121.531 C 264.115 119.405,261.882 118.660,255.502 118.660 C 249.123 118.660,246.890 119.405,246.890 121.531 M281.340 121.531 C 281.340 123.658,283.573 124.402,289.952 124.402 C 296.332 124.402,298.565 123.658,298.565 121.531 C 298.565 119.405,296.332 118.660,289.952 118.660 C 283.573 118.660,281.340 119.405,281.340 121.531 M315.789 121.531 C 315.789 123.658,318.022 124.402,324.402 124.402 C 330.781 124.402,333.014 123.658,333.014 121.531 C 333.014 119.405,330.781 118.660,324.402 118.660 C 318.022 118.660,315.789 119.405,315.789 121.531 " stroke="none" fill="#000000" fill-rule="evenodd"></path></g></svg>