<svg id="svg" xmlns="http://www.w3.org/2000/svg" xmlns:xlink="http://www.w3.org/1999/xlink" width="400" height="102.04081632653062" viewBox="0, 0, 400,102.04081632653062" version="1.1"><g id="svgg"><path id="path0" d="M96.207 52.196 C 90.573 68.053,90.331 69.388,93.089 69.388 C 94.152 69.388,95.425 67.551,95.918 65.306 C 96.763 61.459,97.192 61.224,103.376 61.224 C 109.444 61.224,110.045 61.532,111.361 65.306 C 112.143 67.551,113.734 69.388,114.895 69.388 C 117.727 69.388,117.729 69.398,111.720 53.061 C 104.501 33.436,102.904 33.347,96.207 52.196 M205.782 39.796 C 206.639 42.370,210.884 42.736,210.884 40.236 C 210.884 38.974,209.721 38.095,208.050 38.095 C 206.387 38.095,205.450 38.798,205.782 39.796 M257.143 40.136 C 257.143 41.259,258.061 42.177,259.184 42.177 C 260.306 42.177,261.224 41.259,261.224 40.136 C 261.224 39.014,260.306 38.095,259.184 38.095 C 258.061 38.095,257.143 39.014,257.143 40.136 M242.177 43.537 C 242.177 45.049,241.270 46.259,240.136 46.259 C 239.014 46.259,238.095 46.805,238.095 47.473 C 238.095 48.142,239.014 49.041,240.136 49.472 C 241.627 50.044,242.177 52.391,242.177 58.189 C 242.177 62.552,242.912 66.857,243.810 67.755 C 246.062 70.007,251.701 69.824,251.701 67.498 C 251.701 66.459,250.629 65.693,249.320 65.797 C 247.325 65.956,246.873 64.608,246.534 57.483 L 246.129 48.980 251.636 48.980 L 257.143 48.980 257.143 59.184 C 257.143 67.347,257.551 69.388,259.184 69.388 C 260.838 69.388,261.224 67.196,261.224 57.823 L 261.224 46.259 253.741 46.259 C 247.166 46.259,246.259 45.929,246.259 43.537 C 246.259 42.026,245.351 40.816,244.218 40.816 C 243.084 40.816,242.177 42.026,242.177 43.537 M108.061 55.442 C 108.943 58.239,108.592 58.503,104.003 58.503 C 98.487 58.503,98.205 56.795,102.092 46.939 L 103.701 42.857 105.398 47.619 C 106.331 50.238,107.529 53.759,108.061 55.442 M123.469 47.694 C 119.176 50.256,120.548 55.407,126.531 59.184 C 132.805 63.144,132.898 63.355,129.252 65.306 C 127.302 66.349,125.726 66.332,123.693 65.244 C 120.198 63.373,118.741 64.519,121.061 67.314 C 124.084 70.957,132.339 69.707,134.727 65.245 C 136.669 61.616,134.965 58.653,129.662 56.438 C 123.402 53.822,123.874 49.563,130.391 49.868 C 133.208 50.000,134.645 49.502,134.318 48.507 C 133.638 46.433,126.481 45.896,123.469 47.694 M142.517 47.694 C 138.223 50.256,139.595 55.407,145.578 59.184 C 151.852 63.144,151.946 63.355,148.299 65.306 C 146.350 66.349,144.774 66.332,142.741 65.244 C 139.246 63.373,137.789 64.519,140.109 67.314 C 143.132 70.957,151.386 69.707,153.774 65.245 C 155.716 61.616,154.012 58.653,148.710 56.438 C 142.450 53.822,142.922 49.563,149.438 49.868 C 152.256 50.000,153.692 49.502,153.366 48.507 C 152.686 46.433,145.528 45.896,142.517 47.694 M161.905 48.980 C 151.730 59.154,164.765 75.411,176.007 66.568 C 183.993 60.286,179.421 46.259,169.388 46.259 C 166.440 46.259,163.589 47.295,161.905 48.980 M187.755 48.980 C 178.637 58.097,189.223 74.898,199.398 67.458 C 202.760 65.000,201.159 63.229,197.395 65.244 C 192.451 67.890,189.116 64.901,189.116 57.823 C 189.116 50.746,192.451 47.756,197.395 50.402 C 200.890 52.273,202.347 51.127,200.027 48.332 C 197.600 45.407,190.978 45.757,187.755 48.980 M206.803 57.823 C 206.803 67.196,207.190 69.388,208.844 69.388 C 210.498 69.388,210.884 67.196,210.884 57.823 C 210.884 48.450,210.498 46.259,208.844 46.259 C 207.190 46.259,206.803 48.450,206.803 57.823 M219.388 47.160 C 215.352 48.788,217.621 51.582,221.797 50.126 C 224.845 49.064,226.427 49.125,227.920 50.364 C 231.458 53.300,230.295 55.782,225.381 55.782 C 220.580 55.782,216.327 59.142,216.327 62.935 C 216.327 67.157,220.175 69.291,227.252 68.993 L 234.013 68.707 234.013 59.621 C 234.014 47.683,228.897 43.323,219.388 47.160 M270.006 49.598 C 263.141 56.464,267.590 69.388,276.819 69.388 C 283.178 69.388,287.095 65.728,288.006 58.933 C 289.455 48.128,277.616 41.988,270.006 49.598 M293.878 57.823 C 293.878 72.453,297.549 75.166,298.234 61.043 C 299.013 45.008,308.844 45.266,308.844 61.322 C 308.844 67.584,309.300 69.388,310.884 69.388 C 312.482 69.388,312.925 67.532,312.925 60.847 C 312.925 48.281,308.426 43.473,300.591 47.667 C 298.777 48.638,297.959 48.638,297.959 47.667 C 297.959 46.892,297.041 46.259,295.918 46.259 C 294.264 46.259,293.878 48.450,293.878 57.823 M174.469 52.282 C 178.705 58.467,172.185 68.624,166.078 65.355 C 161.827 63.080,162.011 52.079,166.327 50.475 C 169.640 49.243,172.881 49.962,174.469 52.282 M281.633 51.701 C 288.341 58.409,281.341 69.850,273.772 64.549 C 269.606 61.631,269.606 54.016,273.772 51.098 C 277.663 48.372,278.357 48.425,281.633 51.701 M229.932 61.177 C 229.932 64.303,225.628 67.018,222.548 65.836 C 219.999 64.858,219.693 60.379,222.109 59.404 C 226.301 57.713,229.932 58.536,229.932 61.177 M40.816 85.034 C 40.816 86.836,59.184 87.075,197.959 87.075 C 336.735 87.075,355.102 86.836,355.102 85.034 C 355.102 83.232,336.735 82.993,197.959 82.993 C 59.184 82.993,40.816 83.232,40.816 85.034 " stroke="none" fill="#000000" fill-rule="evenodd"></path></g></svg>