<svg id="svg" xmlns="http://www.w3.org/2000/svg" xmlns:xlink="http://www.w3.org/1999/xlink" width="400" height="253.06122448979593" viewBox="0, 0, 400,253.06122448979593" version="1.1"><g id="svgg"><path id="path0" d="M146.939 20.304 C 51.514 32.661,-12.543 88.482,6.571 142.624 C 40.884 239.819,275.280 259.265,357.823 171.766 C 432.590 92.508,303.780 -0.007,146.939 20.304 M229.322 24.560 C 343.792 37.673,407.298 107.542,357.358 165.424 C 293.988 238.871,103.654 242.677,32.059 171.929 C -44.093 96.677,75.957 6.991,229.322 24.560 M334.694 125.714 C 334.694 136.599,335.337 143.673,336.327 143.673 C 337.316 143.673,337.959 136.599,337.959 125.714 C 337.959 114.830,337.316 107.755,336.327 107.755 C 335.337 107.755,334.694 114.830,334.694 125.714 M45.714 126.531 L 45.714 143.673 53.878 143.673 C 66.555 143.673,72.899 134.939,65.555 127.595 C 62.962 125.002,62.847 124.156,64.738 121.569 C 69.372 115.232,63.770 109.388,53.061 109.388 L 45.714 109.388 45.714 126.531 M124.082 111.837 C 124.082 113.184,125.184 114.286,126.531 114.286 C 127.878 114.286,128.980 113.184,128.980 111.837 C 128.980 110.490,127.878 109.388,126.531 109.388 C 125.184 109.388,124.082 110.490,124.082 111.837 M249.670 114.160 C 239.043 124.788,245.909 143.673,260.400 143.673 C 269.767 143.673,271.020 142.497,271.020 133.703 L 271.020 125.714 264.490 125.714 C 260.898 125.714,257.959 126.449,257.959 127.347 C 257.959 128.245,260.163 128.980,262.857 128.980 C 269.088 128.980,270.324 137.723,264.315 139.294 C 256.332 141.382,249.469 135.410,249.469 126.375 C 249.469 116.193,256.725 111.787,268.182 115.012 C 271.840 116.042,272.511 115.816,271.742 113.812 C 269.408 107.730,255.887 107.943,249.670 114.160 M60.522 115.239 C 63.438 118.753,60.592 123.107,54.937 123.782 C 50.971 124.256,50.612 123.816,50.612 118.476 C 50.612 111.951,56.261 110.105,60.522 115.239 M75.436 130.034 C 76.005 142.836,78.440 145.594,86.489 142.556 C 89.206 141.531,91.429 141.363,91.429 142.183 C 91.429 143.003,92.163 143.673,93.061 143.673 C 94.005 143.673,94.694 138.503,94.694 131.429 C 94.694 124.354,94.005 119.184,93.061 119.184 C 92.163 119.184,91.429 122.743,91.429 127.094 C 91.429 134.972,88.193 140.408,83.505 140.408 C 80.821 140.408,78.367 133.338,78.367 125.608 C 78.367 122.075,77.599 119.184,76.660 119.184 C 75.595 119.184,75.134 123.265,75.436 130.034 M103.797 121.742 C 99.895 125.644,101.206 129.427,107.406 132.156 C 114.454 135.258,113.826 139.691,106.388 139.342 C 99.975 139.042,100.141 142.602,106.576 143.366 C 117.730 144.691,121.225 135.935,111.768 130.355 C 105.215 126.489,105.142 123.233,111.610 123.331 C 114.004 123.368,115.712 122.633,115.406 121.699 C 114.464 118.820,106.690 118.849,103.797 121.742 M124.082 131.429 C 124.082 141.224,124.571 143.673,126.531 143.673 C 128.490 143.673,128.980 141.224,128.980 131.429 C 128.980 121.633,128.490 119.184,126.531 119.184 C 124.571 119.184,124.082 121.633,124.082 131.429 M137.143 131.429 C 137.143 138.503,137.832 143.673,138.776 143.673 C 139.673 143.673,140.408 140.114,140.408 135.763 C 140.408 129.977,141.268 127.075,143.613 124.953 C 149.179 119.915,151.837 122.783,151.837 133.826 C 151.837 141.491,152.380 143.673,154.286 143.673 C 157.833 143.673,157.735 125.315,154.169 121.749 C 151.124 118.704,145.115 118.396,142.367 121.143 C 140.844 122.667,140.408 122.667,140.408 121.143 C 140.408 120.065,139.673 119.184,138.776 119.184 C 137.832 119.184,137.143 124.354,137.143 131.429 M166.594 122.757 C 156.920 133.141,168.273 147.914,181.907 142.682 C 186.471 140.931,184.713 138.467,179.688 139.571 C 174.213 140.773,168.163 138.183,168.163 134.636 C 168.163 132.855,170.246 132.245,176.327 132.245 C 183.882 132.245,184.490 131.949,184.490 128.280 C 184.490 119.482,172.960 115.924,166.594 122.757 M193.053 121.069 C 189.165 124.957,190.713 129.861,196.735 132.732 C 205.355 136.843,202.679 141.758,193.127 139.360 C 189.999 138.575,189.148 138.880,189.709 140.586 C 190.672 143.515,200.325 144.481,203.372 141.952 C 207.869 138.220,206.207 132.495,199.856 129.841 C 192.795 126.891,193.272 123.161,200.665 123.515 C 203.959 123.673,205.653 123.071,205.264 121.882 C 204.392 119.224,195.491 118.631,193.053 121.069 M214.278 121.069 C 210.390 124.957,211.938 129.861,217.959 132.732 C 226.579 136.843,223.904 141.758,214.351 139.360 C 211.224 138.575,210.373 138.880,210.933 140.586 C 211.896 143.515,221.550 144.481,224.596 141.952 C 229.094 138.220,227.432 132.495,221.081 129.841 C 214.020 126.891,214.497 123.161,221.890 123.515 C 225.184 123.673,226.878 123.071,226.488 121.882 C 225.617 119.224,216.716 118.631,214.278 121.069 M282.635 122.041 C 277.385 126.400,276.591 133.850,280.807 139.209 C 288.612 149.132,303.481 141.753,301.409 128.985 C 299.872 119.512,290.054 115.881,282.635 122.041 M309.660 120.272 C 307.292 122.640,308.843 123.629,314.639 123.452 C 319.201 123.312,320.852 123.975,321.290 126.122 C 321.727 128.269,320.800 128.980,317.563 128.980 C 311.184 128.980,306.939 131.858,306.939 136.184 C 306.939 141.681,310.027 143.494,318.810 143.155 L 326.531 142.857 326.531 133.586 C 326.531 121.656,316.328 113.604,309.660 120.272 M179.265 124.408 C 182.641 127.783,181.444 128.980,174.694 128.980 C 171.102 128.980,168.163 128.392,168.163 127.673 C 168.163 125.468,171.937 122.449,174.694 122.449 C 176.131 122.449,178.188 123.331,179.265 124.408 M294.577 125.015 C 299.454 129.892,296.188 140.408,289.796 140.408 C 286.330 140.408,282.449 135.665,282.449 131.429 C 282.449 127.193,286.330 122.449,289.796 122.449 C 291.015 122.449,293.166 123.603,294.577 125.015 M62.684 131.020 C 65.290 135.183,62.011 139.481,55.754 140.103 C 50.735 140.603,50.612 140.454,50.612 133.878 C 50.612 126.416,58.615 124.522,62.684 131.020 M321.633 135.400 C 321.633 139.019,315.625 141.584,313.088 139.047 C 310.370 136.330,313.019 132.245,317.500 132.245 C 320.496 132.245,321.633 133.113,321.633 135.400 " stroke="none" fill="#000000" fill-rule="evenodd"></path><path id="path0" d="" stroke="none" fill="#0e1018" fill-rule="evenodd"></path><path id="path1" d="M0.000 19.620 L 0.000 39.241 31.013 39.241 L 62.025 39.241 62.025 19.620 L 62.025 0.000 31.013 0.000 L 0.000 0.000 0.000 19.620 " stroke="none" fill="#fbfbfb" fill-rule="evenodd"></path></g></svg>