<svg id="svg" xmlns="http://www.w3.org/2000/svg" xmlns:xlink="http://www.w3.org/1999/xlink" width="400" height="206.6420664206642" viewBox="0, 0, 400,206.6420664206642" version="1.1"><g id="svgg"><path id="path0" d="M196.094 13.894 C 154.818 20.198,122.347 34.585,99.870 56.530 L 91.419 64.781 85.193 62.378 C 77.513 59.414,17.712 57.650,17.712 60.388 C 17.712 61.270,19.225 61.993,21.074 61.993 C 30.918 61.993,30.996 62.356,30.996 107.749 C 30.996 153.142,30.918 153.506,21.074 153.506 C 19.225 153.506,17.712 154.170,17.712 154.982 C 17.712 159.582,79.862 155.999,89.497 150.842 C 92.116 149.441,93.462 150.200,99.761 156.634 C 175.838 234.336,370.392 205.943,385.472 114.937 C 395.874 52.163,295.653 -1.310,196.094 13.894 M276.256 19.760 C 367.711 36.572,409.365 102.578,360.267 152.884 C 302.807 211.758,158.313 211.773,101.924 152.911 L 96.838 147.601 101.476 142.804 C 118.935 124.745,118.723 90.440,101.038 72.271 L 95.957 67.051 104.436 58.757 C 124.295 39.333,157.203 24.250,190.406 19.354 C 196.494 18.456,203.137 17.436,205.166 17.087 C 213.648 15.628,264.098 17.525,276.256 19.760 M67.962 64.938 C 70.839 65.738,75.428 68.697,78.158 71.513 L 83.122 76.635 79.933 87.395 C 75.639 101.881,75.808 114.497,80.471 127.675 C 85.270 141.237,79.919 149.618,65.200 151.592 C 54.359 153.046,54.613 154.136,54.613 106.092 L 54.613 63.469 58.672 63.477 C 60.904 63.481,65.085 64.139,67.962 64.938 M150.554 78.784 L 150.554 94.465 156.361 94.465 C 178.740 94.465,181.142 65.640,158.917 63.797 L 150.554 63.103 150.554 78.784 M224.354 65.683 C 224.354 66.900,225.351 67.897,226.568 67.897 C 227.786 67.897,228.782 66.900,228.782 65.683 C 228.782 64.465,227.786 63.469,226.568 63.469 C 225.351 63.469,224.354 64.465,224.354 65.683 M253.875 65.683 C 253.875 66.900,254.871 67.897,256.089 67.897 C 257.306 67.897,258.303 66.900,258.303 65.683 C 258.303 64.465,257.306 63.469,256.089 63.469 C 254.871 63.469,253.875 64.465,253.875 65.683 M165.519 69.242 C 173.408 75.630,169.142 90.064,159.226 90.537 L 154.244 90.775 153.815 78.598 L 153.386 66.421 157.710 66.421 C 160.089 66.421,163.603 67.690,165.519 69.242 M181.878 74.622 C 177.526 77.671,177.237 88.348,181.405 92.120 C 184.750 95.147,194.979 94.834,196.019 91.674 C 196.534 90.108,195.743 89.859,192.687 90.626 C 187.363 91.962,183.516 90.595,182.585 87.036 C 181.900 84.414,182.598 84.133,189.806 84.133 C 196.802 84.133,197.786 83.769,197.786 81.181 C 197.786 73.967,188.362 70.081,181.878 74.622 M205.166 75.277 C 199.166 81.277,203.141 94.465,210.949 94.465 C 215.329 94.465,218.450 92.877,218.450 90.649 C 218.450 89.031,217.717 88.958,214.804 90.286 C 209.908 92.516,206.642 89.758,206.642 83.395 C 206.642 77.031,209.908 74.274,214.804 76.504 C 217.717 77.831,218.450 77.758,218.450 76.141 C 218.450 71.636,209.396 71.047,205.166 75.277 M224.354 83.395 C 224.354 92.251,224.797 94.465,226.568 94.465 C 228.339 94.465,228.782 92.251,228.782 83.395 C 228.782 74.539,228.339 72.325,226.568 72.325 C 224.797 72.325,224.354 74.539,224.354 83.395 M236.524 74.029 C 233.251 77.303,234.525 81.185,239.915 84.365 C 246.387 88.184,245.745 90.885,238.472 90.437 C 231.295 89.995,232.088 93.547,239.304 94.168 C 250.086 95.094,252.198 84.934,241.964 81.366 C 236.117 79.328,237.071 75.937,243.406 76.241 C 246.384 76.383,247.915 75.839,247.563 74.765 C 246.775 72.361,238.728 71.825,236.524 74.029 M253.875 83.395 C 253.875 92.251,254.317 94.465,256.089 94.465 C 257.860 94.465,258.303 92.251,258.303 83.395 C 258.303 74.539,257.860 72.325,256.089 72.325 C 254.317 72.325,253.875 74.539,253.875 83.395 M267.216 75.555 C 265.444 77.458,264.207 80.795,264.207 83.673 C 264.207 97.962,284.894 98.068,285.299 83.781 C 285.595 73.319,274.150 68.112,267.216 75.555 M290.775 83.395 C 290.775 92.251,291.218 94.465,292.989 94.465 C 294.687 94.465,295.203 92.585,295.203 86.399 C 295.203 79.760,295.742 78.044,298.249 76.702 C 303.146 74.081,305.535 77.303,305.535 86.528 C 305.535 92.599,306.056 94.465,307.749 94.465 C 310.956 94.465,310.867 77.868,307.644 74.644 C 304.891 71.891,299.458 71.612,296.974 74.096 C 295.597 75.474,295.203 75.474,295.203 74.096 C 295.203 73.122,294.207 72.325,292.989 72.325 C 291.218 72.325,290.775 74.539,290.775 83.395 M191.023 76.173 C 195.829 78.017,193.542 81.181,187.402 81.181 C 181.903 81.181,181.567 80.954,183.026 78.229 C 184.650 75.194,186.939 74.606,191.023 76.173 M278.481 76.421 C 281.862 78.572,282.250 84.872,279.231 88.601 C 274.953 93.885,268.635 90.843,268.635 83.500 C 268.635 77.044,273.716 73.390,278.481 76.421 M88.315 104.480 C 88.609 113.178,88.220 122.620,87.451 125.461 L 86.052 130.627 83.616 122.610 C 80.778 113.268,80.485 101.487,82.856 92.071 C 85.509 81.535,87.707 86.532,88.315 104.480 M267.159 141.697 C 267.159 155.146,267.539 157.934,269.373 157.934 C 271.207 157.934,271.587 155.146,271.587 141.697 C 271.587 128.249,271.207 125.461,269.373 125.461 C 267.539 125.461,267.159 128.249,267.159 141.697 M192.104 130.667 C 181.181 139.858,187.126 157.996,201.034 157.913 C 209.622 157.862,211.070 156.563,211.070 148.905 L 211.070 141.697 205.166 141.697 C 198.512 141.697,197.078 144.202,203.321 144.920 C 208.412 145.506,209.773 151.040,205.401 153.380 C 199.375 156.605,190.406 150.059,190.406 142.435 C 190.406 134.556,198.844 128.681,206.164 131.464 C 211.005 133.305,212.725 131.798,208.941 129.031 C 204.449 125.746,197.103 126.460,192.104 130.667 M219.984 139.024 C 218.211 140.926,216.974 144.263,216.974 147.142 C 216.974 161.430,237.661 161.537,238.066 147.250 C 238.363 136.787,226.918 131.581,219.984 139.024 M244.526 136.777 C 242.203 139.101,243.872 140.384,248.031 139.470 C 250.775 138.867,253.356 139.179,254.673 140.272 C 257.976 143.013,257.249 144.649,252.727 144.649 C 247.981 144.649,242.066 148.323,242.066 151.270 C 242.066 155.364,246.492 157.870,253.207 157.578 L 259.779 157.292 259.779 148.314 C 259.779 137.403,250.738 130.565,244.526 136.777 M231.248 139.890 C 234.630 142.041,235.018 148.341,231.999 152.070 C 227.720 157.353,221.402 154.312,221.402 146.968 C 221.402 140.512,226.484 136.859,231.248 139.890 M256.827 149.520 C 256.827 152.273,253.730 154.982,250.581 154.982 C 247.151 154.982,245.398 150.678,248.124 148.951 C 251.237 146.980,256.827 147.346,256.827 149.520 " stroke="none" fill="#000000" fill-rule="evenodd"></path></g></svg>