<svg id="svg" xmlns="http://www.w3.org/2000/svg" xmlns:xlink="http://www.w3.org/1999/xlink" width="400" height="1425" viewBox="0, 0, 400,1425" version="1.1"><g id="svgg"><path id="path0" d="M208.333 366.667 L 208.333 500.000 166.667 500.000 C 135.185 500.000,125.000 503.056,125.000 512.500 C 125.000 521.944,135.185 525.000,166.667 525.000 L 208.333 525.000 208.333 854.167 C 208.333 1141.204,209.933 1183.333,220.833 1183.333 C 231.733 1183.333,233.333 1141.204,233.333 854.167 L 233.333 525.000 279.167 525.000 C 314.352 525.000,325.000 522.096,325.000 512.500 C 325.000 502.904,314.352 500.000,279.167 500.000 L 233.333 500.000 233.333 366.667 C 233.333 253.704,231.424 233.333,220.833 233.333 C 210.243 233.333,208.333 253.704,208.333 366.667 " stroke="none" fill="#000000" fill-rule="evenodd"></path></g></svg>