<svg id="svg" xmlns="http://www.w3.org/2000/svg" xmlns:xlink="http://www.w3.org/1999/xlink" width="400" height="565.2892561983471" viewBox="0, 0, 400,565.2892561983471" version="1.1"><g id="svgg"><path id="path0" d="M235.537 199.984 L 195.041 231.318 195.005 218.965 C 194.985 212.170,194.035 200.965,192.895 194.064 L 190.821 181.516 172.270 182.493 L 153.719 183.471 154.610 223.140 L 155.501 262.810 92.539 310.511 C 16.930 367.793,20.567 363.961,29.669 376.743 C 39.058 389.928,33.474 392.710,99.174 342.122 L 157.025 297.577 159.314 309.946 C 160.572 316.748,161.688 330.868,161.793 341.322 L 161.983 360.331 182.095 360.331 L 202.206 360.331 199.872 313.206 L 197.538 266.082 244.030 230.559 C 298.426 188.997,296.613 191.165,287.587 178.490 C 278.384 165.565,281.890 164.118,235.537 199.984 " stroke="none" fill="#000000" fill-rule="evenodd"></path></g></svg>