<svg id="svg" xmlns="http://www.w3.org/2000/svg" xmlns:xlink="http://www.w3.org/1999/xlink" width="400" height="167.0886075949367" viewBox="0, 0, 400,167.0886075949367" version="1.1"><g id="svgg"><path id="path0" d="M121.519 75.443 C 121.519 81.613,121.069 82.925,119.494 81.350 C 112.948 74.804,102.954 82.249,102.954 93.671 C 102.954 105.229,112.800 112.421,119.705 105.907 C 121.494 104.219,122.096 104.219,122.714 105.907 C 125.121 112.471,126.582 105.617,126.582 87.764 C 126.582 70.886,126.160 67.511,124.051 67.511 C 122.159 67.511,121.519 69.517,121.519 75.443 M189.451 71.308 C 190.514 74.502,195.781 74.956,195.781 71.854 C 195.781 70.288,194.338 69.198,192.264 69.198 C 190.202 69.198,189.039 70.071,189.451 71.308 M326.961 71.308 C 326.522 72.549,330.462 75.643,336.525 78.821 L 346.835 84.224 310.127 84.306 C 278.658 84.376,273.418 84.750,273.418 86.920 C 273.418 89.088,278.574 89.466,309.283 89.554 L 345.148 89.657 336.287 94.123 C 331.414 96.579,327.426 99.571,327.426 100.771 C 327.426 104.264,330.663 103.282,347.645 94.639 L 363.645 86.496 346.410 77.847 C 327.063 68.138,327.974 68.445,326.961 71.308 M138.397 82.700 C 133.681 87.416,133.734 99.979,138.489 104.734 C 142.535 108.780,155.306 108.844,156.629 104.824 C 157.210 103.060,156.214 102.703,152.626 103.389 C 145.998 104.656,140.084 102.083,140.084 97.932 C 140.084 94.915,141.172 94.515,149.367 94.515 C 158.143 94.515,158.650 94.285,158.650 90.295 C 158.650 84.566,153.005 79.325,146.835 79.325 C 144.023 79.325,140.272 80.825,138.397 82.700 M168.354 81.105 C 163.028 84.284,164.730 90.674,172.152 95.359 C 179.935 100.272,180.051 100.533,175.527 102.954 C 173.109 104.248,171.154 104.226,168.632 102.876 C 164.296 100.556,162.489 101.977,165.367 105.444 C 169.117 109.963,179.357 108.413,182.319 102.877 C 184.728 98.376,182.614 94.700,176.037 91.952 C 168.271 88.707,168.857 83.424,176.940 83.803 C 180.435 83.966,182.217 83.349,181.813 82.115 C 180.969 79.542,172.090 78.876,168.354 81.105 M190.717 93.671 C 190.717 104.623,191.247 108.121,192.827 107.595 C 194.275 107.112,194.937 102.747,194.937 93.671 C 194.937 84.594,194.275 80.230,192.827 79.747 C 191.247 79.220,190.717 82.719,190.717 93.671 M204.219 93.671 C 204.219 105.298,204.699 108.017,206.751 108.017 C 208.710 108.017,209.283 105.804,209.283 98.228 C 209.283 88.078,211.173 84.388,216.371 84.388 C 218.042 84.388,219.409 83.249,219.409 81.857 C 219.409 78.919,215.545 78.565,210.860 81.072 C 208.609 82.276,207.595 82.276,207.595 81.072 C 207.595 80.111,206.835 79.325,205.907 79.325 C 204.914 79.325,204.219 85.232,204.219 93.671 M226.928 83.468 C 215.391 95.004,228.219 112.950,243.744 106.992 C 248.667 105.103,246.613 102.492,241.074 103.600 C 235.164 104.781,227.848 101.181,227.848 97.092 C 227.848 95.343,230.509 94.544,237.553 94.177 C 246.732 93.698,247.232 93.447,246.797 89.541 C 245.662 79.378,234.446 75.949,226.928 83.468 M255.958 81.455 C 250.911 85.148,252.967 91.481,260.338 94.943 C 269.543 99.268,266.440 106.397,256.926 102.779 C 253.579 101.507,253.008 101.745,253.476 104.214 C 254.326 108.700,265.129 109.138,269.015 104.844 C 273.215 100.203,271.078 94.775,263.862 91.760 C 256.126 88.528,256.666 83.426,264.704 83.803 C 268.199 83.966,269.981 83.349,269.576 82.115 C 268.639 79.256,259.564 78.816,255.958 81.455 M118.565 85.050 C 123.380 88.705,122.588 100.237,117.358 102.620 C 111.857 105.126,108.017 101.447,108.017 93.671 C 108.017 84.943,113.029 80.847,118.565 85.050 M151.561 84.726 C 155.567 88.731,153.792 91.139,146.835 91.139 C 139.527 91.139,137.561 87.713,143.038 84.523 C 146.967 82.235,149.122 82.286,151.561 84.726 M240.386 85.353 C 244.719 89.686,243.477 91.139,235.443 91.139 C 231.266 91.139,227.848 90.434,227.848 89.572 C 227.848 87.214,232.837 82.700,235.443 82.700 C 236.703 82.700,238.927 83.894,240.386 85.353 M23.629 86.920 C 23.629 89.095,28.973 89.451,61.603 89.451 C 94.233 89.451,99.578 89.095,99.578 86.920 C 99.578 84.744,94.233 84.388,61.603 84.388 C 28.973 84.388,23.629 84.744,23.629 86.920 " stroke="none" fill="#000000" fill-rule="evenodd"></path></g></svg>