<svg id="svg" xmlns="http://www.w3.org/2000/svg" xmlns:xlink="http://www.w3.org/1999/xlink" width="400" height="258.43621399176953" viewBox="0, 0, 400,258.43621399176953" version="1.1"><g id="svgg"><path id="path0" d="M1.987 5.119 C 1.623 5.521,1.217 57.511,1.325 89.851 C 1.327 90.420,1.380 128.613,1.444 174.725 L 1.558 258.565 198.965 258.565 L 396.372 258.565 396.490 175.242 C 396.554 129.415,396.609 91.396,396.612 90.756 C 396.723 58.964,396.306 5.432,395.944 5.132 C 395.192 4.507,2.552 4.494,1.987 5.119 M390.692 10.160 L 391.338 10.487 391.404 48.653 C 391.468 85.920,391.457 86.833,390.974 87.430 L 390.479 88.041 198.866 88.107 L 7.254 88.172 6.859 87.408 C 6.230 86.192,6.262 10.994,6.892 10.298 C 7.446 9.687,389.484 9.549,390.692 10.160 M133.183 34.975 C 131.935 35.613,131.909 35.981,131.888 53.364 C 131.866 71.120,131.881 71.323,133.277 72.174 C 134.206 72.740,150.683 72.921,152.230 72.382 C 153.235 72.032,153.541 70.575,152.823 69.554 C 152.195 68.661,151.312 68.552,144.535 68.535 L 138.715 68.520 138.006 67.863 L 137.298 67.206 137.298 61.149 C 137.298 53.805,136.562 54.557,143.753 54.557 C 150.139 54.557,150.828 54.402,151.110 52.899 C 151.501 50.817,150.331 50.420,143.795 50.420 L 138.637 50.420 137.967 49.625 C 137.305 48.837,137.298 48.785,137.298 44.433 L 137.298 40.038 138.054 39.282 L 138.810 38.526 144.970 38.526 C 152.309 38.525,152.886 38.383,153.019 36.547 C 153.159 34.630,153.249 34.647,142.864 34.652 C 136.192 34.654,133.643 34.739,133.183 34.975 M210.808 35.036 C 208.531 36.631,209.959 39.560,213.012 39.560 C 215.198 39.560,215.680 39.117,215.680 37.104 C 215.680 34.815,212.843 33.611,210.808 35.036 M193.019 38.059 C 192.193 38.528,192.122 38.782,192.118 41.299 C 192.113 44.020,191.745 44.473,189.541 44.473 C 187.801 44.473,186.951 45.867,187.757 47.399 C 188.151 48.148,188.479 48.343,189.351 48.348 C 189.752 48.350,190.331 48.486,190.639 48.651 C 192.014 49.387,191.973 49.121,192.144 58.546 C 192.338 69.288,192.394 69.498,195.691 71.738 C 197.882 73.226,203.005 72.948,204.019 71.286 C 205.040 69.611,204.361 67.474,202.918 67.824 C 202.593 67.902,201.817 68.095,201.194 68.252 C 200.255 68.489,199.985 68.470,199.622 68.141 C 199.381 67.923,199.068 67.744,198.926 67.744 C 198.784 67.744,198.386 67.444,198.041 67.077 L 197.414 66.410 197.340 58.351 C 197.272 51.027,197.307 50.208,197.727 49.386 L 198.190 48.481 203.103 48.404 C 208.503 48.319,209.711 48.516,210.187 49.560 C 210.380 49.984,210.472 53.675,210.472 61.028 L 210.472 71.869 211.126 72.298 C 211.837 72.764,213.857 72.680,214.860 72.144 C 215.377 71.867,215.385 71.661,215.385 58.563 L 215.385 45.262 214.622 44.868 C 213.987 44.539,212.539 44.473,206.000 44.473 C 196.628 44.473,197.287 44.719,197.281 41.221 C 197.279 39.952,197.192 38.788,197.087 38.633 C 196.577 37.880,193.981 37.514,193.019 38.059 M225.772 38.349 C 225.276 38.877,225.210 39.237,225.210 41.426 L 225.210 43.905 224.396 44.189 C 223.948 44.345,223.159 44.473,222.643 44.473 C 219.655 44.473,219.706 47.719,222.704 48.341 C 225.295 48.879,225.210 48.583,225.210 57.127 C 225.210 61.356,225.339 65.436,225.512 66.674 L 225.814 68.836 227.454 70.476 C 231.082 74.104,238.642 73.253,237.711 69.321 C 237.370 67.881,236.253 67.343,235.158 68.093 C 233.822 69.007,230.902 67.537,230.593 65.794 C 230.286 64.068,230.349 50.591,230.667 49.678 C 231.065 48.535,231.562 48.352,234.255 48.352 C 237.078 48.352,238.081 47.744,237.776 46.218 C 237.464 44.656,237.068 44.473,234.001 44.473 C 230.453 44.473,230.383 44.411,230.377 41.221 C 230.373 38.578,230.281 38.351,229.072 38.004 C 227.552 37.568,226.392 37.690,225.772 38.349 M161.021 44.880 L 160.310 45.265 160.310 57.888 C 160.310 72.824,160.280 72.657,163.025 72.657 C 165.659 72.657,165.740 72.343,165.741 62.082 C 165.743 52.535,165.671 52.894,167.988 50.833 C 171.457 47.748,175.711 48.204,177.401 51.842 C 177.841 52.789,177.882 53.665,177.887 62.209 C 177.894 72.968,177.742 72.344,180.395 72.575 C 181.685 72.687,181.984 72.627,182.482 72.154 L 183.064 71.602 183.056 62.627 C 183.043 49.478,182.734 48.303,178.590 45.657 L 176.736 44.473 174.017 44.474 C 171.923 44.474,171.107 44.578,170.459 44.926 C 165.063 47.830,164.964 47.852,164.964 46.142 C 164.964 44.593,162.817 43.906,161.021 44.880 M241.022 44.888 C 240.359 45.352,240.424 46.878,241.154 47.992 C 241.354 48.298,241.737 49.313,242.005 50.248 C 242.272 51.183,242.668 52.273,242.884 52.671 C 243.100 53.068,243.507 54.092,243.789 54.945 C 244.848 58.157,245.503 59.904,246.205 61.386 C 246.604 62.226,246.930 63.125,246.930 63.383 C 246.930 63.641,247.262 64.583,247.668 65.475 C 248.074 66.367,248.491 67.563,248.595 68.132 C 248.698 68.701,249.000 69.519,249.265 69.950 C 250.427 71.842,250.422 74.076,249.253 75.760 C 249.006 76.115,248.719 76.813,248.614 77.311 C 248.510 77.809,248.214 78.623,247.956 79.121 C 246.666 81.614,246.841 82.118,249.092 82.382 C 251.707 82.689,252.579 81.968,253.650 78.612 C 253.944 77.692,254.335 76.703,254.519 76.414 C 254.704 76.125,255.007 75.307,255.193 74.596 C 255.379 73.885,255.754 72.909,256.026 72.426 C 256.299 71.944,256.680 70.941,256.874 70.197 C 257.068 69.454,257.511 68.219,257.858 67.454 C 258.206 66.689,258.574 65.598,258.676 65.029 C 258.778 64.460,259.069 63.639,259.322 63.203 C 259.576 62.768,259.930 61.779,260.111 61.005 C 260.291 60.232,260.656 59.192,260.921 58.694 C 261.187 58.197,261.569 57.136,261.771 56.338 C 261.973 55.540,262.379 54.416,262.673 53.839 C 262.966 53.263,263.331 52.229,263.483 51.541 C 263.635 50.854,264.043 49.743,264.391 49.074 C 265.308 47.307,265.524 45.135,264.820 44.758 C 263.112 43.844,260.488 44.609,260.110 46.131 C 259.965 46.713,259.626 47.666,259.357 48.250 C 259.087 48.834,258.667 50.114,258.424 51.094 C 258.181 52.074,257.779 53.284,257.533 53.782 C 257.286 54.279,256.936 55.326,256.755 56.109 C 256.575 56.891,256.248 57.880,256.030 58.306 C 255.811 58.733,255.441 59.810,255.208 60.700 C 254.787 62.305,253.400 64.641,252.869 64.641 C 252.559 64.641,251.842 63.086,251.842 62.412 C 251.842 62.172,251.555 61.370,251.205 60.629 C 250.854 59.887,250.450 58.757,250.306 58.117 C 250.163 57.477,249.766 56.385,249.425 55.691 C 249.083 54.996,248.727 53.911,248.632 53.280 C 248.537 52.649,248.236 51.718,247.962 51.212 C 247.689 50.705,247.272 49.593,247.037 48.739 C 245.956 44.823,243.427 43.204,241.022 44.888 M390.810 94.160 L 391.470 94.460 391.404 175.111 C 391.339 254.609,391.331 255.768,390.836 256.129 C 390.404 256.446,363.793 256.496,198.683 256.496 L 7.032 256.496 6.748 255.682 C 6.309 254.423,6.348 94.745,6.787 94.246 C 7.223 93.751,389.725 93.665,390.810 94.160 M48.465 123.880 C 47.389 124.418,47.317 125.572,47.317 142.437 C 47.317 163.196,46.984 161.603,51.329 161.603 C 55.227 161.603,55.333 161.410,55.333 154.291 C 55.333 147.986,54.952 148.486,59.858 148.355 C 62.923 148.273,63.322 148.205,64.383 147.590 C 65.023 147.219,65.918 146.838,66.373 146.743 C 67.645 146.479,70.207 144.423,71.075 142.973 C 72.275 140.966,72.481 140.482,72.820 138.862 C 73.409 136.046,73.130 131.865,72.198 129.531 C 71.734 128.371,68.640 125.457,67.561 125.163 C 67.022 125.017,66.115 124.633,65.546 124.310 C 64.383 123.650,49.668 123.280,48.465 123.880 M79.289 123.980 C 79.077 124.192,78.829 125.093,78.737 125.983 C 78.497 128.304,78.691 160.095,78.948 160.615 C 79.275 161.279,80.540 161.603,82.796 161.603 C 86.505 161.603,86.456 161.712,86.619 153.045 C 86.754 145.878,86.848 145.314,87.902 145.314 C 88.146 145.314,88.491 145.633,88.667 146.025 C 88.844 146.416,89.386 147.337,89.872 148.072 C 90.359 148.807,90.761 149.506,90.767 149.624 C 90.773 149.742,91.122 150.241,91.543 150.734 C 91.963 151.226,92.308 151.763,92.308 151.926 C 92.308 152.090,92.628 152.636,93.019 153.139 C 93.410 153.643,93.960 154.445,94.241 154.920 C 96.817 159.285,97.881 160.755,98.810 161.235 C 100.294 162.002,105.697 161.604,105.779 160.721 C 105.936 159.037,105.553 158.037,103.736 155.391 C 103.125 154.500,102.444 153.421,102.222 152.993 C 102.001 152.564,101.589 151.970,101.308 151.673 C 101.027 151.375,100.615 150.782,100.392 150.356 C 100.170 149.929,99.714 149.220,99.380 148.780 C 99.045 148.340,98.772 147.859,98.772 147.712 C 98.772 147.566,98.596 147.300,98.381 147.121 C 97.955 146.768,96.163 144.088,95.064 142.162 L 94.373 140.949 95.195 139.705 C 95.648 139.021,96.201 138.273,96.425 138.044 C 96.649 137.814,97.513 136.679,98.345 135.523 C 99.176 134.366,99.954 133.420,100.072 133.420 C 100.191 133.420,100.353 133.216,100.432 132.967 C 100.511 132.718,100.840 132.224,101.162 131.868 C 101.779 131.187,101.849 131.092,103.665 128.475 C 104.294 127.568,104.888 126.768,104.984 126.697 C 105.080 126.626,105.222 126.080,105.300 125.485 C 105.516 123.828,105.101 123.594,101.957 123.594 C 98.818 123.594,98.060 123.832,97.220 125.081 C 96.865 125.610,96.436 126.219,96.268 126.435 C 95.071 127.964,94.093 129.356,93.753 130.014 C 93.533 130.438,93.202 130.941,93.016 131.133 C 92.829 131.324,92.448 131.844,92.169 132.289 C 91.890 132.733,91.107 133.835,90.430 134.736 C 89.753 135.638,89.055 136.701,88.879 137.099 C 88.479 138.001,87.734 138.265,87.172 137.704 C 86.810 137.342,86.739 136.453,86.680 131.536 C 86.581 123.286,86.743 123.594,82.501 123.594 C 80.341 123.594,79.584 123.685,79.289 123.980 M62.793 131.394 C 64.183 132.524,64.204 132.560,64.634 134.523 C 65.051 136.426,64.361 139.163,63.267 139.941 C 62.818 140.261,62.256 140.718,62.017 140.956 C 61.200 141.774,56.595 141.902,55.669 141.133 C 55.415 140.923,55.333 139.656,55.333 135.937 C 55.333 130.002,55.123 130.337,58.853 130.325 L 61.469 130.317 62.793 131.394 M14.547 143.417 C 12.862 143.771,12.515 148.944,14.126 149.678 C 15.355 150.238,26.716 150.063,27.444 149.473 C 28.262 148.810,28.373 144.616,27.593 143.836 C 27.141 143.383,16.353 143.037,14.547 143.417 M153.084 192.985 C 152.068 193.571,152.073 193.468,152.054 212.849 L 152.036 231.386 152.611 231.789 C 154.099 232.831,156.690 232.080,156.690 230.607 C 156.690 229.584,157.171 229.289,157.959 229.830 C 158.328 230.084,159.037 230.450,159.535 230.644 C 160.032 230.837,160.800 231.265,161.240 231.594 C 162.438 232.489,168.202 232.500,169.449 231.610 C 169.897 231.290,170.691 230.795,171.214 230.511 C 172.547 229.786,174.223 227.783,174.840 226.179 C 175.126 225.433,175.547 224.357,175.773 223.788 C 176.304 222.453,176.520 215.432,176.095 213.274 C 175.426 209.872,173.498 206.956,170.909 205.430 C 170.426 205.145,169.793 204.764,169.502 204.583 C 169.128 204.349,168.018 204.274,165.717 204.324 C 162.192 204.402,162.553 204.282,159.469 206.384 C 158.838 206.813,158.063 206.760,157.682 206.261 C 157.659 206.231,157.572 203.388,157.488 199.944 C 157.357 194.527,157.278 193.623,156.897 193.244 C 156.310 192.657,153.931 192.496,153.084 192.985 M139.774 194.062 C 138.165 194.615,138.008 194.870,138.126 196.727 C 138.264 198.887,138.767 199.354,140.964 199.354 C 142.899 199.354,143.327 199.121,143.749 197.842 C 144.650 195.113,142.544 193.110,139.774 194.062 M57.718 194.764 C 57.203 195.394,55.850 198.261,55.850 198.722 C 55.850 198.980,55.622 199.663,55.344 200.242 C 54.864 201.237,53.862 204.052,52.761 207.498 C 52.489 208.352,51.970 209.748,51.608 210.601 C 51.246 211.454,50.946 212.385,50.942 212.670 C 50.939 212.954,50.711 213.555,50.437 214.004 C 50.163 214.454,49.685 215.675,49.375 216.719 C 49.064 217.763,48.591 219.048,48.323 219.576 C 48.054 220.104,47.832 220.744,47.828 220.998 C 47.825 221.253,47.525 222.159,47.161 223.012 C 46.797 223.866,46.288 225.320,46.029 226.244 C 45.770 227.169,45.314 228.386,45.016 228.949 C 43.792 231.260,44.346 232.191,46.941 232.191 C 48.929 232.191,49.392 231.937,49.773 230.640 C 49.877 230.284,50.172 229.586,50.429 229.089 C 50.685 228.591,51.028 227.602,51.191 226.891 C 52.225 222.372,52.322 222.325,60.612 222.418 C 68.547 222.508,68.123 222.364,69.038 225.285 C 69.358 226.310,69.823 227.557,70.070 228.054 C 70.316 228.552,70.600 229.409,70.700 229.958 C 71.071 232.002,74.346 233.101,76.199 231.803 L 76.754 231.414 76.231 229.540 C 75.944 228.510,75.476 227.143,75.191 226.503 C 74.906 225.863,74.467 224.635,74.215 223.774 C 73.963 222.912,73.580 221.865,73.365 221.446 C 73.150 221.028,72.792 219.970,72.569 219.095 C 72.346 218.221,71.926 217.115,71.635 216.639 C 71.345 216.162,71.104 215.540,71.100 215.255 C 71.096 214.971,70.794 214.040,70.429 213.187 C 70.064 212.334,69.562 210.937,69.313 210.084 C 69.065 209.231,68.616 208.007,68.317 207.365 C 68.018 206.723,67.652 205.655,67.504 204.993 C 67.355 204.331,66.941 203.239,66.584 202.567 C 66.226 201.895,65.934 201.112,65.934 200.827 C 65.934 200.542,65.632 199.670,65.263 198.890 C 64.894 198.110,64.425 196.908,64.220 196.219 C 64.015 195.530,63.627 194.849,63.357 194.704 C 62.631 194.316,58.044 194.365,57.718 194.764 M99.620 196.256 C 98.880 196.554,98.782 197.034,98.706 200.774 L 98.643 203.874 97.867 204.040 C 96.448 204.342,88.096 204.256,87.136 203.929 L 86.231 203.620 86.159 201.034 C 86.076 198.074,85.752 197.560,83.961 197.549 C 81.485 197.535,80.945 198.294,80.930 201.810 C 80.921 203.815,80.775 204.003,79.047 204.238 C 75.912 204.663,75.880 208.145,79.011 208.145 C 80.770 208.145,80.780 208.196,80.960 217.582 C 81.115 225.664,81.134 225.897,81.785 227.597 C 82.690 229.960,82.691 229.963,84.279 231.147 L 85.678 232.191 88.844 232.191 C 92.389 232.191,93.367 231.776,93.731 230.116 C 94.201 227.979,93.228 227.177,91.037 227.893 C 89.587 228.367,88.509 228.089,87.484 226.978 C 86.201 225.586,86.102 224.880,86.102 217.137 L 86.102 209.903 86.981 209.024 L 87.860 208.145 92.789 208.145 C 99.417 208.145,98.772 207.197,98.772 216.937 C 98.772 227.233,99.152 228.940,101.935 231.156 L 103.235 232.191 106.532 232.191 L 109.830 232.191 110.765 231.156 C 112.741 228.969,111.171 226.602,108.595 227.887 C 107.132 228.617,104.685 227.265,104.199 225.458 C 103.787 223.930,103.965 209.053,104.400 208.619 C 104.604 208.415,105.713 208.252,107.356 208.186 C 110.813 208.048,111.571 207.665,111.571 206.062 C 111.571 204.592,110.992 204.280,108.209 204.255 C 107.072 204.245,105.676 204.154,105.107 204.054 L 104.072 203.871 103.931 200.345 C 103.837 197.979,103.677 196.683,103.447 196.406 C 103.065 195.945,100.630 195.850,99.620 196.256 M215.951 198.071 C 215.446 198.540,215.385 198.862,215.385 201.013 C 215.385 203.807,215.323 203.900,213.310 204.150 C 210.290 204.525,209.477 207.461,212.235 208.028 C 215.503 208.700,215.382 208.344,215.398 217.271 C 215.416 227.325,215.747 229.252,217.662 230.468 C 217.849 230.586,218.388 231.022,218.860 231.437 C 219.715 232.188,219.734 232.191,223.046 232.183 C 227.077 232.173,227.796 231.725,227.796 229.224 C 227.796 228.368,226.728 227.109,226.251 227.404 C 224.343 228.583,221.289 227.790,220.787 225.983 C 220.302 224.241,220.542 209.852,221.070 208.985 L 221.583 208.145 224.127 208.145 C 227.088 208.145,227.796 207.736,227.796 206.027 C 227.796 204.645,227.327 204.416,224.156 204.249 C 220.562 204.061,220.557 204.056,220.552 201.067 C 220.547 198.368,220.458 198.145,219.247 197.797 C 217.813 197.386,216.575 197.489,215.951 198.071 M61.269 203.049 C 61.830 204.229,62.417 205.769,62.574 206.471 C 62.732 207.174,63.087 208.261,63.364 208.887 C 63.641 209.514,64.033 210.621,64.234 211.348 C 64.436 212.075,64.898 213.368,65.261 214.221 C 66.023 216.009,66.102 217.098,65.532 217.913 C 64.971 218.712,55.193 218.824,54.877 218.035 C 54.548 217.211,54.728 215.529,55.258 214.480 C 55.545 213.911,55.926 212.805,56.105 212.023 C 56.284 211.241,56.643 210.194,56.903 209.696 C 57.162 209.198,57.606 207.977,57.889 206.981 C 58.598 204.487,59.928 200.905,60.146 200.905 C 60.204 200.905,60.709 201.870,61.269 203.049 M118.440 204.719 L 117.882 205.171 117.958 218.314 C 118.046 233.423,117.810 232.191,120.621 232.191 C 123.366 232.191,123.196 232.790,123.274 222.839 C 123.348 213.303,123.344 213.349,124.235 212.345 C 124.582 211.955,125.175 211.253,125.553 210.786 C 126.676 209.399,127.516 209.108,130.277 209.146 C 133.243 209.187,133.420 209.073,133.420 207.108 C 133.420 204.729,133.023 204.416,129.870 204.308 C 127.503 204.227,127.250 204.267,126.550 204.825 C 125.140 205.950,124.134 206.593,123.786 206.593 C 123.595 206.593,123.309 206.723,123.151 206.881 C 122.697 207.335,122.301 206.901,122.301 205.950 C 122.301 204.332,119.871 203.557,118.440 204.719 M139.193 204.525 C 138.356 204.863,138.291 206.055,138.381 219.418 C 138.446 229.050,138.530 231.419,138.816 231.764 C 139.287 232.331,142.581 232.375,143.134 231.822 C 143.774 231.182,143.676 205.278,143.031 204.694 C 142.512 204.225,140.191 204.123,139.193 204.525 M183.341 204.719 C 182.787 205.170,182.785 205.209,182.860 215.126 L 182.935 225.081 183.731 226.829 C 184.671 228.893,185.613 230.144,186.608 230.649 C 187.005 230.850,187.659 231.280,188.061 231.603 C 189.084 232.426,195.012 232.501,196.026 231.703 C 196.368 231.434,197.109 231.021,197.674 230.786 C 198.238 230.550,198.969 230.104,199.297 229.796 C 200.067 229.073,200.741 229.437,200.860 230.639 C 200.983 231.892,201.428 232.191,203.164 232.191 C 205.909 232.191,205.688 233.411,205.688 218.263 C 205.688 203.278,205.891 204.458,203.292 204.319 C 200.328 204.162,200.530 203.457,200.437 214.244 C 200.349 224.434,200.471 223.649,198.738 225.171 C 198.470 225.406,197.863 225.976,197.389 226.438 C 196.915 226.900,196.358 227.279,196.152 227.279 C 195.945 227.279,195.229 227.514,194.559 227.801 C 193.347 228.320,192.075 228.199,191.222 227.484 C 191.087 227.371,190.809 227.279,190.606 227.279 C 190.174 227.279,189.353 226.398,189.131 225.697 C 189.046 225.429,188.881 225.210,188.765 225.210 C 188.255 225.210,188.131 223.487,187.993 214.523 C 187.826 203.592,187.998 204.266,185.370 204.266 C 184.351 204.266,183.726 204.406,183.341 204.719 M240.465 204.634 C 240.110 204.846,239.237 205.297,238.526 205.636 C 237.186 206.276,234.607 208.652,234.084 209.727 C 232.428 213.130,232.248 213.730,232.076 216.423 C 231.588 224.067,233.684 228.638,238.870 231.240 L 240.765 232.191 245.621 232.191 L 250.477 232.191 252.679 231.174 C 254.747 230.219,254.892 230.099,255.058 229.213 C 255.261 228.134,254.707 227.019,253.969 227.022 C 252.512 227.028,249.098 227.579,248.421 227.916 C 247.525 228.363,244.590 228.456,243.888 228.059 C 243.641 227.920,242.791 227.627,241.998 227.408 C 239.610 226.748,237.689 224.170,237.426 221.271 C 237.236 219.181,236.842 219.272,246.154 219.266 C 256.177 219.260,256.238 219.239,256.238 215.793 C 256.238 214.613,255.236 210.180,254.828 209.553 C 254.010 208.297,251.784 206.116,251.006 205.809 C 250.542 205.626,249.891 205.232,249.559 204.936 C 248.760 204.219,241.565 203.980,240.465 204.634 M247.896 209.026 C 249.812 210.109,250.017 210.397,250.668 212.918 C 251.200 214.976,251.191 215.032,250.252 215.359 C 249.230 215.716,238.950 215.742,238.026 215.391 C 236.544 214.828,238.317 210.463,240.452 209.421 C 241.099 209.104,241.833 208.670,242.082 208.454 C 243.287 207.415,245.416 207.624,247.896 209.026 M166.313 208.774 C 166.780 208.978,167.553 209.298,168.031 209.485 C 170.951 210.629,172.179 219.368,170.085 224.102 C 169.562 225.283,167.943 227.279,167.508 227.279 C 167.375 227.279,166.785 227.511,166.196 227.796 C 165.117 228.317,163.672 228.492,163.672 228.102 C 163.672 227.985,163.057 227.696,162.306 227.460 C 160.781 226.979,158.561 225.112,157.877 223.736 C 157.162 222.296,157.298 213.744,158.056 212.516 C 158.860 211.214,160.918 209.504,162.062 209.187 C 162.592 209.041,163.200 208.806,163.413 208.666 C 163.976 208.296,165.335 208.347,166.313 208.774 M14.555 215.531 C 12.929 216.243,12.881 218.380,14.480 218.925 C 15.600 219.307,25.341 219.375,26.616 219.009 C 28.446 218.484,28.499 216.256,26.699 215.504 C 25.434 214.976,15.775 214.997,14.555 215.531 " stroke="none" fill="#111115" fill-rule="evenodd"></path><path id="path1" d="M0.000 129.282 L 0.000 258.565 0.779 258.565 L 1.558 258.565 1.444 174.725 C 1.380 128.613,1.327 90.420,1.325 89.851 C 1.209 54.838,1.620 5.448,2.032 5.075 C 2.679 4.489,395.238 4.545,395.944 5.132 C 396.306 5.432,396.723 58.964,396.612 90.756 C 396.609 91.396,396.554 129.415,396.490 175.242 L 396.372 258.565 398.186 258.565 L 400.000 258.565 400.000 129.282 L 400.000 0.000 200.000 0.000 L 0.000 0.000 0.000 129.282 M6.892 10.298 C 6.262 10.994,6.230 86.192,6.859 87.408 L 7.254 88.172 198.866 88.107 L 390.479 88.041 390.974 87.430 C 391.457 86.833,391.468 85.920,391.404 48.653 L 391.338 10.487 390.692 10.160 C 389.484 9.549,7.446 9.687,6.892 10.298 M152.509 35.060 C 152.989 35.396,153.083 35.670,153.019 36.547 C 152.886 38.383,152.309 38.525,144.970 38.526 L 138.810 38.526 138.054 39.282 L 137.298 40.038 137.298 44.433 C 137.298 48.785,137.305 48.837,137.967 49.625 L 138.637 50.420 143.795 50.420 C 150.331 50.420,151.501 50.817,151.110 52.899 C 150.828 54.402,150.139 54.557,143.753 54.557 C 136.562 54.557,137.298 53.805,137.298 61.149 L 137.298 67.206 138.006 67.863 L 138.715 68.520 144.535 68.535 C 151.312 68.552,152.195 68.661,152.823 69.554 C 153.541 70.575,153.235 72.032,152.230 72.382 C 150.683 72.921,134.206 72.740,133.277 72.174 C 131.881 71.323,131.866 71.120,131.888 53.364 C 131.909 35.981,131.935 35.613,133.183 34.975 C 134.228 34.440,151.735 34.518,152.509 35.060 M215.116 35.105 C 215.582 35.482,215.680 35.831,215.680 37.104 C 215.680 40.061,211.200 40.849,210.049 38.095 C 208.979 35.534,212.835 33.258,215.116 35.105 M196.018 38.051 C 197.223 38.464,197.277 38.598,197.281 41.221 C 197.287 44.719,196.628 44.473,206.000 44.473 C 212.539 44.473,213.987 44.539,214.622 44.868 L 215.385 45.262 215.385 58.563 C 215.385 71.661,215.377 71.867,214.860 72.144 C 213.857 72.680,211.837 72.764,211.126 72.298 L 210.472 71.869 210.472 61.028 C 210.472 53.675,210.380 49.984,210.187 49.560 C 209.711 48.516,208.503 48.319,203.103 48.404 L 198.190 48.481 197.727 49.386 C 197.307 50.208,197.272 51.027,197.340 58.351 L 197.414 66.410 198.041 67.077 C 198.386 67.444,198.784 67.744,198.926 67.744 C 199.068 67.744,199.381 67.923,199.622 68.141 C 199.985 68.470,200.255 68.489,201.194 68.252 C 201.817 68.095,202.593 67.902,202.918 67.824 C 204.361 67.474,205.040 69.611,204.019 71.286 C 203.005 72.948,197.882 73.226,195.691 71.738 C 192.394 69.498,192.338 69.288,192.144 58.546 C 191.973 49.121,192.014 49.387,190.639 48.651 C 190.331 48.486,189.752 48.350,189.351 48.348 C 188.479 48.343,188.151 48.148,187.757 47.399 C 186.951 45.867,187.801 44.473,189.541 44.473 C 191.745 44.473,192.113 44.020,192.118 41.299 C 192.120 39.987,192.207 38.788,192.312 38.633 C 192.894 37.773,194.478 37.524,196.018 38.051 M229.072 38.004 C 230.281 38.351,230.373 38.578,230.377 41.221 C 230.383 44.411,230.453 44.473,234.001 44.473 C 237.068 44.473,237.464 44.656,237.776 46.218 C 238.081 47.744,237.078 48.352,234.255 48.352 C 231.562 48.352,231.065 48.535,230.667 49.678 C 230.349 50.591,230.286 64.068,230.593 65.794 C 230.902 67.537,233.822 69.007,235.158 68.093 C 236.253 67.343,237.370 67.881,237.711 69.321 C 238.642 73.253,231.082 74.104,227.454 70.476 L 225.814 68.836 225.512 66.674 C 225.339 65.436,225.210 61.356,225.210 57.127 C 225.210 48.583,225.295 48.879,222.704 48.341 C 219.706 47.719,219.655 44.473,222.643 44.473 C 223.159 44.473,223.948 44.345,224.396 44.189 L 225.210 43.905 225.210 41.426 C 225.210 37.927,226.089 37.149,229.072 38.004 M164.492 44.901 C 164.759 45.143,164.964 45.683,164.964 46.142 C 164.964 47.852,165.063 47.830,170.459 44.926 C 171.107 44.578,171.923 44.474,174.017 44.474 L 176.736 44.473 178.590 45.657 C 182.734 48.303,183.043 49.478,183.056 62.627 L 183.064 71.602 182.482 72.154 C 181.984 72.627,181.685 72.687,180.395 72.575 C 177.742 72.344,177.894 72.968,177.887 62.209 C 177.882 53.665,177.841 52.789,177.401 51.842 C 175.711 48.204,171.457 47.748,167.988 50.833 C 165.671 52.894,165.743 52.535,165.741 62.082 C 165.740 72.343,165.659 72.657,163.025 72.657 C 160.280 72.657,160.310 72.824,160.310 57.888 L 160.310 45.265 161.021 44.880 C 161.995 44.351,163.897 44.363,164.492 44.901 M245.272 45.055 C 246.047 45.955,246.570 47.047,247.037 48.739 C 247.272 49.593,247.689 50.705,247.962 51.212 C 248.236 51.718,248.537 52.649,248.632 53.280 C 248.727 53.911,249.083 54.996,249.425 55.691 C 249.766 56.385,250.163 57.477,250.306 58.117 C 250.450 58.757,250.854 59.887,251.205 60.629 C 251.555 61.370,251.842 62.172,251.842 62.412 C 251.842 63.086,252.559 64.641,252.869 64.641 C 253.400 64.641,254.787 62.305,255.208 60.700 C 255.441 59.810,255.811 58.733,256.030 58.306 C 256.248 57.880,256.575 56.891,256.755 56.109 C 256.936 55.326,257.286 54.279,257.533 53.782 C 257.779 53.284,258.181 52.074,258.424 51.094 C 258.667 50.114,259.087 48.834,259.357 48.250 C 259.626 47.666,259.965 46.713,260.110 46.131 C 260.488 44.609,263.112 43.844,264.820 44.758 C 265.524 45.135,265.308 47.307,264.391 49.074 C 264.043 49.743,263.635 50.854,263.483 51.541 C 263.331 52.229,262.966 53.263,262.673 53.839 C 262.379 54.416,261.973 55.540,261.771 56.338 C 261.569 57.136,261.187 58.197,260.921 58.694 C 260.656 59.192,260.291 60.232,260.111 61.005 C 259.930 61.779,259.576 62.768,259.322 63.203 C 259.069 63.639,258.778 64.460,258.676 65.029 C 258.574 65.598,258.206 66.689,257.858 67.454 C 257.511 68.219,257.068 69.454,256.874 70.197 C 256.680 70.941,256.299 71.944,256.026 72.426 C 255.754 72.909,255.379 73.885,255.193 74.596 C 255.007 75.307,254.704 76.125,254.519 76.414 C 254.335 76.703,253.944 77.692,253.650 78.612 C 252.579 81.968,251.707 82.689,249.092 82.382 C 246.841 82.118,246.666 81.614,247.956 79.121 C 248.214 78.623,248.510 77.809,248.614 77.311 C 248.719 76.813,249.006 76.115,249.253 75.760 C 250.422 74.076,250.427 71.842,249.265 69.950 C 249.000 69.519,248.698 68.701,248.595 68.132 C 248.491 67.563,248.074 66.367,247.668 65.475 C 247.262 64.583,246.930 63.641,246.930 63.383 C 246.930 63.125,246.604 62.226,246.205 61.386 C 245.503 59.904,244.848 58.157,243.789 54.945 C 243.507 54.092,243.100 53.068,242.884 52.671 C 242.668 52.273,242.272 51.183,242.005 50.248 C 241.737 49.313,241.354 48.298,241.154 47.992 C 240.424 46.878,240.359 45.352,241.022 44.888 C 241.982 44.216,244.639 44.320,245.272 45.055 M6.787 94.246 C 6.348 94.745,6.309 254.423,6.748 255.682 L 7.032 256.496 198.683 256.496 C 363.793 256.496,390.404 256.446,390.836 256.129 C 391.331 255.768,391.339 254.609,391.404 175.111 L 391.470 94.460 390.810 94.160 C 389.725 93.665,7.223 93.751,6.787 94.246 M65.546 124.310 C 66.115 124.633,67.022 125.017,67.561 125.163 C 68.640 125.457,71.734 128.371,72.198 129.531 C 73.130 131.865,73.409 136.046,72.820 138.862 C 72.481 140.482,72.275 140.966,71.075 142.973 C 70.207 144.423,67.645 146.479,66.373 146.743 C 65.918 146.838,65.023 147.219,64.383 147.590 C 63.322 148.205,62.923 148.273,59.858 148.355 C 54.952 148.486,55.333 147.986,55.333 154.291 C 55.333 161.410,55.227 161.603,51.329 161.603 C 46.984 161.603,47.317 163.196,47.317 142.437 C 47.317 125.572,47.389 124.418,48.465 123.880 C 49.668 123.280,64.383 123.650,65.546 124.310 M85.837 124.105 C 86.566 124.834,86.604 125.165,86.680 131.536 C 86.739 136.453,86.810 137.342,87.172 137.704 C 87.734 138.265,88.479 138.001,88.879 137.099 C 89.055 136.701,89.753 135.638,90.430 134.736 C 91.107 133.835,91.890 132.733,92.169 132.289 C 92.448 131.844,92.829 131.324,93.016 131.133 C 93.202 130.941,93.533 130.438,93.753 130.014 C 94.093 129.356,95.071 127.964,96.268 126.435 C 96.436 126.219,96.865 125.610,97.220 125.081 C 98.060 123.832,98.818 123.594,101.957 123.594 C 105.101 123.594,105.516 123.828,105.300 125.485 C 105.222 126.080,105.080 126.626,104.984 126.697 C 104.888 126.768,104.294 127.568,103.665 128.475 C 101.849 131.092,101.779 131.187,101.162 131.868 C 100.840 132.224,100.511 132.718,100.432 132.967 C 100.353 133.216,100.191 133.420,100.072 133.420 C 99.954 133.420,99.176 134.366,98.345 135.523 C 97.513 136.679,96.649 137.814,96.425 138.044 C 96.201 138.273,95.648 139.021,95.195 139.705 L 94.373 140.949 95.064 142.162 C 96.163 144.088,97.955 146.768,98.381 147.121 C 98.596 147.300,98.772 147.566,98.772 147.712 C 98.772 147.859,99.045 148.340,99.380 148.780 C 99.714 149.220,100.170 149.929,100.392 150.356 C 100.615 150.782,101.027 151.375,101.308 151.673 C 101.589 151.970,102.001 152.564,102.222 152.993 C 102.444 153.421,103.125 154.500,103.736 155.391 C 105.553 158.037,105.936 159.037,105.779 160.721 C 105.697 161.604,100.294 162.002,98.810 161.235 C 97.881 160.755,96.817 159.285,94.241 154.920 C 93.960 154.445,93.410 153.643,93.019 153.139 C 92.628 152.636,92.308 152.090,92.308 151.926 C 92.308 151.763,91.963 151.226,91.543 150.734 C 91.122 150.241,90.773 149.742,90.767 149.624 C 90.761 149.506,90.359 148.807,89.872 148.072 C 89.386 147.337,88.844 146.416,88.667 146.025 C 88.491 145.633,88.146 145.314,87.902 145.314 C 86.848 145.314,86.754 145.878,86.619 153.045 C 86.456 161.712,86.505 161.603,82.796 161.603 C 80.540 161.603,79.275 161.279,78.948 160.615 C 78.691 160.095,78.497 128.304,78.737 125.983 C 78.973 123.694,79.130 123.594,82.501 123.594 C 84.970 123.594,85.391 123.659,85.837 124.105 M55.785 130.677 C 55.195 131.125,55.089 140.652,55.669 141.133 C 56.595 141.902,61.200 141.774,62.017 140.956 C 62.256 140.718,62.818 140.261,63.267 139.941 C 64.361 139.163,65.051 136.426,64.634 134.523 C 64.204 132.560,64.183 132.524,62.793 131.394 L 61.469 130.317 58.853 130.325 C 57.089 130.331,56.091 130.445,55.785 130.677 M27.593 143.836 C 28.373 144.616,28.262 148.810,27.444 149.473 C 26.716 150.063,15.355 150.238,14.126 149.678 C 12.515 148.944,12.862 143.771,14.547 143.417 C 16.353 143.037,27.141 143.383,27.593 143.836 M156.897 193.244 C 157.278 193.623,157.357 194.527,157.488 199.944 C 157.572 203.388,157.659 206.231,157.682 206.261 C 158.063 206.760,158.838 206.813,159.469 206.384 C 162.553 204.282,162.192 204.402,165.717 204.324 C 168.018 204.274,169.128 204.349,169.502 204.583 C 169.793 204.764,170.426 205.145,170.909 205.430 C 173.498 206.956,175.426 209.872,176.095 213.274 C 176.520 215.432,176.304 222.453,175.773 223.788 C 175.547 224.357,175.126 225.433,174.840 226.179 C 174.223 227.783,172.547 229.786,171.214 230.511 C 170.691 230.795,169.897 231.290,169.449 231.610 C 168.202 232.500,162.438 232.489,161.240 231.594 C 160.800 231.265,160.032 230.837,159.535 230.644 C 159.037 230.450,158.328 230.084,157.959 229.830 C 157.171 229.289,156.690 229.584,156.690 230.607 C 156.690 232.080,154.099 232.831,152.611 231.789 L 152.036 231.386 152.054 212.849 C 152.064 202.653,152.158 194.095,152.262 193.831 C 152.734 192.630,155.884 192.231,156.897 193.244 M143.247 194.572 C 144.283 195.509,144.091 198.504,142.957 199.111 C 142.126 199.556,139.484 199.402,138.828 198.871 C 138.046 198.238,137.764 195.279,138.432 194.724 C 139.681 193.688,142.183 193.609,143.247 194.572 M63.357 194.704 C 63.627 194.849,64.015 195.530,64.220 196.219 C 64.425 196.908,64.894 198.110,65.263 198.890 C 65.632 199.670,65.934 200.542,65.934 200.827 C 65.934 201.112,66.226 201.895,66.584 202.567 C 66.941 203.239,67.355 204.331,67.504 204.993 C 67.652 205.655,68.018 206.723,68.317 207.365 C 68.616 208.007,69.065 209.231,69.313 210.084 C 69.562 210.937,70.064 212.334,70.429 213.187 C 70.794 214.040,71.096 214.971,71.100 215.255 C 71.104 215.540,71.345 216.162,71.635 216.639 C 71.926 217.115,72.346 218.221,72.569 219.095 C 72.792 219.970,73.150 221.028,73.365 221.446 C 73.580 221.865,73.963 222.912,74.215 223.774 C 74.467 224.635,74.906 225.863,75.191 226.503 C 75.476 227.143,75.944 228.510,76.231 229.540 L 76.754 231.414 76.199 231.803 C 74.346 233.101,71.071 232.002,70.700 229.958 C 70.600 229.409,70.316 228.552,70.070 228.054 C 69.823 227.557,69.358 226.310,69.038 225.285 C 68.123 222.364,68.547 222.508,60.612 222.418 C 52.322 222.325,52.225 222.372,51.191 226.891 C 51.028 227.602,50.685 228.591,50.429 229.089 C 50.172 229.586,49.877 230.284,49.773 230.640 C 49.392 231.937,48.929 232.191,46.941 232.191 C 44.346 232.191,43.792 231.260,45.016 228.949 C 45.314 228.386,45.770 227.169,46.029 226.244 C 46.288 225.320,46.797 223.866,47.161 223.012 C 47.525 222.159,47.825 221.253,47.828 220.998 C 47.832 220.744,48.054 220.104,48.323 219.576 C 48.591 219.048,49.064 217.763,49.375 216.719 C 49.685 215.675,50.163 214.454,50.437 214.004 C 50.711 213.555,50.939 212.954,50.942 212.670 C 50.946 212.385,51.246 211.454,51.608 210.601 C 51.970 209.748,52.489 208.352,52.761 207.498 C 53.862 204.052,54.864 201.237,55.344 200.242 C 55.622 199.663,55.850 198.980,55.850 198.722 C 55.850 198.261,57.203 195.394,57.718 194.764 C 58.044 194.365,62.631 194.316,63.357 194.704 M103.447 196.406 C 103.677 196.683,103.837 197.979,103.931 200.345 L 104.072 203.871 105.107 204.054 C 105.676 204.154,107.072 204.245,108.209 204.255 C 110.992 204.280,111.571 204.592,111.571 206.062 C 111.571 207.665,110.813 208.048,107.356 208.186 C 105.713 208.252,104.604 208.415,104.400 208.619 C 103.965 209.053,103.787 223.930,104.199 225.458 C 104.685 227.265,107.132 228.617,108.595 227.887 C 111.171 226.602,112.741 228.969,110.765 231.156 L 109.830 232.191 106.532 232.191 L 103.235 232.191 101.935 231.156 C 99.152 228.940,98.772 227.233,98.772 216.937 C 98.772 207.197,99.417 208.145,92.789 208.145 L 87.860 208.145 86.981 209.024 L 86.102 209.903 86.102 217.137 C 86.102 224.880,86.201 225.586,87.484 226.978 C 88.509 228.089,89.587 228.367,91.037 227.893 C 93.228 227.177,94.201 227.979,93.731 230.116 C 93.367 231.776,92.389 232.191,88.844 232.191 L 85.678 232.191 84.279 231.147 C 82.691 229.963,82.690 229.960,81.785 227.597 C 81.134 225.897,81.115 225.664,80.960 217.582 C 80.780 208.196,80.770 208.145,79.011 208.145 C 75.880 208.145,75.912 204.663,79.047 204.238 C 80.775 204.003,80.921 203.815,80.930 201.810 C 80.945 198.294,81.485 197.535,83.961 197.549 C 85.752 197.560,86.076 198.074,86.159 201.034 L 86.231 203.620 87.136 203.929 C 88.096 204.256,96.448 204.342,97.867 204.040 L 98.643 203.874 98.706 200.774 C 98.782 197.034,98.880 196.554,99.620 196.256 C 100.630 195.850,103.065 195.945,103.447 196.406 M219.247 197.797 C 220.458 198.145,220.547 198.368,220.552 201.067 C 220.557 204.056,220.562 204.061,224.156 204.249 C 227.327 204.416,227.796 204.645,227.796 206.027 C 227.796 207.736,227.088 208.145,224.127 208.145 L 221.583 208.145 221.070 208.985 C 220.542 209.852,220.302 224.241,220.787 225.983 C 221.289 227.790,224.343 228.583,226.251 227.404 C 226.728 227.109,227.796 228.368,227.796 229.224 C 227.796 231.725,227.077 232.173,223.046 232.183 C 219.734 232.191,219.715 232.188,218.860 231.437 C 218.388 231.022,217.849 230.586,217.662 230.468 C 215.747 229.252,215.416 227.325,215.398 217.271 C 215.382 208.344,215.503 208.700,212.235 208.028 C 209.477 207.461,210.290 204.525,213.310 204.150 C 215.323 203.900,215.385 203.807,215.385 201.013 C 215.385 197.687,216.276 196.945,219.247 197.797 M59.848 201.357 C 59.303 202.626,58.346 205.374,57.889 206.981 C 57.606 207.977,57.162 209.198,56.903 209.696 C 56.643 210.194,56.284 211.241,56.105 212.023 C 55.926 212.805,55.545 213.911,55.258 214.480 C 54.728 215.529,54.548 217.211,54.877 218.035 C 55.193 218.824,64.971 218.712,65.532 217.913 C 66.102 217.098,66.023 216.009,65.261 214.221 C 64.898 213.368,64.436 212.075,64.234 211.348 C 64.033 210.621,63.641 209.514,63.364 208.887 C 63.087 208.261,62.732 207.174,62.574 206.471 C 62.314 205.308,60.393 200.905,60.146 200.905 C 60.089 200.905,59.955 201.109,59.848 201.357 M121.895 204.673 C 122.118 204.896,122.301 205.471,122.301 205.950 C 122.301 206.901,122.697 207.335,123.151 206.881 C 123.309 206.723,123.595 206.593,123.786 206.593 C 124.134 206.593,125.140 205.950,126.550 204.825 C 127.250 204.267,127.503 204.227,129.870 204.308 C 133.023 204.416,133.420 204.729,133.420 207.108 C 133.420 209.073,133.243 209.187,130.277 209.146 C 127.516 209.108,126.676 209.399,125.553 210.786 C 125.175 211.253,124.582 211.955,124.235 212.345 C 123.344 213.349,123.348 213.303,123.274 222.839 C 123.196 232.790,123.366 232.191,120.621 232.191 C 117.810 232.191,118.046 233.423,117.958 218.314 L 117.882 205.171 118.440 204.719 C 119.163 204.132,121.326 204.103,121.895 204.673 M143.031 204.694 C 143.676 205.278,143.774 231.182,143.134 231.822 C 142.581 232.375,139.287 232.331,138.816 231.764 C 138.530 231.419,138.446 229.050,138.381 219.418 C 138.291 206.055,138.356 204.863,139.193 204.525 C 140.191 204.123,142.512 204.225,143.031 204.694 M187.346 204.633 C 187.822 204.981,187.855 205.485,187.993 214.523 C 188.131 223.487,188.255 225.210,188.765 225.210 C 188.881 225.210,189.046 225.429,189.131 225.697 C 189.353 226.398,190.174 227.279,190.606 227.279 C 190.809 227.279,191.087 227.371,191.222 227.484 C 192.075 228.199,193.347 228.320,194.559 227.801 C 195.229 227.514,195.945 227.279,196.152 227.279 C 196.358 227.279,196.915 226.900,197.389 226.438 C 197.863 225.976,198.470 225.406,198.738 225.171 C 200.471 223.649,200.349 224.434,200.437 214.244 C 200.530 203.457,200.328 204.162,203.292 204.319 C 205.891 204.458,205.688 203.278,205.688 218.263 C 205.688 233.411,205.909 232.191,203.164 232.191 C 201.428 232.191,200.983 231.892,200.860 230.639 C 200.741 229.437,200.067 229.073,199.297 229.796 C 198.969 230.104,198.238 230.550,197.674 230.786 C 197.109 231.021,196.368 231.434,196.026 231.703 C 195.012 232.501,189.084 232.426,188.061 231.603 C 187.659 231.280,187.005 230.850,186.608 230.649 C 185.613 230.144,184.671 228.893,183.731 226.829 L 182.935 225.081 182.860 215.126 C 182.785 205.209,182.787 205.170,183.341 204.719 C 184.039 204.151,186.610 204.096,187.346 204.633 M249.559 204.936 C 249.891 205.232,250.542 205.626,251.006 205.809 C 251.784 206.116,254.010 208.297,254.828 209.553 C 255.236 210.180,256.238 214.613,256.238 215.793 C 256.238 219.239,256.177 219.260,246.154 219.266 C 236.842 219.272,237.236 219.181,237.426 221.271 C 237.689 224.170,239.610 226.748,241.998 227.408 C 242.791 227.627,243.641 227.920,243.888 228.059 C 244.590 228.456,247.525 228.363,248.421 227.916 C 249.098 227.579,252.512 227.028,253.969 227.022 C 254.707 227.019,255.261 228.134,255.058 229.213 C 254.892 230.099,254.747 230.219,252.679 231.174 L 250.477 232.191 245.621 232.191 L 240.765 232.191 238.870 231.240 C 233.684 228.638,231.588 224.067,232.076 216.423 C 232.248 213.730,232.428 213.130,234.084 209.727 C 234.607 208.652,237.186 206.276,238.526 205.636 C 239.237 205.297,240.110 204.846,240.465 204.634 C 241.565 203.980,248.760 204.219,249.559 204.936 M243.504 207.901 C 242.972 207.990,242.332 208.239,242.082 208.454 C 241.833 208.670,241.099 209.104,240.452 209.421 C 238.317 210.463,236.544 214.828,238.026 215.391 C 239.938 216.118,251.067 215.586,251.067 214.767 C 251.067 214.293,250.306 211.459,249.977 210.707 C 249.344 209.260,245.456 207.575,243.504 207.901 M163.413 208.666 C 163.200 208.806,162.592 209.041,162.062 209.187 C 160.918 209.504,158.860 211.214,158.056 212.516 C 157.298 213.744,157.162 222.296,157.877 223.736 C 158.561 225.112,160.781 226.979,162.306 227.460 C 163.057 227.696,163.672 227.985,163.672 228.102 C 163.672 228.492,165.117 228.317,166.196 227.796 C 166.785 227.511,167.375 227.279,167.508 227.279 C 167.943 227.279,169.562 225.283,170.085 224.102 C 172.179 219.368,170.951 210.629,168.031 209.485 C 167.553 209.298,166.780 208.978,166.313 208.774 C 165.335 208.347,163.976 208.296,163.413 208.666 M26.699 215.504 C 28.499 216.256,28.446 218.484,26.616 219.009 C 25.341 219.375,15.600 219.307,14.480 218.925 C 12.881 218.380,12.929 216.243,14.555 215.531 C 15.775 214.997,25.434 214.976,26.699 215.504 " stroke="none" fill="#f4f4f4" fill-rule="evenodd"></path></g></svg>