<svg id="svg" xmlns="http://www.w3.org/2000/svg" xmlns:xlink="http://www.w3.org/1999/xlink" width="400" height="169.6969696969697" viewBox="0, 0, 400,169.6969696969697" version="1.1"><g id="svgg"><path id="path0" d="M206.061 38.095 C 206.061 55.411,206.494 58.874,208.658 58.874 C 210.823 58.874,211.255 55.411,211.255 38.095 C 211.255 20.779,210.823 17.316,208.658 17.316 C 206.494 17.316,206.061 20.779,206.061 38.095 M283.983 25.974 C 283.983 27.898,282.828 29.437,281.385 29.437 C 279.957 29.437,278.788 30.133,278.788 30.984 C 278.788 31.834,279.957 32.978,281.385 33.527 C 283.283 34.255,283.983 37.243,283.983 44.621 C 283.983 50.175,284.918 55.654,286.061 56.797 C 288.927 59.663,296.104 59.429,296.104 56.469 C 296.104 55.147,294.740 54.173,293.074 54.305 C 290.534 54.506,289.960 52.791,289.528 43.723 C 289.055 33.803,289.308 32.900,292.558 32.900 C 294.508 32.900,296.104 32.121,296.104 31.169 C 296.104 30.216,294.545 29.437,292.641 29.437 C 290.332 29.437,289.177 28.283,289.177 25.974 C 289.177 24.050,288.023 22.511,286.580 22.511 C 285.137 22.511,283.983 24.050,283.983 25.974 M121.295 32.485 C 108.019 43.235,121.338 64.033,137.521 57.823 C 142.786 55.803,140.368 53.274,134.265 54.419 C 129.558 55.302,127.513 54.786,124.741 52.014 C 119.129 46.402,120.483 45.022,131.602 45.022 C 143.418 45.022,145.024 42.418,138.402 34.000 C 134.151 28.595,126.892 27.953,121.295 32.485 M145.563 30.736 C 146.207 38.436,155.449 58.009,158.442 58.009 C 161.434 58.009,170.676 38.436,171.320 30.736 C 171.852 24.368,165.793 31.609,162.626 41.126 L 158.735 52.814 154.453 41.126 C 151.000 31.700,145.064 24.762,145.563 30.736 M177.886 31.328 C 173.357 33.964,175.936 36.539,181.127 34.566 C 186.201 32.636,192.208 35.052,192.208 39.022 C 192.208 40.698,190.407 41.558,186.899 41.558 C 178.905 41.558,174.892 44.401,174.892 50.065 C 174.892 56.863,177.878 58.728,188.381 58.489 L 197.403 58.284 197.403 47.709 C 197.403 31.534,189.265 24.703,177.886 31.328 M219.913 40.307 C 219.913 56.301,225.639 62.419,235.612 57.082 C 237.920 55.846,238.961 55.846,238.961 57.082 C 238.961 58.068,240.130 58.874,241.558 58.874 C 243.664 58.874,244.156 56.085,244.156 44.156 C 244.156 32.227,243.664 29.437,241.558 29.437 C 239.541 29.437,238.961 31.735,238.961 39.729 C 238.961 48.303,238.339 50.456,235.230 52.633 C 228.370 57.438,225.108 53.570,225.108 40.632 C 225.108 31.835,224.552 29.437,222.511 29.437 C 220.478 29.437,219.913 31.799,219.913 40.307 M255.844 30.631 C 254.177 31.066,252.814 32.534,252.814 33.893 C 252.814 36.825,253.031 36.854,258.747 34.681 C 264.354 32.549,268.398 34.057,268.398 38.281 C 268.398 40.843,267.135 41.558,262.606 41.558 C 255.173 41.558,250.243 46.636,251.769 52.718 C 253.083 57.951,259.825 60.181,265.929 57.400 C 268.518 56.220,270.130 56.135,270.130 57.180 C 270.130 58.112,270.909 58.874,271.861 58.874 C 272.861 58.874,273.593 53.411,273.593 45.948 C 273.593 30.203,269.848 26.971,255.844 30.631 M305.064 33.445 C 293.370 45.892,306.581 64.048,322.802 57.823 C 328.176 55.761,325.411 53.760,317.654 54.098 C 312.301 54.331,309.249 53.623,308.156 51.896 C 304.698 46.427,306.305 45.022,316.017 45.022 C 325.404 45.022,325.541 44.948,325.541 39.925 C 325.541 30.103,312.177 25.874,305.064 33.445 M335.498 31.264 C 330.033 34.526,331.780 41.081,339.394 45.887 C 347.379 50.928,347.498 51.196,342.857 53.680 C 340.376 55.008,338.370 54.985,335.782 53.600 C 331.334 51.220,329.480 52.678,332.433 56.235 C 336.280 60.871,346.786 59.280,349.825 53.601 C 352.297 48.984,350.128 45.212,343.380 42.392 C 335.412 39.063,336.013 33.642,344.307 34.031 C 347.892 34.199,349.721 33.566,349.306 32.300 C 348.440 29.660,339.331 28.976,335.498 31.264 M134.075 35.622 C 138.521 40.067,137.247 41.558,129.004 41.558 C 120.469 41.558,119.792 40.803,124.078 36.067 C 127.592 32.184,130.508 32.054,134.075 35.622 M318.268 34.978 C 322.378 39.088,320.557 41.558,313.420 41.558 C 305.922 41.558,303.904 38.044,309.524 34.771 C 313.554 32.423,315.766 32.476,318.268 34.978 M192.208 48.424 C 192.208 52.277,186.265 56.159,182.549 54.733 C 180.022 53.764,179.178 48.239,181.241 46.176 C 184.059 43.358,192.208 45.028,192.208 48.424 M268.086 48.741 C 267.237 54.447,262.196 56.878,258.623 53.304 C 254.899 49.580,258.079 45.022,264.402 45.022 C 267.754 45.022,268.524 45.799,268.086 48.741 M38.095 83.983 L 38.095 91.775 30.303 91.775 C 24.531 91.775,22.511 92.448,22.511 94.372 C 22.511 96.296,24.531 96.970,30.303 96.970 L 38.095 96.970 38.095 104.762 C 38.095 110.534,38.769 112.554,40.693 112.554 C 42.617 112.554,43.290 110.534,43.290 104.762 L 43.290 96.970 50.216 96.970 L 57.143 96.970 57.143 104.762 C 57.143 110.534,57.816 112.554,59.740 112.554 C 61.664 112.554,62.338 110.534,62.338 104.762 L 62.338 96.970 216.450 96.970 C 352.285 96.970,370.563 96.662,370.563 94.372 C 370.563 92.083,352.285 91.775,216.450 91.775 L 62.338 91.775 62.338 83.983 C 62.338 78.211,61.664 76.190,59.740 76.190 C 57.816 76.190,57.143 78.211,57.143 83.983 L 57.143 91.775 50.216 91.775 L 43.290 91.775 43.290 83.983 C 43.290 78.211,42.617 76.190,40.693 76.190 C 38.769 76.190,38.095 78.211,38.095 83.983 " stroke="none" fill="#000000" fill-rule="evenodd"></path></g></svg>