<svg id="svg" xmlns="http://www.w3.org/2000/svg" xmlns:xlink="http://www.w3.org/1999/xlink" width="400" height="850" viewBox="0, 0, 400,850" version="1.1"><g id="svgg"><path id="path0" d="M0.000 426.400 L 0.000 830.800 2.151 830.800 C 3.508 830.800,4.474 831.007,4.767 831.361 C 5.023 831.669,5.719 832.043,6.312 832.192 C 6.906 832.341,7.522 832.674,7.681 832.932 C 8.119 833.639,371.264 833.607,371.500 832.900 C 371.592 832.625,371.877 832.393,372.133 832.383 C 373.439 832.337,375.508 829.758,375.972 827.600 C 376.332 825.922,376.399 793.347,376.251 690.400 C 376.145 616.150,376.058 554.680,376.056 553.800 C 375.960 482.673,376.740 300.759,377.151 298.200 C 377.712 294.713,377.547 281.200,376.842 272.800 C 376.605 269.982,376.445 220.990,376.428 146.362 C 376.401 30.839,376.364 24.493,375.700 23.929 C 373.297 21.888,384.436 22.000,184.643 22.000 L 0.000 22.000 0.000 426.400 M349.629 43.206 C 352.490 43.844,353.451 44.242,354.212 45.106 L 355.175 46.200 355.187 157.449 C 355.202 286.506,355.821 271.409,350.428 273.540 L 347.240 274.800 182.651 274.800 L 18.062 274.800 16.897 273.636 C 16.257 272.996,15.343 271.402,14.867 270.095 L 14.000 267.718 14.000 157.277 L 14.000 46.836 15.011 45.346 C 15.567 44.526,16.512 43.541,17.111 43.157 C 18.949 41.978,344.331 42.026,349.629 43.206 M349.800 299.609 C 354.028 300.086,355.696 300.819,356.797 302.684 C 357.722 304.252,358.099 520.960,357.188 527.323 C 356.491 532.186,356.057 533.394,354.724 534.181 C 351.566 536.047,356.552 535.994,182.163 535.997 L 18.126 536.000 16.398 535.086 C 15.447 534.584,14.474 533.819,14.235 533.386 C 13.996 532.954,13.675 532.506,13.522 532.390 C 12.251 531.430,12.227 529.461,12.094 416.400 C 11.974 314.972,12.022 304.085,12.590 303.000 C 13.288 301.669,15.311 300.135,17.059 299.611 C 18.744 299.106,345.327 299.104,349.800 299.609 M349.929 576.982 C 354.228 577.636,355.122 578.141,356.769 580.842 L 357.597 582.200 357.599 692.436 C 357.600 816.880,357.753 810.984,354.488 812.644 C 353.669 813.060,352.910 813.513,352.800 813.651 C 351.938 814.730,341.586 814.800,182.162 814.800 C 78.705 814.800,18.081 814.659,17.444 814.417 C 16.889 814.206,15.689 813.309,14.777 812.424 C 11.830 809.564,12.006 817.148,12.003 692.880 C 12.000 576.791,11.956 580.000,13.546 580.000 C 13.725 580.000,14.064 579.577,14.300 579.059 C 14.536 578.542,15.510 577.732,16.464 577.260 L 18.200 576.401 182.200 576.407 C 321.772 576.413,346.755 576.499,349.929 576.982 " stroke="none" fill="#131312" fill-rule="evenodd"></path><path id="path1" d="M0.000 9.200 L 0.000 18.400 184.100 18.403 C 306.457 18.405,369.393 18.543,371.756 18.814 C 375.202 19.209,377.600 20.110,377.600 21.011 C 377.600 21.252,377.975 21.852,378.433 22.344 C 378.892 22.836,379.420 23.771,379.607 24.423 C 380.262 26.709,380.215 823.153,379.559 828.597 C 379.320 830.579,378.961 832.260,378.762 832.333 C 378.563 832.407,378.400 832.703,378.400 832.992 C 378.400 834.020,375.648 836.000,374.219 836.000 C 373.475 836.000,372.792 836.225,372.700 836.500 C 372.455 837.236,6.745 837.236,6.500 836.500 C 6.385 836.156,5.344 836.000,3.167 836.000 L 0.000 836.000 0.000 843.000 L 0.000 850.000 200.000 850.000 L 400.000 850.000 400.000 425.000 L 400.000 0.000 200.000 0.000 L 0.000 0.000 0.000 9.200 M18.000 302.000 C 18.000 302.220,17.758 302.400,17.462 302.400 C 15.476 302.400,15.600 294.918,15.600 414.912 C 15.600 530.664,15.588 529.730,17.127 530.775 C 17.309 530.899,17.575 531.315,17.717 531.700 C 18.078 532.678,346.458 532.804,348.348 531.827 C 348.958 531.511,350.479 530.122,351.728 528.739 L 354.000 526.224 354.000 414.931 L 354.000 303.638 352.500 303.210 C 351.675 302.975,350.235 302.672,349.300 302.537 C 348.365 302.402,347.600 302.136,347.600 301.946 C 347.600 301.752,275.117 301.600,182.800 301.600 C 73.200 301.600,18.000 301.734,18.000 302.000 M17.326 580.403 C 15.546 581.120,15.600 577.579,15.605 693.474 C 15.610 809.140,15.597 808.194,17.135 809.165 C 17.340 809.294,17.576 809.760,17.659 810.200 C 17.805 810.969,344.286 811.774,347.451 811.014 C 348.386 810.789,352.189 807.204,353.301 805.500 C 353.965 804.482,353.996 798.592,353.901 693.145 L 353.800 581.864 350.800 580.939 L 347.800 580.015 183.000 580.033 C 89.061 580.043,17.824 580.202,17.326 580.403 " stroke="none" fill="#fcfcfc" fill-rule="evenodd"></path><path id="path2" d="M0.000 20.200 L 0.000 22.000 184.643 22.000 C 384.436 22.000,373.297 21.888,375.700 23.929 C 376.364 24.493,376.401 30.839,376.428 146.362 C 376.445 220.990,376.605 269.982,376.842 272.800 C 377.547 281.200,377.712 294.713,377.151 298.200 C 376.740 300.759,375.960 482.673,376.056 553.800 C 376.058 554.680,376.145 616.150,376.251 690.400 C 376.399 793.347,376.332 825.922,375.972 827.600 C 375.508 829.758,373.439 832.337,372.133 832.383 C 371.877 832.393,371.592 832.625,371.500 832.900 C 371.264 833.607,8.119 833.639,7.681 832.932 C 7.522 832.674,6.906 832.341,6.312 832.192 C 5.719 832.043,5.023 831.669,4.767 831.361 C 4.474 831.007,3.508 830.800,2.151 830.800 L 0.000 830.800 0.000 833.400 L 0.000 836.000 3.167 836.000 C 5.344 836.000,6.385 836.156,6.500 836.500 C 6.633 836.899,43.609 837.000,189.600 837.000 C 335.591 837.000,372.567 836.899,372.700 836.500 C 372.792 836.225,373.475 836.000,374.219 836.000 C 375.648 836.000,378.400 834.020,378.400 832.992 C 378.400 832.703,378.563 832.407,378.762 832.333 C 378.961 832.260,379.320 830.579,379.559 828.597 C 380.215 823.153,380.262 26.709,379.607 24.423 C 379.420 23.771,378.892 22.836,378.433 22.344 C 377.975 21.852,377.600 21.252,377.600 21.011 C 377.600 20.110,375.202 19.209,371.756 18.814 C 369.393 18.543,306.457 18.405,184.100 18.403 L 0.000 18.400 0.000 20.200 M17.111 43.157 C 16.512 43.541,15.567 44.526,15.011 45.346 L 14.000 46.836 14.000 157.277 L 14.000 267.718 14.867 270.095 C 15.343 271.402,16.257 272.996,16.897 273.636 L 18.062 274.800 182.651 274.800 L 347.240 274.800 350.428 273.540 C 355.821 271.409,355.202 286.506,355.187 157.449 L 355.175 46.200 354.212 45.106 C 353.451 44.242,352.490 43.844,349.629 43.206 C 344.331 42.026,18.949 41.978,17.111 43.157 M17.059 299.611 C 15.311 300.135,13.288 301.669,12.590 303.000 C 12.022 304.085,11.974 314.972,12.094 416.400 C 12.227 529.461,12.251 531.430,13.522 532.390 C 13.675 532.506,13.996 532.954,14.235 533.386 C 14.474 533.819,15.447 534.584,16.398 535.086 L 18.126 536.000 182.163 535.997 C 356.552 535.994,351.566 536.047,354.724 534.181 C 356.057 533.394,356.491 532.186,357.188 527.323 C 358.099 520.960,357.722 304.252,356.797 302.684 C 355.696 300.819,354.028 300.086,349.800 299.609 C 345.327 299.104,18.744 299.106,17.059 299.611 M347.600 301.946 C 347.600 302.136,348.365 302.402,349.300 302.537 C 350.235 302.672,351.675 302.975,352.500 303.210 L 354.000 303.638 354.000 414.931 L 354.000 526.224 351.728 528.739 C 350.479 530.122,348.958 531.511,348.348 531.827 C 346.458 532.804,18.078 532.678,17.717 531.700 C 17.575 531.315,17.309 530.899,17.127 530.775 C 15.588 529.730,15.600 530.664,15.600 414.912 C 15.600 294.918,15.476 302.400,17.462 302.400 C 17.758 302.400,18.000 302.220,18.000 302.000 C 18.000 301.734,73.200 301.600,182.800 301.600 C 275.117 301.600,347.600 301.752,347.600 301.946 M16.464 577.260 C 15.510 577.732,14.536 578.542,14.300 579.059 C 14.064 579.577,13.725 580.000,13.546 580.000 C 11.956 580.000,12.000 576.791,12.003 692.880 C 12.006 817.148,11.830 809.564,14.777 812.424 C 15.689 813.309,16.889 814.206,17.444 814.417 C 18.081 814.659,78.705 814.800,182.162 814.800 C 341.586 814.800,351.938 814.730,352.800 813.651 C 352.910 813.513,353.669 813.060,354.488 812.644 C 357.753 810.984,357.600 816.880,357.599 692.436 L 357.597 582.200 356.769 580.842 C 355.122 578.141,354.228 577.636,349.929 576.982 C 346.755 576.499,321.772 576.413,182.200 576.407 L 18.200 576.401 16.464 577.260 M350.800 580.939 L 353.800 581.864 353.901 693.145 C 353.996 798.592,353.965 804.482,353.301 805.500 C 352.189 807.204,348.386 810.789,347.451 811.014 C 344.286 811.774,17.805 810.969,17.659 810.200 C 17.576 809.760,17.340 809.294,17.135 809.165 C 15.597 808.194,15.610 809.140,15.605 693.474 C 15.600 577.579,15.546 581.120,17.326 580.403 C 17.824 580.202,89.061 580.043,183.000 580.033 L 347.800 580.015 350.800 580.939 " stroke="none" fill="#94d44c" fill-rule="evenodd"></path></g></svg>