<svg id="svg" xmlns="http://www.w3.org/2000/svg" xmlns:xlink="http://www.w3.org/1999/xlink" width="400" height="208.30188679245282" viewBox="0, 0, 400,208.30188679245282" version="1.1"><g id="svgg"><path id="path0" d="M150.296 47.655 C 148.992 48.960,147.925 51.337,147.925 52.938 C 147.925 54.539,146.906 55.849,145.660 55.849 C 144.415 55.849,143.396 56.528,143.396 57.358 C 143.396 58.189,144.415 58.868,145.660 58.868 C 147.472 58.868,147.925 61.132,147.925 70.189 C 147.925 79.245,148.377 81.509,150.189 81.509 C 152.000 81.509,152.453 79.245,152.453 70.189 C 152.453 59.874,152.721 58.868,155.472 58.868 C 157.132 58.868,158.491 58.189,158.491 57.358 C 158.491 56.528,157.132 55.849,155.472 55.849 C 151.559 55.849,151.385 50.354,155.259 49.124 C 162.007 46.982,163.019 49.161,163.019 65.822 C 163.019 78.760,163.416 81.509,165.283 81.509 C 167.170 81.509,167.547 78.491,167.547 63.396 L 167.547 45.283 160.108 45.283 C 155.357 45.283,151.811 46.140,150.296 47.655 M105.660 64.151 C 105.660 78.574,106.043 81.509,107.925 81.509 C 109.806 81.509,110.189 78.574,110.189 64.151 C 110.189 49.727,109.806 46.792,107.925 46.792 C 106.043 46.792,105.660 49.727,105.660 64.151 M119.245 68.805 C 119.245 84.533,122.729 86.521,123.468 71.216 C 124.304 53.902,134.340 54.518,134.340 71.883 C 134.340 79.434,134.828 81.509,136.604 81.509 C 139.923 81.509,139.830 61.555,136.496 58.221 C 133.759 55.484,129.372 55.170,125.184 57.412 C 123.171 58.489,122.264 58.489,122.264 57.412 C 122.264 56.552,121.585 55.849,120.755 55.849 C 119.866 55.849,119.245 61.174,119.245 68.805 M175.094 65.325 C 175.094 79.266,180.086 84.599,188.778 79.947 C 190.791 78.870,191.698 78.870,191.698 79.947 C 191.698 80.806,192.717 81.509,193.962 81.509 C 195.797 81.509,196.226 79.078,196.226 68.679 C 196.226 58.281,195.797 55.849,193.962 55.849 C 192.204 55.849,191.698 57.852,191.698 64.820 C 191.698 72.295,191.156 74.171,188.446 76.069 C 182.466 80.257,179.623 76.886,179.623 65.607 C 179.623 57.940,179.138 55.849,177.358 55.849 C 175.586 55.849,175.094 57.908,175.094 65.325 M205.969 59.554 C 195.651 69.872,207.124 85.921,221.009 80.593 C 225.412 78.903,223.574 76.568,218.621 77.559 C 213.336 78.616,206.792 75.396,206.792 71.739 C 206.792 70.175,209.172 69.461,215.472 69.132 C 223.681 68.704,224.129 68.479,223.739 64.986 C 222.724 55.897,212.693 52.830,205.969 59.554 M230.943 68.679 C 230.943 84.910,235.016 87.920,235.777 72.252 C 236.641 54.462,247.547 54.748,247.547 72.561 C 247.547 79.509,248.053 81.509,249.811 81.509 C 251.583 81.509,252.075 79.450,252.075 72.034 C 252.075 58.093,247.084 52.759,238.391 57.412 C 236.379 58.489,235.472 58.489,235.472 57.412 C 235.472 56.552,234.453 55.849,233.208 55.849 C 231.373 55.849,230.943 58.281,230.943 68.679 M261.242 59.826 C 254.891 67.900,259.045 81.509,267.860 81.509 C 273.015 81.509,276.226 79.999,276.226 77.574 C 276.226 75.093,275.446 74.975,271.832 76.909 C 267.523 79.216,262.642 74.844,262.642 68.679 C 262.642 62.514,267.523 58.143,271.832 60.449 C 275.446 62.383,276.226 62.265,276.226 59.784 C 276.226 54.526,265.387 54.556,261.242 59.826 M284.460 59.554 C 274.142 69.872,285.615 85.921,299.499 80.593 C 303.903 78.903,302.065 76.568,297.111 77.559 C 291.826 78.616,285.283 75.396,285.283 71.739 C 285.283 70.175,287.662 69.461,293.962 69.132 C 302.172 68.704,302.619 68.479,302.229 64.986 C 301.215 55.897,291.184 52.830,284.460 59.554 M218.005 61.240 C 221.881 65.115,220.770 66.415,213.585 66.415 C 209.849 66.415,206.792 65.784,206.792 65.013 C 206.792 62.905,211.254 58.868,213.585 58.868 C 214.712 58.868,216.701 59.935,218.005 61.240 M296.496 61.240 C 300.371 65.115,299.261 66.415,292.075 66.415 C 288.340 66.415,285.283 65.784,285.283 65.013 C 285.283 62.905,289.745 58.868,292.075 58.868 C 293.202 58.868,295.191 59.935,296.496 61.240 M199.245 144.780 L 199.245 150.943 193.208 150.943 C 188.847 150.943,187.170 151.572,187.170 153.208 C 187.170 154.840,188.843 155.472,193.170 155.472 C 198.893 155.472,199.135 155.663,198.412 159.623 C 197.423 165.036,199.849 169.056,202.503 166.402 C 203.534 165.372,205.940 164.528,207.849 164.528 C 209.929 164.528,211.321 163.620,211.321 162.264 C 211.321 160.855,209.895 160.000,207.547 160.000 C 205.199 160.000,203.774 159.145,203.774 157.736 C 203.774 156.155,205.367 155.472,209.057 155.472 C 212.746 155.472,214.340 154.789,214.340 153.208 C 214.340 151.634,212.756 150.943,209.148 150.943 C 204.259 150.943,203.928 150.620,203.487 145.400 C 202.814 137.437,199.245 136.915,199.245 144.780 M336.604 153.211 C 336.604 155.307,335.755 158.460,334.717 160.218 C 333.208 162.774,333.208 163.550,334.717 164.097 C 335.755 164.472,336.604 166.761,336.604 169.182 C 336.604 174.650,336.466 174.665,350.151 167.660 L 361.433 161.884 349.019 155.642 L 336.604 149.400 336.604 153.211 M346.007 159.424 L 350.731 161.868 347.064 163.899 C 341.371 167.052,339.623 166.491,339.623 161.509 C 339.623 156.246,339.768 156.198,346.007 159.424 M61.887 162.264 C 61.887 163.941,63.648 164.528,68.679 164.528 C 73.711 164.528,75.472 163.941,75.472 162.264 C 75.472 160.587,73.711 160.000,68.679 160.000 C 63.648 160.000,61.887 160.587,61.887 162.264 M89.057 162.264 C 89.057 163.941,90.818 164.528,95.849 164.528 C 100.881 164.528,102.642 163.941,102.642 162.264 C 102.642 160.587,100.881 160.000,95.849 160.000 C 90.818 160.000,89.057 160.587,89.057 162.264 M116.226 162.264 C 116.226 163.941,117.987 164.528,123.019 164.528 C 128.050 164.528,129.811 163.941,129.811 162.264 C 129.811 160.587,128.050 160.000,123.019 160.000 C 117.987 160.000,116.226 160.587,116.226 162.264 M143.396 162.264 C 143.396 163.941,145.157 164.528,150.189 164.528 C 155.220 164.528,156.981 163.941,156.981 162.264 C 156.981 160.587,155.220 160.000,150.189 160.000 C 145.157 160.000,143.396 160.587,143.396 162.264 M170.566 162.264 C 170.566 163.941,172.327 164.528,177.358 164.528 C 182.390 164.528,184.151 163.941,184.151 162.264 C 184.151 160.587,182.390 160.000,177.358 160.000 C 172.327 160.000,170.566 160.587,170.566 162.264 M224.906 162.264 C 224.906 163.941,226.667 164.528,231.698 164.528 C 236.730 164.528,238.491 163.941,238.491 162.264 C 238.491 160.587,236.730 160.000,231.698 160.000 C 226.667 160.000,224.906 160.587,224.906 162.264 M252.075 162.264 C 252.075 163.941,253.836 164.528,258.868 164.528 C 263.899 164.528,265.660 163.941,265.660 162.264 C 265.660 160.587,263.899 160.000,258.868 160.000 C 253.836 160.000,252.075 160.587,252.075 162.264 M279.245 162.264 C 279.245 163.941,281.006 164.528,286.038 164.528 C 291.069 164.528,292.830 163.941,292.830 162.264 C 292.830 160.587,291.069 160.000,286.038 160.000 C 281.006 160.000,279.245 160.587,279.245 162.264 M306.415 162.264 C 306.415 163.941,308.176 164.528,313.208 164.528 C 318.239 164.528,320.000 163.941,320.000 162.264 C 320.000 160.587,318.239 160.000,313.208 160.000 C 308.176 160.000,306.415 160.587,306.415 162.264 " stroke="none" fill="#000000" fill-rule="evenodd"></path></g></svg>