<svg id="svg" xmlns="http://www.w3.org/2000/svg" xmlns:xlink="http://www.w3.org/1999/xlink" width="400" height="228.31858407079645" viewBox="0, 0, 400,228.31858407079645" version="1.1"><g id="svgg"><path id="path0" d="M135.525 48.799 C 133.995 50.329,132.743 53.116,132.743 54.994 C 132.743 56.871,131.549 58.407,130.088 58.407 C 128.628 58.407,127.434 59.204,127.434 60.177 C 127.434 61.150,128.628 61.947,130.088 61.947 C 132.212 61.947,132.743 64.602,132.743 75.221 C 132.743 85.841,133.274 88.496,135.398 88.496 C 137.522 88.496,138.053 85.841,138.053 75.221 C 138.053 63.127,138.368 61.947,141.593 61.947 C 143.540 61.947,145.133 61.150,145.133 60.177 C 145.133 59.204,143.540 58.407,141.593 58.407 C 137.005 58.407,136.802 51.963,141.344 50.522 C 149.256 48.010,150.442 50.564,150.442 70.101 C 150.442 85.272,150.908 88.496,153.097 88.496 C 155.310 88.496,155.752 84.956,155.752 67.257 L 155.752 46.018 147.029 46.018 C 141.459 46.018,137.301 47.023,135.525 48.799 M83.186 68.142 C 83.186 85.054,83.635 88.496,85.841 88.496 C 88.047 88.496,88.496 85.054,88.496 68.142 C 88.496 51.229,88.047 47.788,85.841 47.788 C 83.635 47.788,83.186 51.229,83.186 68.142 M99.115 73.599 C 99.115 92.041,103.200 94.373,104.066 76.426 C 105.047 56.124,116.814 56.846,116.814 77.208 C 116.814 86.061,117.387 88.496,119.469 88.496 C 123.361 88.496,123.252 65.098,119.343 61.188 C 116.133 57.979,110.990 57.611,106.078 60.239 C 103.718 61.502,102.655 61.502,102.655 60.239 C 102.655 59.232,101.858 58.407,100.885 58.407 C 99.842 58.407,99.115 64.651,99.115 73.599 M164.602 69.518 C 164.602 85.865,170.454 92.119,180.647 86.663 C 183.007 85.400,184.071 85.400,184.071 86.663 C 184.071 87.671,185.265 88.496,186.726 88.496 C 188.877 88.496,189.381 85.644,189.381 73.451 C 189.381 61.259,188.877 58.407,186.726 58.407 C 184.664 58.407,184.071 60.756,184.071 68.926 C 184.071 77.690,183.435 79.891,180.257 82.116 C 173.246 87.027,169.912 83.074,169.912 69.849 C 169.912 60.858,169.343 58.407,167.257 58.407 C 165.179 58.407,164.602 60.822,164.602 69.518 M200.805 62.751 C 188.706 74.850,202.159 93.669,218.439 87.421 C 223.603 85.440,221.448 82.702,215.639 83.863 C 209.442 85.103,201.770 81.327,201.770 77.039 C 201.770 75.205,204.560 74.367,211.947 73.982 C 221.573 73.480,222.098 73.217,221.641 69.121 C 220.451 58.463,208.689 54.867,200.805 62.751 M230.088 73.451 C 230.088 92.483,234.864 96.012,235.756 77.640 C 236.769 56.780,249.558 57.116,249.558 78.003 C 249.558 86.150,250.151 88.496,252.212 88.496 C 254.290 88.496,254.867 86.081,254.867 77.385 C 254.867 61.038,249.015 54.784,238.822 60.239 C 236.462 61.502,235.398 61.502,235.398 60.239 C 235.398 59.232,234.204 58.407,232.743 58.407 C 230.592 58.407,230.088 61.259,230.088 73.451 M265.615 63.071 C 258.168 72.538,263.039 88.496,273.376 88.496 C 279.420 88.496,283.186 86.724,283.186 83.881 C 283.186 80.972,282.271 80.834,278.033 83.102 C 272.980 85.806,267.257 80.680,267.257 73.451 C 267.257 66.222,272.980 61.097,278.033 63.801 C 282.271 66.069,283.186 65.930,283.186 63.021 C 283.186 56.855,270.476 56.891,265.615 63.071 M292.840 62.751 C 280.742 74.850,294.194 93.669,310.475 87.421 C 315.638 85.440,313.483 82.702,307.675 83.863 C 301.478 85.103,293.805 81.327,293.805 77.039 C 293.805 75.205,296.595 74.367,303.982 73.982 C 313.609 73.480,314.133 73.217,313.676 69.121 C 312.486 58.463,300.724 54.867,292.840 62.751 M214.918 64.728 C 219.462 69.272,218.160 70.796,209.735 70.796 C 205.354 70.796,201.770 70.057,201.770 69.153 C 201.770 66.680,207.002 61.947,209.735 61.947 C 211.056 61.947,213.388 63.198,214.918 64.728 M306.953 64.728 C 311.497 69.272,310.195 70.796,301.770 70.796 C 297.389 70.796,293.805 70.057,293.805 69.153 C 293.805 66.680,299.037 61.947,301.770 61.947 C 303.091 61.947,305.424 63.198,306.953 64.728 M353.982 172.571 C 353.982 175.028,352.987 178.725,351.770 180.786 C 350.000 183.784,350.000 184.694,351.770 185.334 C 352.987 185.775,353.982 188.459,353.982 191.298 C 353.982 197.709,353.821 197.727,369.867 189.513 L 383.097 182.741 368.540 175.421 L 353.982 168.102 353.982 172.571 M175.221 174.336 C 175.221 176.631,176.857 177.080,183.628 176.646 C 188.252 176.349,192.035 175.310,192.035 174.336 C 192.035 173.363,188.252 172.324,183.628 172.027 C 176.857 171.592,175.221 172.042,175.221 174.336 M198.230 174.336 C 198.230 176.631,199.866 177.080,206.637 176.646 C 211.261 176.349,215.044 175.310,215.044 174.336 C 215.044 173.363,211.261 172.324,206.637 172.027 C 199.866 171.592,198.230 172.042,198.230 174.336 M365.008 179.856 L 370.548 182.721 366.247 185.103 C 359.573 188.800,357.522 188.142,357.522 182.301 C 357.522 176.129,357.693 176.073,365.008 179.856 M31.858 183.186 C 31.858 185.152,33.923 185.841,39.823 185.841 C 45.723 185.841,47.788 185.152,47.788 183.186 C 47.788 181.219,45.723 180.531,39.823 180.531 C 33.923 180.531,31.858 181.219,31.858 183.186 M63.717 183.186 C 63.717 185.152,65.782 185.841,71.681 185.841 C 77.581 185.841,79.646 185.152,79.646 183.186 C 79.646 181.219,77.581 180.531,71.681 180.531 C 65.782 180.531,63.717 181.219,63.717 183.186 M95.575 183.186 C 95.575 185.152,97.640 185.841,103.540 185.841 C 109.440 185.841,111.504 185.152,111.504 183.186 C 111.504 181.219,109.440 180.531,103.540 180.531 C 97.640 180.531,95.575 181.219,95.575 183.186 M127.434 183.186 C 127.434 185.152,129.499 185.841,135.398 185.841 C 141.298 185.841,143.363 185.152,143.363 183.186 C 143.363 181.219,141.298 180.531,135.398 180.531 C 129.499 180.531,127.434 181.219,127.434 183.186 M159.292 183.186 C 159.292 185.152,161.357 185.841,167.257 185.841 C 173.156 185.841,175.221 185.152,175.221 183.186 C 175.221 181.219,173.156 180.531,167.257 180.531 C 161.357 180.531,159.292 181.219,159.292 183.186 M191.150 183.186 C 191.150 185.152,193.215 185.841,199.115 185.841 C 205.015 185.841,207.080 185.152,207.080 183.186 C 207.080 181.219,205.015 180.531,199.115 180.531 C 193.215 180.531,191.150 181.219,191.150 183.186 M223.009 183.186 C 223.009 185.152,225.074 185.841,230.973 185.841 C 236.873 185.841,238.938 185.152,238.938 183.186 C 238.938 181.219,236.873 180.531,230.973 180.531 C 225.074 180.531,223.009 181.219,223.009 183.186 M254.867 183.186 C 254.867 185.152,256.932 185.841,262.832 185.841 C 268.732 185.841,270.796 185.152,270.796 183.186 C 270.796 181.219,268.732 180.531,262.832 180.531 C 256.932 180.531,254.867 181.219,254.867 183.186 M286.726 183.186 C 286.726 185.152,288.791 185.841,294.690 185.841 C 300.590 185.841,302.655 185.152,302.655 183.186 C 302.655 181.219,300.590 180.531,294.690 180.531 C 288.791 180.531,286.726 181.219,286.726 183.186 M318.584 183.186 C 318.584 185.152,320.649 185.841,326.549 185.841 C 332.448 185.841,334.513 185.152,334.513 183.186 C 334.513 181.219,332.448 180.531,326.549 180.531 C 320.649 180.531,318.584 181.219,318.584 183.186 " stroke="none" fill="#000000" fill-rule="evenodd"></path></g></svg>