<svg id="svg" xmlns="http://www.w3.org/2000/svg" xmlns:xlink="http://www.w3.org/1999/xlink" width="400" height="209.16030534351142" viewBox="0, 0, 400,209.16030534351142" version="1.1"><g id="svgg"><path id="path0" d="M139.804 51.254 C 138.484 52.574,137.405 54.978,137.405 56.598 C 137.405 58.217,136.374 59.542,135.115 59.542 C 133.855 59.542,132.824 60.229,132.824 61.069 C 132.824 61.908,133.855 62.595,135.115 62.595 C 136.947 62.595,137.405 64.885,137.405 74.046 C 137.405 83.206,137.863 85.496,139.695 85.496 C 141.527 85.496,141.985 83.206,141.985 74.046 C 141.985 63.613,142.256 62.595,145.038 62.595 C 146.718 62.595,148.092 61.908,148.092 61.069 C 148.092 60.229,146.718 59.542,145.038 59.542 C 141.081 59.542,140.905 53.984,144.823 52.740 C 151.648 50.574,152.672 52.777,152.672 69.629 C 152.672 82.715,153.073 85.496,154.962 85.496 C 156.870 85.496,157.252 82.443,157.252 67.176 L 157.252 48.855 149.727 48.855 C 144.923 48.855,141.336 49.722,139.804 51.254 M94.656 67.939 C 94.656 82.528,95.044 85.496,96.947 85.496 C 98.849 85.496,99.237 82.528,99.237 67.939 C 99.237 53.350,98.849 50.382,96.947 50.382 C 95.044 50.382,94.656 53.350,94.656 67.939 M108.397 72.646 C 108.397 88.554,111.920 90.566,112.668 75.085 C 113.513 57.573,123.664 58.196,123.664 75.759 C 123.664 83.397,124.158 85.496,125.954 85.496 C 129.311 85.496,129.218 65.314,125.845 61.941 C 123.077 59.173,118.640 58.855,114.403 61.122 C 112.368 62.212,111.450 62.212,111.450 61.122 C 111.450 60.253,110.763 59.542,109.924 59.542 C 109.024 59.542,108.397 64.928,108.397 72.646 M164.885 69.126 C 164.885 83.227,169.934 88.621,178.726 83.916 C 180.762 82.826,181.679 82.826,181.679 83.916 C 181.679 84.785,182.710 85.496,183.969 85.496 C 185.825 85.496,186.260 83.036,186.260 72.519 C 186.260 62.002,185.825 59.542,183.969 59.542 C 182.191 59.542,181.679 61.568,181.679 68.616 C 181.679 76.176,181.131 78.074,178.390 79.993 C 172.342 84.230,169.466 80.820,169.466 69.412 C 169.466 61.656,168.975 59.542,167.176 59.542 C 165.383 59.542,164.885 61.625,164.885 69.126 M196.114 63.289 C 185.678 73.725,197.282 89.958,211.326 84.569 C 215.779 82.860,213.921 80.498,208.910 81.500 C 203.565 82.569,196.947 79.313,196.947 75.614 C 196.947 74.032,199.353 73.309,205.725 72.977 C 214.029 72.544,214.481 72.317,214.087 68.784 C 213.061 59.590,202.915 56.489,196.114 63.289 M221.374 72.519 C 221.374 88.935,225.494 91.980,226.263 76.133 C 227.136 58.139,238.168 58.428,238.168 76.445 C 238.168 83.473,238.680 85.496,240.458 85.496 C 242.250 85.496,242.748 83.413,242.748 75.912 C 242.748 61.811,237.700 56.417,228.907 61.122 C 226.872 62.212,225.954 62.212,225.954 61.122 C 225.954 60.253,224.924 59.542,223.664 59.542 C 221.808 59.542,221.374 62.002,221.374 72.519 M252.019 63.565 C 245.596 71.731,249.797 85.496,258.713 85.496 C 263.927 85.496,267.176 83.968,267.176 81.516 C 267.176 79.007,266.386 78.887,262.731 80.843 C 258.372 83.176,253.435 78.755,253.435 72.519 C 253.435 66.283,258.372 61.862,262.731 64.195 C 266.386 66.151,267.176 66.032,267.176 63.522 C 267.176 58.203,256.212 58.234,252.019 63.565 M275.503 63.289 C 265.067 73.725,276.671 89.958,290.715 84.569 C 295.169 82.860,293.310 80.498,288.300 81.500 C 282.954 82.569,276.336 79.313,276.336 75.614 C 276.336 74.032,278.742 73.309,285.115 72.977 C 293.418 72.544,293.871 72.317,293.476 68.784 C 292.450 59.590,282.304 56.489,275.503 63.289 M208.288 64.995 C 212.207 68.914,211.084 70.229,203.817 70.229 C 200.038 70.229,196.947 69.591,196.947 68.811 C 196.947 66.679,201.459 62.595,203.817 62.595 C 204.956 62.595,206.968 63.675,208.288 64.995 M287.677 64.995 C 291.597 68.914,290.474 70.229,283.206 70.229 C 279.427 70.229,276.336 69.591,276.336 68.811 C 276.336 66.679,280.849 62.595,283.206 62.595 C 284.346 62.595,286.358 63.675,287.677 64.995 M328.244 158.019 C 328.244 160.139,327.385 163.328,326.336 165.106 C 324.809 167.691,324.809 168.476,326.336 169.029 C 327.385 169.409,328.244 171.724,328.244 174.173 C 328.244 179.703,328.105 179.719,341.946 172.633 L 353.358 166.791 340.801 160.478 L 328.244 154.164 328.244 158.019 M183.206 159.542 C 183.206 161.272,185.072 161.832,190.840 161.832 C 196.607 161.832,198.473 161.272,198.473 159.542 C 198.473 157.812,196.607 157.252,190.840 157.252 C 185.072 157.252,183.206 157.812,183.206 159.542 M337.755 164.303 L 342.534 166.774 338.824 168.829 C 333.067 172.019,331.298 171.451,331.298 166.412 C 331.298 161.089,331.445 161.040,337.755 164.303 M50.382 167.176 C 50.382 168.872,52.163 169.466,57.252 169.466 C 62.341 169.466,64.122 168.872,64.122 167.176 C 64.122 165.479,62.341 164.885,57.252 164.885 C 52.163 164.885,50.382 165.479,50.382 167.176 M77.863 167.176 C 77.863 168.872,79.644 169.466,84.733 169.466 C 89.822 169.466,91.603 168.872,91.603 167.176 C 91.603 165.479,89.822 164.885,84.733 164.885 C 79.644 164.885,77.863 165.479,77.863 167.176 M105.344 167.176 C 105.344 168.872,107.125 169.466,112.214 169.466 C 117.303 169.466,119.084 168.872,119.084 167.176 C 119.084 165.479,117.303 164.885,112.214 164.885 C 107.125 164.885,105.344 165.479,105.344 167.176 M132.824 167.176 C 132.824 168.872,134.606 169.466,139.695 169.466 C 144.784 169.466,146.565 168.872,146.565 167.176 C 146.565 165.479,144.784 164.885,139.695 164.885 C 134.606 164.885,132.824 165.479,132.824 167.176 M160.305 167.176 C 160.305 168.872,162.087 169.466,167.176 169.466 C 172.265 169.466,174.046 168.872,174.046 167.176 C 174.046 165.479,172.265 164.885,167.176 164.885 C 162.087 164.885,160.305 165.479,160.305 167.176 M187.786 167.176 C 187.786 168.872,189.567 169.466,194.656 169.466 C 199.746 169.466,201.527 168.872,201.527 167.176 C 201.527 165.479,199.746 164.885,194.656 164.885 C 189.567 164.885,187.786 165.479,187.786 167.176 M215.267 167.176 C 215.267 168.872,217.048 169.466,222.137 169.466 C 227.226 169.466,229.008 168.872,229.008 167.176 C 229.008 165.479,227.226 164.885,222.137 164.885 C 217.048 164.885,215.267 165.479,215.267 167.176 M242.748 167.176 C 242.748 168.872,244.529 169.466,249.618 169.466 C 254.707 169.466,256.489 168.872,256.489 167.176 C 256.489 165.479,254.707 164.885,249.618 164.885 C 244.529 164.885,242.748 165.479,242.748 167.176 M270.229 167.176 C 270.229 168.872,272.010 169.466,277.099 169.466 C 282.188 169.466,283.969 168.872,283.969 167.176 C 283.969 165.479,282.188 164.885,277.099 164.885 C 272.010 164.885,270.229 165.479,270.229 167.176 M297.710 167.176 C 297.710 168.872,299.491 169.466,304.580 169.466 C 309.669 169.466,311.450 168.872,311.450 167.176 C 311.450 165.479,309.669 164.885,304.580 164.885 C 299.491 164.885,297.710 165.479,297.710 167.176 " stroke="none" fill="#000000" fill-rule="evenodd"></path></g></svg>