<svg id="svg" xmlns="http://www.w3.org/2000/svg" xmlns:xlink="http://www.w3.org/1999/xlink" width="400" height="190.2439024390244" viewBox="0, 0, 400,190.2439024390244" version="1.1"><g id="svgg"><path id="path0" d="M140.767 33.449 C 139.361 34.855,138.211 37.355,138.211 39.005 C 138.211 40.655,137.297 42.432,136.179 42.954 C 134.553 43.713,134.553 44.092,136.179 44.851 C 137.495 45.465,138.211 49.476,138.211 56.233 C 138.211 64.423,138.736 66.667,140.650 66.667 C 142.568 66.667,143.089 64.408,143.089 56.098 C 143.089 47.787,143.611 45.528,145.528 45.528 C 146.870 45.528,147.967 44.797,147.967 43.902 C 147.967 43.008,146.819 42.276,145.415 42.276 C 143.699 42.276,143.033 41.079,143.383 38.618 C 143.763 35.938,144.990 34.959,147.967 34.959 C 151.994 34.959,152.037 35.111,152.498 50.813 C 152.868 63.435,153.448 66.667,155.343 66.667 C 157.289 66.667,157.724 63.399,157.724 48.780 L 157.724 30.894 150.523 30.894 C 146.144 30.894,142.320 31.896,140.767 33.449 M95.935 49.593 C 95.935 63.686,96.361 66.667,98.374 66.667 C 100.387 66.667,100.813 63.686,100.813 49.593 C 100.813 35.501,100.387 32.520,98.374 32.520 C 96.361 32.520,95.935 35.501,95.935 49.593 M108.943 54.472 C 108.943 64.228,109.431 66.667,111.382 66.667 C 113.253 66.667,113.821 64.595,113.821 57.781 C 113.821 50.467,114.415 48.577,117.177 47.099 C 122.572 44.212,125.203 47.760,125.203 57.923 C 125.203 64.611,125.777 66.667,127.642 66.667 C 129.444 66.667,130.081 64.781,130.081 59.455 C 130.081 45.499,125.654 40.166,116.833 43.495 C 114.230 44.478,112.195 44.595,112.195 43.761 C 112.195 42.945,111.463 42.276,110.569 42.276 C 109.630 42.276,108.943 47.425,108.943 54.472 M166.186 53.082 C 166.753 65.833,169.178 68.580,177.194 65.554 C 179.900 64.533,182.114 64.365,182.114 65.182 C 182.114 65.999,182.846 66.667,183.740 66.667 C 184.679 66.667,185.366 61.518,185.366 54.472 C 185.366 47.425,184.679 42.276,183.740 42.276 C 182.846 42.276,182.114 45.822,182.114 50.154 C 182.114 58.001,178.892 63.415,174.222 63.415 C 171.550 63.415,169.106 56.373,169.106 48.675 C 169.106 45.156,168.341 42.276,167.405 42.276 C 166.345 42.276,165.886 46.341,166.186 53.082 M195.185 45.835 C 185.550 56.177,196.857 70.890,210.436 65.680 C 214.981 63.936,213.231 61.481,208.225 62.581 C 202.774 63.778,196.748 61.198,196.748 57.666 C 196.748 55.892,198.822 55.285,204.878 55.285 C 212.402 55.285,213.008 54.990,213.008 51.336 C 213.008 42.574,201.525 39.030,195.185 45.835 M221.138 54.472 C 221.138 61.518,221.825 66.667,222.764 66.667 C 223.659 66.667,224.390 63.122,224.390 58.789 C 224.390 53.025,225.247 50.135,227.582 48.022 C 233.126 43.005,235.772 45.861,235.772 56.860 C 235.772 64.493,236.313 66.667,238.211 66.667 C 241.744 66.667,241.647 48.383,238.095 44.832 C 235.063 41.799,229.078 41.491,226.341 44.228 C 224.824 45.745,224.390 45.745,224.390 44.228 C 224.390 43.154,223.659 42.276,222.764 42.276 C 221.825 42.276,221.138 47.425,221.138 54.472 M250.407 45.528 C 246.155 49.780,245.998 60.238,250.128 63.976 C 254.751 68.160,265.041 67.116,265.041 62.463 C 265.041 60.681,264.233 60.600,261.024 62.063 C 255.631 64.520,252.033 61.482,252.033 54.472 C 252.033 47.461,255.631 44.423,261.024 46.881 C 264.233 48.343,265.041 48.262,265.041 46.481 C 265.041 41.517,255.066 40.869,250.407 45.528 M273.171 45.528 C 263.222 55.477,274.929 70.882,288.485 65.680 C 293.030 63.936,291.280 61.481,286.274 62.581 C 280.822 63.778,274.797 61.198,274.797 57.666 C 274.797 55.892,276.871 55.285,282.927 55.285 C 290.372 55.285,291.057 54.963,291.057 51.472 C 291.057 43.092,279.461 39.239,273.171 45.528 M207.805 47.480 C 211.166 50.841,209.975 52.033,203.252 52.033 C 199.675 52.033,196.748 51.447,196.748 50.732 C 196.748 48.535,200.507 45.528,203.252 45.528 C 204.683 45.528,206.732 46.407,207.805 47.480 M286.179 48.780 C 287.786 51.783,287.415 52.033,281.358 52.033 C 274.581 52.033,273.381 50.847,276.748 47.480 C 279.709 44.519,284.232 45.142,286.179 48.780 M336.585 133.315 C 336.585 140.480,337.134 146.305,337.805 146.261 C 338.476 146.217,344.494 143.381,351.179 139.959 L 363.333 133.737 349.959 127.013 L 336.585 120.289 336.585 133.315 M346.714 131.087 L 351.804 133.719 347.853 135.908 C 341.721 139.304,339.837 138.699,339.837 133.333 C 339.837 127.663,339.994 127.612,346.714 131.087 M45.528 134.146 C 45.528 135.772,47.154 136.585,50.407 136.585 C 53.659 136.585,55.285 135.772,55.285 134.146 C 55.285 132.520,53.659 131.707,50.407 131.707 C 47.154 131.707,45.528 132.520,45.528 134.146 M65.041 134.146 C 65.041 135.772,66.667 136.585,69.919 136.585 C 73.171 136.585,74.797 135.772,74.797 134.146 C 74.797 132.520,73.171 131.707,69.919 131.707 C 66.667 131.707,65.041 132.520,65.041 134.146 M84.553 134.146 C 84.553 135.772,86.179 136.585,89.431 136.585 C 92.683 136.585,94.309 135.772,94.309 134.146 C 94.309 132.520,92.683 131.707,89.431 131.707 C 86.179 131.707,84.553 132.520,84.553 134.146 M104.065 134.146 C 104.065 135.772,105.691 136.585,108.943 136.585 C 112.195 136.585,113.821 135.772,113.821 134.146 C 113.821 132.520,112.195 131.707,108.943 131.707 C 105.691 131.707,104.065 132.520,104.065 134.146 M123.577 134.146 C 123.577 135.772,125.203 136.585,128.455 136.585 C 131.707 136.585,133.333 135.772,133.333 134.146 C 133.333 132.520,131.707 131.707,128.455 131.707 C 125.203 131.707,123.577 132.520,123.577 134.146 M143.089 134.146 C 143.089 135.772,144.715 136.585,147.967 136.585 C 151.220 136.585,152.846 135.772,152.846 134.146 C 152.846 132.520,151.220 131.707,147.967 131.707 C 144.715 131.707,143.089 132.520,143.089 134.146 M162.602 134.146 C 162.602 135.772,164.228 136.585,167.480 136.585 C 170.732 136.585,172.358 135.772,172.358 134.146 C 172.358 132.520,170.732 131.707,167.480 131.707 C 164.228 131.707,162.602 132.520,162.602 134.146 M182.114 134.146 C 182.114 135.772,183.740 136.585,186.992 136.585 C 190.244 136.585,191.870 135.772,191.870 134.146 C 191.870 132.520,190.244 131.707,186.992 131.707 C 183.740 131.707,182.114 132.520,182.114 134.146 M201.626 134.146 C 201.626 135.772,203.252 136.585,206.504 136.585 C 209.756 136.585,211.382 135.772,211.382 134.146 C 211.382 132.520,209.756 131.707,206.504 131.707 C 203.252 131.707,201.626 132.520,201.626 134.146 M221.138 134.146 C 221.138 135.772,222.764 136.585,226.016 136.585 C 229.268 136.585,230.894 135.772,230.894 134.146 C 230.894 132.520,229.268 131.707,226.016 131.707 C 222.764 131.707,221.138 132.520,221.138 134.146 M240.650 134.146 C 240.650 135.772,242.276 136.585,245.528 136.585 C 248.780 136.585,250.407 135.772,250.407 134.146 C 250.407 132.520,248.780 131.707,245.528 131.707 C 242.276 131.707,240.650 132.520,240.650 134.146 M260.163 134.146 C 260.163 135.772,261.789 136.585,265.041 136.585 C 268.293 136.585,269.919 135.772,269.919 134.146 C 269.919 132.520,268.293 131.707,265.041 131.707 C 261.789 131.707,260.163 132.520,260.163 134.146 M279.675 134.146 C 279.675 135.772,281.301 136.585,284.553 136.585 C 287.805 136.585,289.431 135.772,289.431 134.146 C 289.431 132.520,287.805 131.707,284.553 131.707 C 281.301 131.707,279.675 132.520,279.675 134.146 M299.187 134.146 C 299.187 135.772,300.813 136.585,304.065 136.585 C 307.317 136.585,308.943 135.772,308.943 134.146 C 308.943 132.520,307.317 131.707,304.065 131.707 C 300.813 131.707,299.187 132.520,299.187 134.146 M318.699 134.146 C 318.699 135.772,320.325 136.585,323.577 136.585 C 326.829 136.585,328.455 135.772,328.455 134.146 C 328.455 132.520,326.829 131.707,323.577 131.707 C 320.325 131.707,318.699 132.520,318.699 134.146 " stroke="none" fill="#000000" fill-rule="evenodd"></path></g></svg>