<svg id="svg" xmlns="http://www.w3.org/2000/svg" xmlns:xlink="http://www.w3.org/1999/xlink" width="400" height="188.0597014925373" viewBox="0, 0, 400,188.0597014925373" version="1.1"><g id="svgg"><path id="path0" d="M136.674 27.719 C 135.384 29.009,134.328 31.359,134.328 32.942 C 134.328 34.526,133.321 35.821,132.090 35.821 C 130.858 35.821,129.851 36.493,129.851 37.313 C 129.851 38.134,130.858 38.806,132.090 38.806 C 133.881 38.806,134.328 41.045,134.328 50.000 C 134.328 58.955,134.776 61.194,136.567 61.194 C 138.358 61.194,138.806 58.955,138.806 50.000 C 138.806 39.801,139.071 38.806,141.791 38.806 C 143.433 38.806,144.776 38.134,144.776 37.313 C 144.776 36.493,143.433 35.821,141.791 35.821 C 137.922 35.821,137.751 30.387,141.581 29.171 C 148.253 27.054,149.254 29.207,149.254 45.682 C 149.254 58.475,149.646 61.194,151.493 61.194 C 153.358 61.194,153.731 58.209,153.731 43.284 L 153.731 25.373 146.375 25.373 C 141.678 25.373,138.171 26.221,136.674 27.719 M92.537 44.030 C 92.537 58.292,92.916 61.194,94.776 61.194 C 96.636 61.194,97.015 58.292,97.015 44.030 C 97.015 29.768,96.636 26.866,94.776 26.866 C 92.916 26.866,92.537 29.768,92.537 44.030 M105.970 48.632 C 105.970 64.183,109.415 66.150,110.145 51.016 C 110.972 33.896,120.896 34.505,120.896 51.675 C 120.896 59.141,121.378 61.194,123.134 61.194 C 126.416 61.194,126.325 41.463,123.028 38.166 C 120.321 35.460,115.984 35.149,111.842 37.366 C 109.852 38.431,108.955 38.431,108.955 37.366 C 108.955 36.516,108.284 35.821,107.463 35.821 C 106.584 35.821,105.970 41.086,105.970 48.632 M161.194 45.190 C 161.194 58.976,166.129 64.249,174.725 59.649 C 176.715 58.584,177.612 58.584,177.612 59.649 C 177.612 60.499,178.619 61.194,179.851 61.194 C 181.665 61.194,182.090 58.789,182.090 48.507 C 182.090 38.226,181.665 35.821,179.851 35.821 C 178.112 35.821,177.612 37.802,177.612 44.691 C 177.612 52.082,177.075 53.938,174.396 55.815 C 168.483 59.956,165.672 56.622,165.672 45.470 C 165.672 37.888,165.192 35.821,163.433 35.821 C 161.681 35.821,161.194 37.857,161.194 45.190 M191.723 39.484 C 181.521 49.687,192.865 65.556,206.594 60.288 C 210.948 58.617,209.131 56.308,204.233 57.288 C 199.007 58.333,192.537 55.149,192.537 51.533 C 192.537 49.987,194.890 49.280,201.119 48.955 C 209.237 48.532,209.679 48.310,209.294 44.856 C 208.291 35.868,198.372 32.836,191.723 39.484 M216.418 48.507 C 216.418 64.556,220.445 67.533,221.197 52.040 C 222.051 34.449,232.836 34.732,232.836 52.345 C 232.836 59.216,233.336 61.194,235.075 61.194 C 236.827 61.194,237.313 59.158,237.313 51.825 C 237.313 38.039,232.378 32.766,223.782 37.366 C 221.792 38.431,220.896 38.431,220.896 37.366 C 220.896 36.516,219.888 35.821,218.657 35.821 C 216.842 35.821,216.418 38.226,216.418 48.507 M246.377 39.754 C 240.097 47.737,244.205 61.194,252.921 61.194 C 258.018 61.194,261.194 59.700,261.194 57.303 C 261.194 54.850,260.422 54.733,256.849 56.645 C 252.588 58.926,247.761 54.604,247.761 48.507 C 247.761 42.411,252.588 38.089,256.849 40.369 C 260.422 42.282,261.194 42.165,261.194 39.712 C 261.194 34.512,250.476 34.542,246.377 39.754 M269.335 39.484 C 259.133 49.687,270.477 65.556,284.206 60.288 C 288.560 58.617,286.743 56.308,281.845 57.288 C 276.619 58.333,270.149 55.149,270.149 51.533 C 270.149 49.987,272.502 49.280,278.731 48.955 C 286.849 48.532,287.291 48.310,286.906 44.856 C 285.903 35.868,275.984 32.836,269.335 39.484 M203.625 41.151 C 207.456 44.983,206.358 46.269,199.254 46.269 C 195.560 46.269,192.537 45.645,192.537 44.883 C 192.537 42.798,196.949 38.806,199.254 38.806 C 200.368 38.806,202.335 39.861,203.625 41.151 M281.237 41.151 C 285.068 44.983,283.970 46.269,276.866 46.269 C 273.172 46.269,270.149 45.645,270.149 44.883 C 270.149 42.798,274.561 38.806,276.866 38.806 C 277.980 38.806,279.947 39.861,281.237 41.151 M168.657 123.881 C 168.657 129.709,168.532 129.851,163.433 129.851 C 159.784 129.851,158.209 130.526,158.209 132.090 C 158.209 133.653,159.784 134.328,163.433 134.328 C 167.081 134.328,168.657 135.004,168.657 136.567 C 168.657 138.184,166.998 138.806,162.687 138.806 C 158.375 138.806,156.716 139.428,156.716 141.045 C 156.716 142.662,158.375 143.284,162.687 143.284 C 165.970 143.284,168.657 143.955,168.657 144.776 C 168.657 145.597,169.664 146.269,170.896 146.269 C 172.507 146.269,173.134 144.620,173.134 140.389 C 173.134 134.671,173.289 134.496,178.731 134.045 C 181.810 133.791,184.328 132.910,184.328 132.090 C 184.328 131.269,181.810 130.389,178.731 130.134 C 173.289 129.683,173.134 129.508,173.134 123.790 C 173.134 119.559,172.507 117.910,170.896 117.910 C 169.279 117.910,168.657 119.569,168.657 123.881 M200.995 118.905 C 200.448 119.453,200.000 122.139,200.000 124.876 C 200.000 129.566,199.701 129.851,194.776 129.851 C 191.128 129.851,189.552 130.526,189.552 132.090 C 189.552 133.653,191.128 134.328,194.776 134.328 C 199.876 134.328,200.000 134.471,200.000 140.299 C 200.000 144.610,200.622 146.269,202.239 146.269 C 203.856 146.269,204.478 144.610,204.478 140.299 L 204.478 134.328 210.448 134.328 C 214.760 134.328,216.418 133.706,216.418 132.090 C 216.418 130.473,214.760 129.851,210.448 129.851 L 204.478 129.851 204.478 123.881 C 204.478 118.278,203.302 116.599,200.995 118.905 M320.896 132.093 C 320.896 134.166,320.056 137.283,319.030 139.021 C 317.537 141.549,317.537 142.316,319.030 142.857 C 320.056 143.228,320.896 145.491,320.896 147.886 C 320.896 153.292,320.759 153.307,334.291 146.380 L 345.447 140.669 333.171 134.497 L 320.896 128.325 320.896 132.093 M330.193 138.237 L 334.865 140.653 331.238 142.661 C 325.610 145.779,323.881 145.224,323.881 140.299 C 323.881 135.094,324.025 135.047,330.193 138.237 M49.254 141.045 C 49.254 142.703,50.995 143.284,55.970 143.284 C 60.945 143.284,62.687 142.703,62.687 141.045 C 62.687 139.386,60.945 138.806,55.970 138.806 C 50.995 138.806,49.254 139.386,49.254 141.045 M76.119 141.045 C 76.119 142.703,77.861 143.284,82.836 143.284 C 87.811 143.284,89.552 142.703,89.552 141.045 C 89.552 139.386,87.811 138.806,82.836 138.806 C 77.861 138.806,76.119 139.386,76.119 141.045 M102.985 141.045 C 102.985 142.703,104.726 143.284,109.701 143.284 C 114.677 143.284,116.418 142.703,116.418 141.045 C 116.418 139.386,114.677 138.806,109.701 138.806 C 104.726 138.806,102.985 139.386,102.985 141.045 M129.851 141.045 C 129.851 142.703,131.592 143.284,136.567 143.284 C 141.542 143.284,143.284 142.703,143.284 141.045 C 143.284 139.386,141.542 138.806,136.567 138.806 C 131.592 138.806,129.851 139.386,129.851 141.045 M183.582 141.045 C 183.582 142.703,185.323 143.284,190.299 143.284 C 195.274 143.284,197.015 142.703,197.015 141.045 C 197.015 139.386,195.274 138.806,190.299 138.806 C 185.323 138.806,183.582 139.386,183.582 141.045 M210.448 141.045 C 210.448 142.703,212.189 143.284,217.164 143.284 C 222.139 143.284,223.881 142.703,223.881 141.045 C 223.881 139.386,222.139 138.806,217.164 138.806 C 212.189 138.806,210.448 139.386,210.448 141.045 M237.313 141.045 C 237.313 142.703,239.055 143.284,244.030 143.284 C 249.005 143.284,250.746 142.703,250.746 141.045 C 250.746 139.386,249.005 138.806,244.030 138.806 C 239.055 138.806,237.313 139.386,237.313 141.045 M264.179 141.045 C 264.179 142.703,265.920 143.284,270.896 143.284 C 275.871 143.284,277.612 142.703,277.612 141.045 C 277.612 139.386,275.871 138.806,270.896 138.806 C 265.920 138.806,264.179 139.386,264.179 141.045 M291.045 141.045 C 291.045 142.703,292.786 143.284,297.761 143.284 C 302.736 143.284,304.478 142.703,304.478 141.045 C 304.478 139.386,302.736 138.806,297.761 138.806 C 292.786 138.806,291.045 139.386,291.045 141.045 " stroke="none" fill="#000000" fill-rule="evenodd"></path></g></svg>