<svg id="svg" xmlns="http://www.w3.org/2000/svg" xmlns:xlink="http://www.w3.org/1999/xlink" width="400" height="189.23076923076923" viewBox="0, 0, 400,189.23076923076923" version="1.1"><g id="svgg"><path id="path0" d="M143.956 28.571 C 142.626 29.901,141.538 32.324,141.538 33.956 C 141.538 35.588,140.500 36.923,139.231 36.923 C 137.962 36.923,136.923 37.615,136.923 38.462 C 136.923 39.308,137.962 40.000,139.231 40.000 C 141.077 40.000,141.538 42.308,141.538 51.538 C 141.538 60.769,142.000 63.077,143.846 63.077 C 145.692 63.077,146.154 60.769,146.154 51.538 C 146.154 41.026,146.427 40.000,149.231 40.000 C 150.923 40.000,152.308 39.308,152.308 38.462 C 152.308 37.615,150.923 36.923,149.231 36.923 C 145.243 36.923,145.066 31.322,149.014 30.069 C 155.891 27.886,156.923 30.106,156.923 47.088 C 156.923 60.275,157.328 63.077,159.231 63.077 C 161.154 63.077,161.538 60.000,161.538 44.615 L 161.538 26.154 153.956 26.154 C 149.114 26.154,145.500 27.028,143.956 28.571 M98.462 45.385 C 98.462 60.085,98.852 63.077,100.769 63.077 C 102.687 63.077,103.077 60.085,103.077 45.385 C 103.077 30.684,102.687 27.692,100.769 27.692 C 98.852 27.692,98.462 30.684,98.462 45.385 M112.308 50.128 C 112.308 66.158,115.858 68.185,116.611 52.585 C 117.464 34.939,127.692 35.566,127.692 53.265 C 127.692 60.961,128.190 63.077,130.000 63.077 C 133.383 63.077,133.288 42.739,129.890 39.341 C 127.100 36.551,122.630 36.231,118.360 38.516 C 116.309 39.613,115.385 39.613,115.385 38.516 C 115.385 37.640,114.692 36.923,113.846 36.923 C 112.940 36.923,112.308 42.350,112.308 50.128 M169.231 46.581 C 169.231 60.790,174.318 66.226,183.178 61.484 C 185.229 60.387,186.154 60.387,186.154 61.484 C 186.154 62.360,187.192 63.077,188.462 63.077 C 190.332 63.077,190.769 60.598,190.769 50.000 C 190.769 39.402,190.332 36.923,188.462 36.923 C 186.669 36.923,186.154 38.965,186.154 46.067 C 186.154 53.685,185.601 55.597,182.839 57.532 C 176.744 61.801,173.846 58.364,173.846 46.869 C 173.846 39.054,173.352 36.923,171.538 36.923 C 169.732 36.923,169.231 39.022,169.231 46.581 M200.699 40.699 C 190.183 51.215,201.876 67.574,216.028 62.143 C 220.516 60.421,218.643 58.041,213.594 59.050 C 208.208 60.128,201.538 56.846,201.538 53.118 C 201.538 51.525,203.964 50.796,210.385 50.461 C 218.752 50.025,219.208 49.796,218.811 46.236 C 217.777 36.972,207.552 33.846,200.699 40.699 M226.154 50.000 C 226.154 66.543,230.305 69.611,231.080 53.641 C 231.961 35.509,243.077 35.801,243.077 53.956 C 243.077 61.038,243.593 63.077,245.385 63.077 C 247.191 63.077,247.692 60.978,247.692 53.419 C 247.692 39.210,242.605 33.774,233.745 38.516 C 231.694 39.613,230.769 39.613,230.769 38.516 C 230.769 37.640,229.731 36.923,228.462 36.923 C 226.591 36.923,226.154 39.402,226.154 50.000 M257.035 40.977 C 250.562 49.206,254.796 63.077,263.780 63.077 C 269.034 63.077,272.308 61.537,272.308 59.066 C 272.308 56.537,271.512 56.417,267.829 58.388 C 263.437 60.739,258.462 56.284,258.462 50.000 C 258.462 43.716,263.437 39.261,267.829 41.612 C 271.512 43.583,272.308 43.463,272.308 40.934 C 272.308 35.574,261.260 35.605,257.035 40.977 M280.699 40.699 C 270.183 51.215,281.876 67.574,296.028 62.143 C 300.516 60.421,298.643 58.041,293.594 59.050 C 288.208 60.128,281.538 56.846,281.538 53.118 C 281.538 51.525,283.964 50.796,290.385 50.461 C 298.752 50.025,299.208 49.796,298.811 46.236 C 297.777 36.972,287.552 33.846,280.699 40.699 M212.967 42.418 C 216.917 46.367,215.785 47.692,208.462 47.692 C 204.654 47.692,201.538 47.049,201.538 46.264 C 201.538 44.115,206.086 40.000,208.462 40.000 C 209.610 40.000,211.637 41.088,212.967 42.418 M292.967 42.418 C 296.917 46.367,295.785 47.692,288.462 47.692 C 284.654 47.692,281.538 47.049,281.538 46.264 C 281.538 44.115,286.086 40.000,288.462 40.000 C 289.610 40.000,291.637 41.088,292.967 42.418 M187.308 112.431 C 182.725 115.100,184.327 116.669,190.755 115.807 C 201.747 114.332,206.899 125.936,196.923 129.702 C 191.746 131.656,189.819 141.538,194.615 141.538 C 196.051 141.538,196.923 140.085,196.923 137.692 C 196.923 135.577,197.647 133.846,198.531 133.846 C 201.655 133.846,207.692 126.242,207.692 122.308 C 207.692 113.683,195.391 107.723,187.308 112.431 M333.846 136.158 C 333.846 138.294,332.981 141.507,331.923 143.299 C 330.385 145.904,330.385 146.695,331.923 147.252 C 332.981 147.635,333.846 149.968,333.846 152.436 C 333.846 158.008,333.706 158.024,347.654 150.884 L 359.153 144.998 346.500 138.635 L 333.846 132.273 333.846 136.158 M343.430 142.490 L 348.245 144.980 344.507 147.051 C 338.706 150.265,336.923 149.692,336.923 144.615 C 336.923 139.251,337.072 139.202,343.430 142.490 M53.846 145.385 C 53.846 147.094,55.641 147.692,60.769 147.692 C 65.897 147.692,67.692 147.094,67.692 145.385 C 67.692 143.675,65.897 143.077,60.769 143.077 C 55.641 143.077,53.846 143.675,53.846 145.385 M81.538 145.385 C 81.538 147.094,83.333 147.692,88.462 147.692 C 93.590 147.692,95.385 147.094,95.385 145.385 C 95.385 143.675,93.590 143.077,88.462 143.077 C 83.333 143.077,81.538 143.675,81.538 145.385 M109.231 145.385 C 109.231 147.094,111.026 147.692,116.154 147.692 C 121.282 147.692,123.077 147.094,123.077 145.385 C 123.077 143.675,121.282 143.077,116.154 143.077 C 111.026 143.077,109.231 143.675,109.231 145.385 M136.923 145.385 C 136.923 147.094,138.718 147.692,143.846 147.692 C 148.974 147.692,150.769 147.094,150.769 145.385 C 150.769 143.675,148.974 143.077,143.846 143.077 C 138.718 143.077,136.923 143.675,136.923 145.385 M164.615 145.385 C 164.615 147.094,166.410 147.692,171.538 147.692 C 176.667 147.692,178.462 147.094,178.462 145.385 C 178.462 143.675,176.667 143.077,171.538 143.077 C 166.410 143.077,164.615 143.675,164.615 145.385 M191.658 146.994 C 191.117 149.148,191.083 151.571,191.582 152.378 C 193.220 155.028,196.923 153.913,196.923 150.769 C 196.923 148.376,197.949 147.692,201.538 147.692 C 204.615 147.692,206.154 146.923,206.154 145.385 C 206.154 140.843,192.831 142.322,191.658 146.994 M220.000 145.385 C 220.000 147.094,221.795 147.692,226.923 147.692 C 232.051 147.692,233.846 147.094,233.846 145.385 C 233.846 143.675,232.051 143.077,226.923 143.077 C 221.795 143.077,220.000 143.675,220.000 145.385 M247.692 145.385 C 247.692 147.094,249.487 147.692,254.615 147.692 C 259.744 147.692,261.538 147.094,261.538 145.385 C 261.538 143.675,259.744 143.077,254.615 143.077 C 249.487 143.077,247.692 143.675,247.692 145.385 M275.385 145.385 C 275.385 147.094,277.179 147.692,282.308 147.692 C 287.436 147.692,289.231 147.094,289.231 145.385 C 289.231 143.675,287.436 143.077,282.308 143.077 C 277.179 143.077,275.385 143.675,275.385 145.385 M303.077 145.385 C 303.077 147.094,304.872 147.692,310.000 147.692 C 315.128 147.692,316.923 147.094,316.923 145.385 C 316.923 143.675,315.128 143.077,310.000 143.077 C 304.872 143.077,303.077 143.675,303.077 145.385 " stroke="none" fill="#000000" fill-rule="evenodd"></path></g></svg>