<svg id="svg" xmlns="http://www.w3.org/2000/svg" xmlns:xlink="http://www.w3.org/1999/xlink" width="400" height="174.1573033707865" viewBox="0, 0, 400,174.1573033707865" version="1.1"><g id="svgg"><path id="path0" d="M192.703 73.315 C 192.436 74.087,189.671 81.780,186.558 90.410 C 180.032 108.504,180.473 106.742,182.479 106.742 C 183.348 106.742,184.812 104.593,185.734 101.966 C 186.655 99.340,189.468 91.503,191.986 84.551 C 195.591 74.591,196.204 71.910,194.875 71.910 C 193.947 71.910,192.970 72.542,192.703 73.315 M80.899 88.202 C 80.899 98.939,81.184 101.124,82.584 101.124 C 83.985 101.124,84.270 98.939,84.270 88.202 C 84.270 77.466,83.985 75.281,82.584 75.281 C 81.184 75.281,80.899 77.466,80.899 88.202 M155.056 79.371 C 155.056 80.384,154.171 81.885,153.090 82.706 C 151.217 84.127,151.217 84.200,153.090 84.234 C 154.733 84.264,155.056 85.343,155.056 90.796 C 155.056 99.676,161.590 105.769,163.829 98.978 C 164.180 97.914,163.776 97.616,162.595 98.069 C 159.799 99.142,158.269 96.118,158.643 90.256 C 158.939 85.612,159.353 84.780,161.517 84.472 C 164.956 83.984,164.732 82.022,161.236 82.022 C 159.176 82.022,158.427 81.423,158.427 79.775 C 158.427 78.527,157.678 77.528,156.742 77.528 C 155.815 77.528,155.056 78.357,155.056 79.371 M241.573 79.682 C 241.573 80.866,240.941 82.092,240.169 82.405 C 239.151 82.818,239.111 83.231,240.024 83.903 C 240.716 84.414,241.510 88.032,241.787 91.943 C 242.311 99.338,243.660 101.382,247.665 100.849 C 248.852 100.691,250.059 99.849,250.346 98.978 C 250.697 97.914,250.293 97.616,249.112 98.069 C 246.315 99.142,244.786 96.118,245.160 90.256 C 245.456 85.612,245.869 84.780,248.034 84.472 C 251.473 83.984,251.248 82.022,247.753 82.022 C 245.693 82.022,244.944 81.423,244.944 79.775 C 244.944 78.527,244.195 77.528,243.258 77.528 C 242.331 77.528,241.573 78.497,241.573 79.682 M297.753 79.682 C 297.753 80.866,297.121 82.092,296.348 82.405 C 295.331 82.818,295.291 83.231,296.203 83.903 C 296.896 84.414,297.690 88.032,297.967 91.943 C 298.491 99.338,299.840 101.382,303.845 100.849 C 305.032 100.691,306.239 99.849,306.526 98.978 C 306.877 97.914,306.473 97.616,305.292 98.069 C 302.495 99.142,300.965 96.118,301.339 90.256 C 301.636 85.612,302.049 84.780,304.213 84.472 C 307.653 83.984,307.428 82.022,303.933 82.022 C 301.873 82.022,301.124 81.423,301.124 79.775 C 301.124 78.527,300.375 77.528,299.438 77.528 C 298.511 77.528,297.753 78.497,297.753 79.682 M91.011 91.573 C 91.011 99.313,91.331 101.124,92.697 101.124 C 94.018 101.124,94.382 99.583,94.382 94.001 C 94.382 87.591,94.650 86.756,97.053 85.661 C 101.010 83.858,102.247 85.856,102.247 94.045 C 102.247 99.674,102.602 101.124,103.980 101.124 C 105.420 101.124,105.657 99.657,105.384 92.439 C 105.015 82.666,101.995 79.534,96.345 83.063 C 94.613 84.145,93.801 84.212,93.497 83.299 C 92.180 79.349,91.011 83.239,91.011 91.573 M112.360 94.944 C 112.360 105.680,112.645 107.865,114.045 107.865 C 115.276 107.865,115.730 106.592,115.730 103.146 C 115.730 99.476,116.030 98.727,117.079 99.775 C 121.353 104.049,128.090 99.184,128.090 91.823 C 128.090 83.698,121.728 78.908,116.938 83.427 C 115.747 84.551,115.346 84.551,114.934 83.427 C 113.351 79.109,112.360 83.544,112.360 94.944 M133.942 90.707 C 134.311 100.480,137.330 103.612,142.981 100.083 C 144.713 99.001,145.525 98.934,145.829 99.847 C 147.146 103.797,148.315 99.907,148.315 91.573 C 148.315 79.491,145.283 77.251,144.717 88.914 C 144.094 101.745,136.975 102.152,136.163 89.403 C 135.501 79.004,133.543 80.153,133.942 90.707 M169.382 83.208 C 165.836 85.324,166.969 89.578,171.910 92.697 C 177.091 95.967,177.169 96.141,174.157 97.753 C 172.547 98.614,171.246 98.600,169.567 97.701 C 166.680 96.157,165.477 97.103,167.393 99.411 C 169.890 102.419,176.707 101.387,178.679 97.702 C 180.282 94.706,178.875 92.258,174.496 90.429 C 169.326 88.269,169.716 84.751,175.098 85.003 C 177.425 85.112,178.611 84.701,178.342 83.880 C 177.780 82.167,171.869 81.723,169.382 83.208 M200.511 84.780 C 194.841 90.450,198.515 101.124,206.137 101.124 C 211.389 101.124,214.623 98.101,215.376 92.490 C 216.573 83.567,206.795 78.496,200.511 84.780 M220.225 89.713 C 220.225 99.845,223.837 103.479,230.411 99.960 C 231.909 99.159,232.584 99.159,232.584 99.960 C 232.584 100.600,233.343 101.124,234.270 101.124 C 235.636 101.124,235.955 99.313,235.955 91.573 C 235.955 83.833,235.636 82.022,234.270 82.022 C 232.961 82.022,232.584 83.514,232.584 88.700 C 232.584 94.264,232.180 95.661,230.163 97.074 C 225.712 100.192,223.596 97.682,223.596 89.286 C 223.596 83.579,223.234 82.022,221.910 82.022 C 220.576 82.022,220.225 83.626,220.225 89.713 M255.056 94.944 C 255.056 105.680,255.341 107.865,256.742 107.865 C 257.972 107.865,258.427 106.592,258.427 103.146 C 258.427 99.476,258.727 98.727,259.775 99.775 C 264.243 104.243,271.348 99.207,271.348 91.573 C 271.348 83.895,266.437 80.062,260.600 83.186 C 259.102 83.987,258.427 83.987,258.427 83.186 C 258.427 82.546,257.669 82.022,256.742 82.022 C 255.341 82.022,255.056 84.207,255.056 94.944 M276.404 89.807 C 276.404 99.890,281.213 104.643,286.433 99.719 C 287.624 98.596,288.024 98.596,288.436 99.719 C 289.882 103.663,291.011 100.091,291.011 91.573 C 291.011 83.833,290.692 82.022,289.326 82.022 C 288.007 82.022,287.640 83.553,287.640 89.056 C 287.640 94.960,287.266 96.323,285.305 97.547 C 281.425 99.970,279.775 97.476,279.775 89.188 C 279.775 83.568,279.412 82.022,278.090 82.022 C 276.754 82.022,276.404 83.637,276.404 89.807 M122.953 86.035 C 127.423 90.505,123.771 99.932,118.501 97.531 C 114.695 95.797,114.525 88.612,118.228 86.019 C 121.250 83.902,120.818 83.900,122.953 86.035 M210.112 86.517 C 215.652 92.057,209.871 101.505,203.621 97.127 C 200.180 94.717,200.180 88.429,203.621 86.019 C 206.834 83.768,207.407 83.812,210.112 86.517 M267.850 89.218 C 268.684 92.541,267.089 97.206,264.822 98.077 C 261.869 99.210,258.427 95.710,258.427 91.573 C 258.427 84.409,266.158 82.477,267.850 89.218 M23.596 87.079 C 23.596 88.327,24.906 88.764,28.652 88.764 C 32.397 88.764,33.708 88.327,33.708 87.079 C 33.708 85.830,32.397 85.393,28.652 85.393 C 24.906 85.393,23.596 85.830,23.596 87.079 M43.820 87.079 C 43.820 88.327,45.131 88.764,48.876 88.764 C 52.622 88.764,53.933 88.327,53.933 87.079 C 53.933 85.830,52.622 85.393,48.876 85.393 C 45.131 85.393,43.820 85.830,43.820 87.079 M64.045 87.079 C 64.045 88.327,65.356 88.764,69.101 88.764 C 72.846 88.764,74.157 88.327,74.157 87.079 C 74.157 85.830,72.846 85.393,69.101 85.393 C 65.356 85.393,64.045 85.830,64.045 87.079 M307.865 87.079 C 307.865 88.296,309.114 88.764,312.360 88.764 C 315.605 88.764,316.854 88.296,316.854 87.079 C 316.854 85.861,315.605 85.393,312.360 85.393 C 309.114 85.393,307.865 85.861,307.865 87.079 M326.966 87.079 C 326.966 88.327,328.277 88.764,332.022 88.764 C 335.768 88.764,337.079 88.327,337.079 87.079 C 337.079 85.830,335.768 85.393,332.022 85.393 C 328.277 85.393,326.966 85.830,326.966 87.079 M347.191 87.079 C 347.191 88.327,348.502 88.764,352.247 88.764 C 355.993 88.764,357.303 88.327,357.303 87.079 C 357.303 85.830,355.993 85.393,352.247 85.393 C 348.502 85.393,347.191 85.830,347.191 87.079 M367.416 87.079 C 367.416 88.327,368.727 88.764,372.472 88.764 C 376.217 88.764,377.528 88.327,377.528 87.079 C 377.528 85.830,376.217 85.393,372.472 85.393 C 368.727 85.393,367.416 85.830,367.416 87.079 " stroke="none" fill="#000000" fill-rule="evenodd"></path></g></svg>