<svg id="svg" xmlns="http://www.w3.org/2000/svg" xmlns:xlink="http://www.w3.org/1999/xlink" width="400" height="392.8571428571429" viewBox="0, 0, 400,392.8571428571429" version="1.1"><g id="svgg"><path id="path0" d="M2.195 3.089 C 1.946 3.492,1.940 8.560,1.954 224.460 L 1.965 392.927 199.411 392.927 L 396.857 392.927 396.857 198.081 L 396.857 3.235 395.972 2.998 C 394.566 2.621,2.428 2.712,2.195 3.089 M392.829 6.142 L 393.713 6.378 393.713 30.057 C 393.713 49.487,393.618 53.814,393.181 54.176 C 392.789 54.502,341.832 54.592,198.977 54.519 L 5.305 54.420 5.203 30.648 C 5.147 17.574,5.185 6.655,5.289 6.385 C 5.486 5.868,390.905 5.626,392.829 6.142 M219.431 20.928 C 219.327 21.201,219.288 26.638,219.346 33.010 L 219.450 44.597 220.923 44.719 L 222.397 44.841 222.397 39.001 L 222.397 33.160 223.674 31.931 C 227.934 27.833,229.977 29.874,230.255 38.507 L 230.452 44.597 231.925 44.719 L 233.399 44.841 233.398 38.432 C 233.397 28.584,230.058 24.891,224.389 28.470 C 222.468 29.682,222.397 29.533,222.397 24.329 L 222.397 20.432 221.009 20.432 C 220.246 20.432,219.536 20.655,219.431 20.928 M193.509 21.764 C 192.181 22.735,193.288 24.361,195.276 24.361 C 196.811 24.361,196.857 24.323,196.857 23.028 C 196.857 21.225,195.135 20.575,193.509 21.764 M151.062 22.107 C 150.957 22.381,150.918 27.552,150.976 33.601 L 151.081 44.597 152.554 44.719 L 154.028 44.841 154.028 33.226 L 154.028 21.611 152.640 21.611 C 151.877 21.611,151.167 21.834,151.062 22.107 M238.824 25.418 C 238.712 27.172,238.621 27.319,237.525 27.507 C 236.085 27.754,235.777 29.550,237.132 29.801 C 238.777 30.107,238.900 30.534,238.900 35.982 C 238.900 43.372,239.651 44.769,243.635 44.785 C 246.020 44.795,246.758 44.350,246.758 42.902 C 246.758 42.055,246.623 41.975,245.481 42.148 C 244.197 42.343,242.880 41.903,242.344 41.100 C 241.820 40.315,241.990 30.728,242.534 30.387 C 242.805 30.218,243.821 29.986,244.794 29.873 C 247.710 29.532,247.420 27.779,244.401 27.505 L 242.240 27.308 242.043 25.540 C 241.853 23.827,241.802 23.768,240.396 23.651 L 238.945 23.531 238.824 25.418 M160.107 27.980 C 159.996 28.271,159.953 32.128,160.011 36.553 L 160.118 44.597 161.591 44.719 L 163.065 44.841 163.065 38.901 L 163.065 32.962 164.329 31.807 C 168.472 28.023,170.278 29.871,170.530 38.155 L 170.727 44.597 172.200 44.719 L 173.674 44.841 173.674 38.118 C 173.674 28.128,170.963 25.207,164.756 28.508 L 162.868 29.512 162.656 28.607 C 162.413 27.568,160.451 27.086,160.107 27.980 M180.651 28.495 C 177.335 30.748,177.933 35.664,181.655 36.757 C 185.050 37.754,186.592 39.162,186.074 40.793 C 185.541 42.471,181.204 42.749,179.422 41.220 C 178.815 40.700,177.996 41.313,177.996 42.287 C 177.996 43.799,180.026 44.790,183.124 44.792 C 190.218 44.796,192.174 38.387,185.951 35.527 C 181.950 33.689,181.736 33.529,181.608 32.272 C 181.382 30.078,183.475 29.440,187.525 30.466 C 188.493 30.712,188.605 30.636,188.605 29.734 C 188.605 27.364,183.489 26.567,180.651 28.495 M193.975 27.767 C 193.831 27.911,193.713 31.812,193.713 36.435 L 193.713 44.841 195.187 44.719 L 196.660 44.597 196.767 36.374 C 196.848 30.058,196.757 28.077,196.374 27.834 C 195.765 27.448,194.334 27.408,193.975 27.767 M204.013 28.368 C 201.626 29.843,200.464 33.757,201.644 36.348 C 202.027 37.187,201.992 37.569,201.448 38.490 C 200.629 39.876,200.604 41.019,201.375 41.791 C 202.120 42.535,202.128 43.383,201.395 43.991 C 196.506 48.049,205.864 53.517,212.181 50.294 C 218.423 47.110,215.940 42.160,207.859 41.677 C 204.198 41.458,204.126 41.435,204.126 40.472 C 204.126 39.507,204.173 39.492,206.804 39.625 C 211.798 39.877,215.128 36.333,213.712 32.273 C 213.182 30.754,213.474 29.862,214.500 29.862 C 215.297 29.862,215.955 28.601,215.523 27.901 C 215.020 27.088,205.457 27.476,204.013 28.368 M209.228 30.484 C 211.423 31.922,211.263 35.981,208.964 37.169 C 207.442 37.957,206.919 37.867,205.543 36.581 C 202.349 33.598,205.648 28.139,209.228 30.484 M211.605 45.050 C 211.926 45.173,212.181 45.771,212.181 46.402 C 212.181 48.439,207.492 49.570,204.807 48.181 C 200.558 45.984,206.686 43.162,211.605 45.050 M393.615 224.608 C 393.698 364.086,393.628 390.937,393.182 391.308 C 392.789 391.634,341.931 391.723,198.977 391.651 L 5.305 391.552 5.204 225.344 C 5.149 133.929,5.187 58.914,5.290 58.644 C 5.439 58.251,44.486 58.172,199.497 58.251 L 393.517 58.350 393.615 224.608 M28.473 104.541 C 27.602 105.951,28.659 106.876,31.147 106.882 C 35.756 106.892,35.335 105.860,35.455 117.431 L 35.560 127.505 36.935 127.505 L 38.310 127.505 38.416 117.714 C 38.538 106.320,38.340 106.876,42.268 106.876 C 45.390 106.876,46.318 106.292,45.532 104.824 C 45.090 103.997,28.975 103.730,28.473 104.541 M44.794 111.265 C 44.794 112.060,45.680 114.758,47.352 119.057 C 47.646 119.813,48.515 122.155,49.283 124.261 L 50.679 128.090 49.701 130.228 C 48.341 133.200,48.402 133.595,50.219 133.595 C 51.582 133.595,51.776 133.458,52.394 132.057 C 53.022 130.634,55.452 124.075,56.192 121.807 C 56.368 121.267,57.324 118.553,58.315 115.775 C 59.307 112.997,60.118 110.644,60.118 110.546 C 60.118 110.448,59.374 110.422,58.464 110.488 L 56.810 110.609 54.858 116.503 C 52.381 123.981,52.305 124.030,50.712 119.150 C 50.237 117.694,49.746 116.238,49.621 115.914 C 49.495 115.589,49.014 114.263,48.552 112.967 C 47.604 110.311,44.794 109.038,44.794 111.265 M63.261 122.004 L 63.261 133.595 64.833 133.595 L 66.405 133.595 66.405 130.082 C 66.405 126.110,66.551 125.867,68.308 126.936 C 74.119 130.469,79.795 123.447,77.812 115.180 C 76.804 110.976,72.058 109.016,68.173 111.198 C 67.403 111.631,66.602 111.984,66.393 111.984 C 66.183 111.984,66.012 111.631,66.012 111.198 C 66.012 110.562,65.750 110.413,64.637 110.413 L 63.261 110.413 63.261 122.004 M85.855 110.871 C 81.305 113.387,80.087 121.433,83.643 125.484 C 86.281 128.490,95.374 128.457,95.803 125.440 C 95.948 124.422,93.545 124.178,91.252 124.977 C 88.578 125.910,84.653 123.209,84.953 120.642 L 85.069 119.646 90.464 119.537 C 96.636 119.412,96.945 119.239,96.458 116.179 C 95.729 111.598,89.856 108.658,85.855 110.871 M91.430 113.144 C 92.611 113.864,93.850 116.497,93.277 117.070 C 92.948 117.399,85.375 117.333,85.040 116.998 C 84.478 116.436,86.100 113.676,87.363 113.046 C 89.033 112.214,89.940 112.236,91.430 113.144 M72.196 113.017 C 74.618 113.666,75.798 119.960,74.053 122.923 C 73.085 124.568,71.315 125.383,69.941 124.816 C 63.774 122.274,65.867 111.320,72.196 113.017 M9.572 117.682 C 8.994 119.188,9.642 119.450,13.949 119.450 C 18.300 119.450,19.215 119.056,18.071 117.677 C 17.363 116.825,9.900 116.829,9.572 117.682 M31.266 149.537 C 30.735 150.067,30.648 151.633,30.648 160.660 C 30.648 172.218,30.732 172.669,32.829 172.431 L 33.988 172.299 34.093 160.931 C 34.201 149.075,34.184 148.940,32.543 148.925 C 32.180 148.922,31.605 149.197,31.266 149.537 M98.919 151.155 C 98.396 151.292,98.232 151.747,98.232 153.063 C 98.232 154.683,98.152 154.811,96.955 155.120 C 95.213 155.569,94.948 157.025,96.536 157.414 C 98.150 157.809,98.219 158.063,98.226 163.569 C 98.235 170.830,99.154 172.495,103.152 172.495 C 105.348 172.495,106.090 172.025,106.090 170.632 C 106.090 169.801,105.934 169.722,104.469 169.808 C 101.787 169.967,101.375 169.096,101.375 163.266 C 101.375 157.824,101.442 157.684,104.133 157.493 C 106.859 157.299,107.085 155.206,104.380 155.206 C 101.703 155.206,101.375 154.970,101.375 153.045 C 101.375 151.872,101.187 151.289,100.754 151.123 C 100.096 150.870,100.003 150.872,98.919 151.155 M39.861 155.708 C 39.755 155.984,39.717 159.830,39.775 164.254 L 39.882 172.299 41.356 172.421 L 42.829 172.543 42.829 166.702 L 42.829 160.861 44.106 159.630 C 48.487 155.404,50.383 157.301,50.680 166.208 L 50.884 172.299 52.259 172.299 L 53.635 172.299 53.743 166.059 C 53.865 159.049,53.396 157.226,51.127 155.885 C 49.379 154.853,46.401 154.990,44.641 156.184 L 43.199 157.163 42.827 156.184 C 42.418 155.107,40.227 154.755,39.861 155.708 M58.939 166.810 C 58.939 179.412,58.896 179.174,61.101 178.620 C 62.051 178.382,62.083 178.266,62.083 175.065 C 62.083 171.460,62.387 170.911,63.854 171.872 C 66.617 173.682,71.048 172.143,72.807 168.762 C 76.801 161.083,70.139 151.944,63.668 156.226 C 62.039 157.304,61.297 157.224,61.297 155.969 C 61.297 155.383,61.023 155.206,60.118 155.206 L 58.939 155.206 58.939 166.810 M78.352 155.750 C 77.798 157.194,78.377 169.138,79.047 170.085 C 80.743 172.480,84.605 173.254,87.141 171.708 C 88.768 170.716,89.442 170.716,89.701 171.709 C 90.002 172.859,91.859 172.785,92.147 171.611 C 92.267 171.125,92.314 167.279,92.253 163.065 L 92.141 155.403 90.570 155.403 L 88.998 155.403 88.890 161.331 C 88.770 167.924,88.472 168.635,85.408 169.655 C 84.332 170.013,82.112 169.311,81.675 168.473 C 81.645 168.416,81.512 165.452,81.380 161.886 L 81.139 155.403 79.860 155.279 C 78.995 155.196,78.506 155.349,78.352 155.750 M68.375 158.219 C 71.458 159.119,70.918 168.233,67.702 169.550 C 62.067 171.860,59.403 160.854,64.983 158.314 C 65.873 157.909,66.866 157.683,67.191 157.812 C 67.515 157.941,68.048 158.124,68.375 158.219 M9.692 162.148 C 8.210 163.630,9.401 164.244,13.765 164.244 C 18.308 164.244,19.228 163.865,18.071 162.470 C 17.566 161.863,10.259 161.582,9.692 162.148 M35.515 193.738 C 30.296 196.141,28.072 203.830,30.624 210.651 C 32.962 216.900,41.568 218.586,47.151 213.889 C 51.217 210.467,51.591 199.828,47.788 195.732 C 45.203 192.948,39.310 191.991,35.515 193.738 M75.147 195.144 C 74.860 195.265,74.656 196.070,74.656 197.086 C 74.656 198.668,74.571 198.821,73.688 198.821 C 71.632 198.821,71.557 201.355,73.604 201.646 C 74.425 201.763,74.469 201.997,74.695 207.466 C 74.824 210.599,75.065 213.559,75.231 214.043 C 75.982 216.240,80.507 217.332,82.131 215.708 C 83.313 214.526,82.584 213.337,80.844 213.609 C 78.432 213.986,78.064 213.288,77.875 207.968 C 77.676 202.390,77.948 201.572,80.000 201.572 C 83.785 201.572,83.855 199.213,80.081 198.834 L 77.996 198.625 77.800 196.857 C 77.600 195.063,76.708 194.487,75.147 195.144 M125.946 195.358 C 125.847 195.642,125.716 196.483,125.654 197.227 C 125.557 198.376,125.354 198.627,124.305 198.897 C 122.176 199.445,122.403 201.572,124.591 201.572 C 125.596 201.572,125.737 202.352,125.737 207.910 C 125.737 213.353,126.081 214.695,127.787 215.890 C 129.028 216.759,132.120 216.696,132.945 215.784 C 134.296 214.292,133.603 213.314,131.430 213.645 C 129.190 213.986,128.841 213.047,128.967 207.029 L 129.077 201.768 130.845 201.562 C 135.022 201.073,134.639 198.842,130.375 198.827 L 128.923 198.821 128.803 196.955 C 128.681 195.042,126.480 193.813,125.946 195.358 M44.852 197.620 C 48.307 201.182,47.662 210.194,43.780 212.593 C 42.175 213.585,37.764 213.661,36.178 212.724 C 32.353 210.465,31.888 201.118,35.424 197.582 C 37.869 195.137,42.462 195.156,44.852 197.620 M55.012 199.408 C 54.054 200.563,54.647 212.532,55.738 214.065 C 57.584 216.656,61.331 217.259,63.959 215.387 C 65.434 214.337,66.012 214.313,66.012 215.301 C 66.012 216.291,66.608 216.636,67.802 216.336 L 68.762 216.095 68.762 207.899 C 68.762 198.976,68.640 198.471,66.606 198.981 L 65.619 199.229 65.619 205.038 L 65.619 210.848 64.309 212.118 C 62.490 213.881,60.616 214.143,59.107 212.845 L 57.959 211.857 57.817 205.634 C 57.723 201.547,57.521 199.311,57.226 199.122 C 56.499 198.654,55.534 198.779,55.012 199.408 M86.935 199.081 C 86.558 199.234,86.444 201.959,86.444 210.838 L 86.444 222.397 88.016 222.397 L 89.587 222.397 89.587 219.286 C 89.587 214.970,89.725 214.703,91.424 215.706 C 96.454 218.673,101.183 214.672,101.164 207.466 C 101.144 200.142,96.894 196.919,91.334 200.012 C 89.432 201.070,89.194 201.122,89.194 200.483 C 89.194 199.209,88.180 198.579,86.935 199.081 M105.922 199.439 C 105.423 199.938,105.305 201.054,105.305 205.274 C 105.305 211.940,105.978 214.312,108.273 215.731 C 110.307 216.987,114.516 216.466,115.575 214.826 C 115.903 214.317,116.699 214.820,116.699 215.536 C 116.699 216.157,118.384 216.722,119.035 216.320 C 119.779 215.860,119.588 199.243,118.835 198.954 C 116.733 198.147,116.306 199.210,116.306 205.249 L 116.306 210.909 115.038 212.149 C 110.937 216.158,108.711 213.757,108.516 205.112 C 108.389 199.515,108.227 198.843,107.003 198.827 C 106.748 198.824,106.262 199.099,105.922 199.439 M95.689 202.041 C 98.862 203.487,98.652 212.041,95.409 213.388 C 90.948 215.241,86.997 206.947,90.668 203.436 C 92.477 201.706,94.015 201.279,95.689 202.041 M9.572 206.483 C 8.994 207.990,9.642 208.251,13.949 208.251 C 18.300 208.251,19.215 207.858,18.071 206.478 C 17.363 205.626,9.900 205.631,9.572 206.483 M30.929 237.178 C 30.368 237.740,30.623 252.344,31.229 254.342 C 32.505 258.547,34.809 260.118,39.699 260.118 C 47.002 260.118,48.516 257.623,48.522 245.580 L 48.527 237.132 46.955 237.132 L 45.383 237.132 45.187 245.776 C 44.947 256.337,44.466 257.376,39.821 257.362 C 34.973 257.347,34.428 256.215,34.185 245.650 L 33.988 237.132 32.599 237.015 C 31.835 236.950,31.083 237.024,30.929 237.178 M130.066 237.707 C 129.799 238.207,129.690 242.255,129.758 249.200 L 129.862 259.921 131.434 259.921 L 133.006 259.921 133.116 255.108 L 133.227 250.295 136.653 250.289 C 140.797 250.283,141.847 250.041,141.847 249.093 C 141.847 247.984,141.153 247.756,137.132 247.544 L 133.399 247.348 133.399 243.615 L 133.399 239.882 137.483 239.686 C 141.751 239.480,142.685 239.056,142.118 237.578 C 141.707 236.507,130.645 236.625,130.066 237.707 M55.874 243.553 C 53.408 244.869,52.476 247.273,53.596 249.430 C 54.135 250.467,56.218 252.259,56.885 252.259 C 57.675 252.259,60.519 253.898,60.872 254.557 C 62.036 256.733,59.211 258.353,56.115 257.285 C 53.214 256.284,53.252 256.280,53.120 257.640 C 52.955 259.351,54.452 260.118,57.957 260.118 C 65.280 260.118,66.941 253.171,60.250 250.526 C 53.743 247.953,55.296 244.025,62.126 245.780 C 63.175 246.049,63.905 245.020,63.311 244.110 C 62.399 242.713,58.060 242.388,55.874 243.553 M70.175 243.608 C 68.319 244.472,67.789 245.281,68.368 246.363 C 68.777 247.128,68.837 247.132,70.054 246.486 C 73.470 244.672,77.407 245.805,77.407 248.602 L 77.407 249.902 74.861 249.902 C 69.004 249.902,65.489 253.933,67.919 257.863 C 69.241 260.002,74.013 261.017,76.233 259.630 C 76.854 259.242,77.173 259.242,77.794 259.630 C 78.224 259.899,79.019 260.118,79.562 260.118 L 80.550 260.118 80.550 253.204 C 80.550 245.455,80.338 244.743,77.650 243.467 C 75.864 242.619,72.145 242.689,70.175 243.608 M88.212 243.560 C 85.489 245.242,84.504 247.710,85.274 250.922 C 85.705 252.718,85.689 253.185,85.155 254.287 C 84.814 254.991,84.575 255.663,84.624 255.780 C 84.673 255.897,84.957 256.481,85.255 257.078 C 85.741 258.052,85.709 258.321,84.942 259.686 C 82.679 263.711,85.274 266.405,91.414 266.405 C 96.139 266.405,98.655 264.942,99.219 261.866 C 99.746 258.986,97.695 257.666,92.219 257.363 C 89.438 257.208,88.263 256.988,87.995 256.571 C 87.415 255.667,87.752 254.795,88.620 254.958 C 94.603 256.080,98.289 253.126,97.627 247.741 C 97.407 245.947,97.465 245.742,98.298 245.383 C 99.353 244.928,99.731 243.667,98.958 243.177 C 97.849 242.474,89.487 242.773,88.212 243.560 M106.123 243.831 C 101.058 246.726,100.466 255.745,105.129 258.954 C 108.246 261.098,116.571 260.408,116.233 258.032 C 116.130 257.311,115.886 257.186,114.735 257.264 C 107.589 257.746,105.305 256.820,105.305 253.444 L 105.305 252.259 110.814 252.259 C 117.346 252.259,117.530 252.133,116.715 248.207 C 115.739 243.505,110.488 241.336,106.123 243.831 M146.660 243.089 C 146.086 243.321,145.947 258.767,146.511 259.656 C 146.709 259.969,147.372 260.125,148.175 260.049 L 149.509 259.921 149.705 254.165 C 149.876 249.165,150.004 248.288,150.683 247.486 C 151.113 246.978,151.522 246.477,151.592 246.374 C 151.661 246.271,152.636 246.094,153.757 245.981 C 155.657 245.790,155.805 245.699,155.925 244.640 C 156.162 242.571,153.293 242.117,150.779 243.826 C 149.413 244.754,149.312 244.770,149.312 244.064 C 149.312 243.034,147.997 242.550,146.660 243.089 M161.683 243.967 C 156.792 246.773,156.406 256.173,161.063 259.112 C 164.050 260.998,172.102 260.322,172.102 258.185 C 172.102 257.124,171.308 256.966,168.389 257.450 C 164.013 258.175,161.100 256.514,161.100 253.294 L 161.100 252.259 166.611 252.259 L 172.122 252.259 172.494 251.281 C 174.615 245.701,167.295 240.748,161.683 243.967 M179.516 243.811 C 175.110 246.700,174.748 255.935,178.917 259.115 C 180.620 260.414,183.945 260.515,186.051 259.332 C 186.821 258.900,187.527 258.546,187.621 258.546 C 187.714 258.546,187.841 260.270,187.903 262.377 L 188.016 266.208 189.391 266.208 L 190.766 266.208 190.766 254.617 C 190.766 241.661,190.626 241.107,188.052 243.883 C 187.492 244.488,187.033 244.796,187.033 244.568 C 187.033 242.909,181.710 242.373,179.516 243.811 M196.955 243.082 C 196.334 243.342,196.269 254.488,196.875 256.672 C 197.747 259.811,202.869 261.390,205.501 259.332 C 206.758 258.349,207.322 258.349,207.579 259.332 C 207.886 260.505,210.041 260.429,210.361 259.234 C 210.752 257.775,210.639 244.924,210.226 243.837 C 209.846 242.837,208.980 242.574,207.694 243.068 C 207.166 243.270,207.073 244.177,207.073 249.081 L 207.073 254.856 205.796 256.068 C 201.646 260.009,199.589 257.704,199.239 248.723 C 199.005 242.709,198.838 242.294,196.955 243.082 M218.953 243.666 C 213.389 246.222,213.239 257.236,218.735 259.533 C 222.064 260.924,229.077 259.997,229.077 258.166 C 229.077 257.030,228.583 256.919,225.663 257.401 C 221.147 258.147,218.623 256.888,218.375 253.765 L 218.271 252.456 223.688 252.346 C 229.931 252.220,230.169 252.062,229.500 248.484 C 228.620 243.773,223.655 241.504,218.953 243.666 M234.054 243.091 C 233.910 243.235,233.792 247.125,233.792 251.735 L 233.792 260.118 235.363 260.118 L 236.935 260.118 236.935 254.301 L 236.935 248.484 238.212 247.272 C 242.596 243.109,244.794 245.512,244.794 254.468 L 244.794 260.118 246.365 260.118 L 247.937 260.118 247.937 253.815 C 247.937 243.914,244.579 240.226,238.855 243.840 C 237.974 244.396,237.206 244.793,237.148 244.724 C 237.089 244.654,236.835 244.199,236.582 243.713 C 236.142 242.868,234.645 242.500,234.054 243.091 M256.385 243.493 C 251.200 246.272,250.462 255.544,255.142 259.113 C 257.358 260.804,263.272 260.400,264.493 258.474 C 265.724 256.533,264.616 255.783,262.279 256.974 C 258.361 258.972,255.403 256.689,255.403 251.670 C 255.403 246.564,258.213 244.397,262.283 246.367 C 264.342 247.364,265.094 247.066,264.680 245.417 C 264.131 243.229,259.067 242.055,256.385 243.493 M267.261 243.170 C 266.683 243.537,267.708 246.909,270.939 255.267 C 272.930 260.419,272.970 260.727,271.943 262.988 C 270.642 265.855,270.699 266.208,272.464 266.208 C 274.050 266.208,274.983 264.754,276.621 259.725 C 276.797 259.185,277.673 256.709,278.569 254.224 C 282.566 243.129,282.627 242.823,280.857 242.835 C 279.361 242.845,279.139 243.219,277.245 248.919 C 276.240 251.945,275.332 254.661,275.228 254.956 C 274.944 255.762,273.965 254.810,273.522 253.297 C 270.973 244.596,269.295 241.881,267.261 243.170 M93.547 246.335 C 95.181 247.969,95.157 250.166,93.486 251.836 C 90.178 255.145,85.947 249.841,89.156 246.407 C 90.625 244.834,92.023 244.811,93.547 246.335 M111.871 245.959 C 113.040 246.672,114.102 248.824,113.672 249.607 C 113.284 250.311,105.304 249.937,105.307 249.214 C 105.318 246.266,109.209 244.336,111.871 245.959 M167.395 245.780 C 168.723 246.467,169.352 247.467,169.352 248.894 L 169.352 249.902 165.410 249.902 C 160.915 249.902,160.490 249.607,161.841 247.421 C 163.171 245.269,165.230 244.661,167.395 245.780 M224.369 245.780 C 225.702 246.469,226.326 247.467,226.326 248.907 L 226.326 249.929 222.299 249.817 L 218.271 249.705 218.409 248.733 C 218.813 245.885,221.754 244.428,224.369 245.780 M186.509 247.214 C 188.377 249.025,188.507 254.203,186.728 255.909 C 182.999 259.481,179.390 257.390,179.408 251.670 C 179.426 245.965,182.943 243.758,186.509 247.214 M10.075 249.998 C 8.200 251.398,9.372 252.063,13.715 252.063 C 18.032 252.063,19.419 251.482,18.145 250.207 C 17.400 249.462,11.015 249.296,10.075 249.998 M77.407 253.993 C 77.407 256.912,74.295 258.913,71.930 257.516 C 68.821 255.679,70.864 252.363,75.147 252.295 L 77.407 252.259 77.407 253.993 M95.252 260.356 C 97.677 261.287,94.822 264.201,91.524 264.162 C 88.412 264.124,85.912 261.809,87.753 260.668 C 89.114 259.824,89.696 259.720,92.010 259.906 C 93.451 260.022,94.910 260.225,95.252 260.356 M84.479 284.068 L 84.479 288.419 83.006 287.756 C 76.426 284.796,71.227 289.767,72.589 297.716 C 73.562 303.395,78.146 305.902,82.515 303.143 C 84.407 301.949,84.395 301.949,84.550 303.045 C 84.653 303.770,84.924 303.929,86.051 303.929 L 87.426 303.929 87.426 291.945 L 87.426 279.961 85.953 279.839 L 84.479 279.717 84.479 284.068 M31.120 281.022 C 30.343 281.798,30.484 295.432,31.298 298.334 C 33.658 306.744,46.555 306.145,48.282 297.546 C 48.894 294.497,48.871 281.641,48.251 281.022 C 47.634 280.404,46.178 280.418,45.657 281.047 C 45.406 281.348,45.195 284.893,45.117 290.077 L 44.990 298.611 43.734 299.866 C 42.064 301.536,38.314 301.742,36.261 300.278 C 34.454 298.989,34.189 297.515,34.187 288.745 C 34.185 282.071,34.101 280.995,33.563 280.789 C 32.591 280.416,31.635 280.507,31.120 281.022 M149.181 280.812 C 149.037 280.956,148.919 286.271,148.919 292.624 L 148.919 304.173 150.393 304.051 L 151.866 303.929 152.063 299.018 L 152.259 294.106 156.305 293.994 C 162.822 293.813,162.677 291.552,156.148 291.552 C 151.845 291.552,151.949 291.675,152.142 286.832 L 152.259 283.890 156.189 283.694 C 158.350 283.585,160.339 283.354,160.609 283.179 C 161.308 282.727,161.218 281.072,160.479 280.789 C 159.632 280.464,149.509 280.485,149.181 280.812 M111.121 282.782 C 110.637 282.909,110.421 283.463,110.335 284.799 C 110.226 286.491,110.127 286.651,109.112 286.767 C 107.265 286.979,107.381 289.194,109.240 289.194 C 110.269 289.194,110.413 289.947,110.413 295.330 C 110.413 302.446,111.352 304.126,115.333 304.126 C 117.544 304.126,118.271 303.656,118.271 302.228 C 118.271 301.351,118.155 301.291,116.859 301.502 C 114.151 301.941,113.556 300.759,113.556 294.933 C 113.556 289.472,113.528 289.529,116.306 289.205 C 119.031 288.886,119.251 286.837,116.561 286.837 C 113.884 286.837,113.556 286.601,113.556 284.676 C 113.556 283.503,113.367 282.919,112.934 282.753 C 112.278 282.501,112.179 282.503,111.121 282.782 M54.093 287.099 C 53.651 287.541,53.788 308.812,54.238 309.653 C 54.692 310.502,56.174 310.663,56.896 309.941 C 57.192 309.645,57.367 308.169,57.367 305.973 L 57.367 302.476 58.765 303.301 C 64.918 306.931,70.839 300.126,68.647 291.945 C 67.303 286.931,60.648 284.806,58.048 288.562 C 57.849 288.848,57.467 288.627,56.934 287.917 C 56.175 286.906,54.709 286.483,54.093 287.099 M94.321 287.492 C 92.696 288.200,91.987 289.072,92.242 290.048 C 92.438 290.799,93.485 291.009,94.126 290.427 C 95.623 289.065,100.114 289.208,101.210 290.653 C 102.848 292.812,101.764 293.910,97.995 293.910 C 93.535 293.910,91.297 296.030,91.658 299.915 C 91.997 303.566,97.111 305.651,100.417 303.485 C 101.326 302.889,101.448 302.891,102.139 303.516 C 105.028 306.131,106.472 291.421,103.600 288.625 C 101.653 286.728,97.296 286.196,94.321 287.492 M124.754 287.500 C 118.973 290.600,119.030 300.383,124.847 303.635 C 127.350 305.034,134.953 303.812,134.701 302.051 C 134.543 300.941,133.565 300.770,130.963 301.394 C 127.434 302.241,124.617 300.792,123.958 297.792 C 123.588 296.107,123.634 296.092,129.796 295.874 L 135.363 295.678 135.342 293.713 C 135.284 288.295,129.549 284.930,124.754 287.500 M165.422 295.505 L 165.422 304.173 166.896 304.051 L 168.369 303.929 168.566 298.182 C 168.807 291.119,169.466 289.814,172.799 289.795 L 174.656 289.784 174.656 288.409 C 174.656 286.597,172.014 286.173,170.000 287.662 L 168.814 288.539 168.249 287.688 C 167.887 287.143,167.277 286.837,166.553 286.837 L 165.422 286.837 165.422 295.505 M180.746 287.443 C 175.336 290.318,174.907 300.087,180.058 303.106 C 183.339 305.029,190.766 304.215,190.766 301.933 C 190.766 300.964,189.105 300.740,186.771 301.394 C 183.482 302.315,180.856 300.961,179.976 297.892 C 179.488 296.191,179.753 296.100,185.855 295.874 L 191.159 295.678 191.120 293.198 C 191.039 288.136,185.366 284.988,180.746 287.443 M199.018 287.294 C 193.965 290.082,193.321 300.123,197.995 303.236 C 199.764 304.415,203.272 304.469,204.715 303.340 C 206.470 301.967,206.680 302.252,206.680 306.012 C 206.680 310.235,207.760 311.634,209.599 309.795 C 210.345 309.048,210.536 288.955,209.809 287.597 C 209.203 286.463,207.535 286.604,207.069 287.828 L 206.692 288.819 205.122 287.828 C 203.415 286.751,200.470 286.493,199.018 287.294 M215.091 287.381 C 214.484 288.962,215.121 300.777,215.874 301.886 C 217.417 304.164,221.888 304.967,223.969 303.340 C 225.276 302.317,226.326 302.328,226.326 303.365 C 226.326 304.043,226.535 304.155,227.603 304.052 L 228.880 303.929 228.880 295.481 L 228.880 287.033 227.308 287.033 L 225.737 287.033 225.628 292.914 C 225.526 298.362,225.454 298.864,224.645 299.742 C 223.170 301.344,221.425 301.895,220.059 301.189 C 218.336 300.298,218.287 300.101,218.075 293.320 L 217.878 287.033 216.598 286.910 C 215.734 286.827,215.245 286.979,215.091 287.381 M237.525 287.491 C 232.272 290.266,231.824 300.070,236.811 303.082 C 240.012 305.016,247.534 304.293,247.542 302.051 C 247.545 301.004,246.503 300.797,243.918 301.331 C 240.132 302.113,237.277 300.765,236.748 297.945 C 236.383 296.002,236.714 295.887,242.704 295.880 C 248.582 295.873,248.649 295.834,248.124 292.616 C 247.343 287.830,241.881 285.189,237.525 287.491 M252.828 287.339 C 252.722 287.615,252.683 291.460,252.742 295.885 L 252.849 303.929 254.271 304.048 C 256.094 304.201,256.176 303.904,256.183 297.167 C 256.189 291.404,256.619 290.435,259.528 289.635 C 262.612 288.787,263.260 290.061,263.267 296.987 C 263.274 303.917,263.351 304.201,265.179 304.048 L 266.601 303.929 266.601 297.250 C 266.601 289.848,266.337 288.864,263.981 287.512 C 262.374 286.590,259.459 286.643,257.849 287.624 C 256.222 288.616,255.549 288.616,255.289 287.623 C 255.054 286.725,253.148 286.505,252.828 287.339 M274.853 287.502 C 269.491 290.385,269.364 300.800,274.657 303.537 C 277.788 305.156,283.694 303.590,283.694 301.141 C 283.694 299.809,283.308 299.770,280.936 300.866 C 276.878 302.742,274.263 300.658,274.263 295.547 C 274.263 289.833,277.099 288.033,282.052 290.602 C 284.276 291.756,284.155 288.890,281.925 287.585 C 280.385 286.683,276.462 286.637,274.853 287.502 M285.592 287.034 C 285.230 287.396,285.797 289.382,287.611 294.106 C 290.460 301.527,291.454 304.689,291.135 305.307 C 289.239 308.977,289.219 310.161,291.051 310.338 C 292.398 310.469,292.575 310.215,294.416 305.501 C 294.988 304.036,295.391 302.917,298.063 295.383 C 298.619 293.816,299.257 292.092,299.481 291.552 C 301.185 287.446,301.064 286.639,298.780 286.906 C 297.748 287.027,297.585 287.346,295.672 293.023 C 292.973 301.029,293.409 301.086,290.373 292.338 C 288.457 286.818,288.591 287.043,287.157 286.916 C 286.425 286.852,285.721 286.905,285.592 287.034 M64.697 290.833 C 65.743 291.989,65.751 298.337,64.709 299.872 C 62.013 303.844,57.367 301.065,57.367 295.481 C 57.367 290.095,61.600 287.411,64.697 290.833 M80.974 289.587 C 81.172 289.587,82.041 290.227,82.907 291.008 C 87.048 294.750,82.954 303.641,78.217 301.191 C 73.886 298.952,75.650 287.860,80.091 289.405 C 80.379 289.505,80.776 289.587,80.974 289.587 M130.263 289.662 C 131.333 290.150,132.585 292.510,132.245 293.398 C 132.014 293.998,125.116 294.126,124.201 293.547 C 123.731 293.250,123.749 292.984,124.316 291.789 C 125.400 289.505,127.931 288.600,130.263 289.662 M186.485 289.941 C 187.664 290.660,188.516 292.707,187.991 293.557 C 187.435 294.456,179.960 293.960,179.975 293.026 C 180.023 289.924,183.644 288.209,186.485 289.941 M203.649 289.774 C 208.142 291.651,207.962 299.650,203.390 301.304 C 198.327 303.135,195.747 292.869,200.536 289.949 C 202.016 289.046,201.920 289.052,203.649 289.774 M242.953 289.652 C 244.234 290.334,244.767 291.208,244.781 292.646 L 244.794 293.937 240.766 293.825 L 236.739 293.713 236.877 292.741 C 237.267 289.989,240.500 288.345,242.953 289.652 M9.921 293.777 C 9.651 293.886,9.430 294.402,9.430 294.925 C 9.430 296.164,17.878 296.452,18.347 295.228 C 18.880 293.839,12.493 292.739,9.921 293.777 M100.884 296.122 C 102.345 296.513,102.126 299.040,100.513 300.397 C 98.590 302.015,97.572 302.280,96.259 301.505 C 94.420 300.418,94.258 297.435,96.006 296.835 C 96.474 296.675,97.210 296.411,97.642 296.248 C 98.654 295.868,99.773 295.824,100.884 296.122 M255.697 323.804 C 255.115 324.143,255.010 324.806,255.010 328.140 C 255.010 332.234,254.603 332.814,252.868 331.194 C 252.266 330.631,248.390 330.793,247.152 331.434 C 242.168 334.011,242.012 344.293,246.910 347.320 C 248.926 348.566,254.224 347.964,254.224 346.489 C 254.224 346.313,254.489 346.169,254.813 346.169 C 255.138 346.169,255.403 346.504,255.403 346.913 C 255.403 348.149,257.868 348.658,258.308 347.512 C 258.789 346.257,258.574 324.350,258.075 323.851 C 257.505 323.281,256.625 323.263,255.697 323.804 M114.244 324.589 C 113.865 324.810,113.556 325.402,113.556 325.905 C 113.556 328.004,116.570 328.394,117.273 326.386 C 117.876 324.661,116.015 323.558,114.244 324.589 M216.685 324.716 C 215.489 325.591,216.309 327.465,217.957 327.626 C 219.357 327.762,220.234 326.721,219.772 325.471 C 219.262 324.091,217.972 323.775,216.685 324.716 M31.049 325.329 C 30.323 326.686,30.676 347.271,31.434 347.749 C 32.660 348.523,42.748 348.221,43.008 347.403 C 43.623 345.464,42.594 345.003,37.629 344.996 L 34.198 344.990 34.093 334.872 L 33.988 324.754 32.737 324.633 C 31.796 324.542,31.378 324.714,31.049 325.329 M167.770 325.566 C 167.557 326.126,167.387 331.068,167.387 336.689 C 167.387 347.826,167.479 348.307,169.568 348.069 L 170.727 347.937 170.838 343.559 C 170.964 338.579,170.852 338.719,174.710 338.709 C 179.152 338.697,181.925 335.854,181.925 331.311 C 181.925 326.469,179.302 324.574,172.584 324.564 C 168.187 324.558,168.151 324.566,167.770 325.566 M175.543 327.428 C 181.321 329.156,178.645 336.866,172.471 336.278 L 171.120 336.149 171.007 332.081 C 170.859 326.699,171.366 326.178,175.543 327.428 M48.463 331.833 C 43.471 334.825,43.513 344.033,48.531 347.053 C 51.533 348.859,58.318 348.355,59.120 346.265 C 59.547 345.151,58.887 344.884,56.429 345.179 C 52.930 345.598,52.156 345.566,50.903 344.952 C 49.473 344.253,48.412 342.771,48.255 341.257 L 48.134 340.079 53.831 339.882 C 60.307 339.659,60.095 339.804,59.527 335.990 C 58.849 331.432,52.875 329.188,48.463 331.833 M66.208 331.323 C 65.776 331.560,65.157 331.877,64.833 332.027 C 63.997 332.413,63.837 334.325,64.615 334.624 C 64.957 334.755,65.455 334.693,65.722 334.486 C 68.578 332.278,73.477 333.421,73.477 336.297 C 73.477 337.573,72.562 337.917,69.166 337.917 C 64.573 337.917,61.743 342.102,63.885 345.728 C 65.220 347.989,69.722 348.990,71.850 347.500 C 72.688 346.913,72.852 346.918,74.047 347.561 C 76.488 348.876,76.621 348.549,76.621 341.250 C 76.621 334.101,76.390 333.145,74.307 331.662 C 73.010 330.738,67.678 330.515,66.208 331.323 M81.819 339.391 L 81.925 347.937 83.301 347.937 L 84.676 347.937 84.872 342.222 C 85.056 336.869,85.131 336.429,86.051 335.269 C 86.990 334.086,89.100 333.247,89.897 333.740 C 90.767 334.278,91.737 332.938,91.250 331.870 C 90.652 330.557,87.987 330.424,86.444 331.631 C 85.205 332.600,85.012 332.600,84.758 331.631 C 84.601 331.028,84.222 330.845,83.133 330.845 L 81.714 330.845 81.819 339.391 M94.695 339.305 C 94.695 348.479,94.704 348.513,96.857 347.972 L 97.839 347.726 97.839 341.880 L 97.839 336.034 99.188 334.849 C 103.522 331.045,105.305 333.089,105.305 341.865 L 105.305 347.726 106.286 347.972 C 108.386 348.499,108.448 348.308,108.448 341.250 C 108.448 334.101,108.217 333.145,106.134 331.662 C 104.568 330.546,100.819 330.529,99.411 331.631 C 98.154 332.614,97.589 332.614,97.332 331.631 C 97.182 331.058,96.796 330.845,95.911 330.845 L 94.695 330.845 94.695 339.305 M114.125 331.347 C 114.019 331.623,113.980 335.468,114.039 339.893 L 114.145 347.937 115.521 347.937 L 116.896 347.937 117.002 339.391 L 117.108 330.845 115.712 330.845 C 114.943 330.845,114.231 331.070,114.125 331.347 M122.462 331.107 C 122.318 331.251,122.200 334.842,122.200 339.087 C 122.200 347.643,122.360 348.299,124.381 348.069 L 125.540 347.937 125.649 342.057 C 125.771 335.536,126.000 334.921,128.748 333.750 C 132.115 332.315,133.202 334.158,133.202 341.302 C 133.202 347.817,133.655 348.840,136.117 347.895 C 137.023 347.547,137.017 337.301,136.109 334.637 C 134.895 331.076,130.689 329.625,127.397 331.632 C 125.777 332.620,125.344 332.619,125.344 331.631 C 125.344 330.844,123.128 330.441,122.462 331.107 M143.076 331.891 C 140.906 333.611,140.078 336.709,141.083 339.351 C 141.409 340.209,141.351 340.769,140.807 341.975 C 140.152 343.427,140.151 343.570,140.791 344.684 C 141.437 345.811,141.432 345.914,140.674 347.142 C 138.168 351.197,140.719 354.028,146.881 354.028 C 152.162 354.028,154.813 352.455,154.813 349.324 C 154.813 346.349,152.559 344.990,147.621 344.990 C 144.861 344.990,144.214 344.867,143.637 344.229 C 142.526 343.002,143.185 342.659,146.171 342.909 C 150.895 343.305,153.355 340.931,153.200 336.126 C 153.155 334.731,153.190 333.546,153.278 333.494 C 153.366 333.441,153.792 333.203,154.224 332.963 C 154.656 332.723,155.010 332.193,155.010 331.784 C 155.010 330.401,144.841 330.492,143.076 331.891 M188.017 331.747 C 185.507 333.169,184.488 335.411,184.483 339.520 C 184.477 345.434,187.059 348.134,192.723 348.134 C 196.896 348.134,200.247 346.220,198.139 345.041 C 197.520 344.694,197.090 344.738,194.303 345.428 C 191.117 346.216,187.857 344.170,187.832 341.366 L 187.819 339.904 193.418 339.795 L 199.018 339.686 199.017 337.296 C 199.014 331.903,193.052 328.896,188.017 331.747 M203.929 339.305 C 203.929 348.479,203.938 348.513,206.091 347.972 L 207.073 347.726 207.073 341.996 L 207.073 336.267 208.409 334.931 C 209.546 333.794,210.017 333.595,211.577 333.595 C 213.408 333.595,213.409 333.594,213.286 332.318 C 213.124 330.639,210.564 330.284,208.199 331.613 L 206.738 332.434 206.486 331.639 C 206.308 331.080,205.893 330.845,205.082 330.845 L 203.929 330.845 203.929 339.305 M216.594 339.391 L 216.699 347.937 218.075 347.937 L 219.450 347.937 219.556 339.391 L 219.662 330.845 218.075 330.845 L 216.488 330.845 216.594 339.391 M227.837 331.659 C 222.466 334.383,222.555 344.721,227.971 347.338 C 235.126 350.795,242.315 343.723,239.700 335.800 C 238.243 331.386,232.397 329.346,227.837 331.659 M54.414 333.475 C 56.067 334.263,57.196 336.895,56.162 337.549 C 54.701 338.474,48.321 337.855,48.344 336.791 C 48.404 334.018,51.736 332.198,54.414 333.475 M148.537 333.474 C 151.419 335.446,150.270 340.668,146.955 340.668 C 143.748 340.668,142.494 335.227,145.308 333.522 C 146.697 332.680,147.363 332.671,148.537 333.474 M194.134 333.701 C 195.682 334.744,196.558 336.975,195.646 337.552 C 194.002 338.593,187.813 337.835,187.832 336.595 C 187.873 333.806,191.689 332.053,194.134 333.701 M233.921 333.738 C 238.178 335.517,237.718 343.918,233.291 345.244 C 229.744 346.306,227.330 343.892,227.330 339.280 C 227.330 334.477,230.105 332.144,233.921 333.738 M251.743 333.620 C 256.470 335.406,256.554 343.169,251.866 345.084 C 247.161 347.006,244.295 337.059,248.700 334.091 C 250.216 333.069,250.264 333.062,251.743 333.620 M9.572 338.114 C 8.994 339.620,9.642 339.882,13.949 339.882 C 18.300 339.882,19.215 339.488,18.071 338.109 C 17.363 337.257,9.900 337.261,9.572 338.114 M73.400 341.703 C 73.623 344.762,69.478 346.954,67.314 344.922 C 64.997 342.745,67.271 339.789,71.120 339.974 L 73.281 340.079 73.400 341.703 M148.998 347.783 C 151.498 348.305,151.841 348.577,151.536 349.794 C 150.803 352.711,143.026 352.708,143.026 349.791 C 143.026 347.719,145.198 346.989,148.998 347.783 " stroke="none" fill="#14141b" fill-rule="evenodd"></path><path id="path1" d="M0.000 196.464 L 0.000 392.927 0.983 392.927 L 1.967 392.927 1.963 198.198 C 1.961 91.097,2.060 3.308,2.182 3.110 C 2.427 2.713,394.494 2.602,395.972 2.998 L 396.857 3.235 396.857 198.081 L 396.857 392.927 398.428 392.927 L 400.000 392.927 400.000 196.464 L 400.000 0.000 200.000 0.000 L 0.000 0.000 0.000 196.464 M5.289 6.385 C 5.185 6.655,5.147 17.574,5.203 30.648 L 5.305 54.420 198.977 54.519 C 341.832 54.592,392.789 54.502,393.181 54.176 C 393.618 53.814,393.713 49.487,393.713 30.057 L 393.713 6.378 392.829 6.142 C 390.905 5.626,5.486 5.868,5.289 6.385 M222.397 24.329 C 222.397 29.533,222.468 29.682,224.389 28.470 C 230.058 24.891,233.397 28.584,233.398 38.432 L 233.399 44.841 231.925 44.719 L 230.452 44.597 230.255 38.507 C 229.977 29.874,227.934 27.833,223.674 31.931 L 222.397 33.160 222.397 39.001 L 222.397 44.841 220.923 44.719 L 219.450 44.597 219.346 33.010 C 219.227 19.875,219.154 20.432,221.009 20.432 L 222.397 20.432 222.397 24.329 M196.235 21.457 C 196.633 21.609,196.857 22.175,196.857 23.028 C 196.857 24.850,194.028 25.090,193.229 23.336 C 192.529 21.799,194.278 20.706,196.235 21.457 M154.028 33.226 L 154.028 44.841 152.554 44.719 L 151.081 44.597 150.976 33.601 C 150.857 21.111,150.788 21.611,152.640 21.611 L 154.028 21.611 154.028 33.226 M242.043 25.540 L 242.240 27.308 244.401 27.505 C 247.420 27.779,247.710 29.532,244.794 29.873 C 243.821 29.986,242.805 30.218,242.534 30.387 C 241.990 30.728,241.820 40.315,242.344 41.100 C 242.880 41.903,244.197 42.343,245.481 42.148 C 246.623 41.975,246.758 42.055,246.758 42.902 C 246.758 44.350,246.020 44.795,243.635 44.785 C 239.651 44.769,238.900 43.372,238.900 35.982 C 238.900 30.534,238.777 30.107,237.132 29.801 C 235.777 29.550,236.085 27.754,237.525 27.507 C 238.621 27.319,238.712 27.172,238.824 25.418 L 238.945 23.531 240.396 23.651 C 241.802 23.768,241.853 23.827,242.043 25.540 M162.656 28.607 L 162.868 29.512 164.756 28.508 C 170.963 25.207,173.674 28.128,173.674 38.118 L 173.674 44.841 172.200 44.719 L 170.727 44.597 170.530 38.155 C 170.278 29.871,168.472 28.023,164.329 31.807 L 163.065 32.962 163.065 38.901 L 163.065 44.841 161.591 44.719 L 160.118 44.597 160.011 36.553 C 159.953 32.128,159.996 28.271,160.107 27.980 C 160.451 27.086,162.413 27.568,162.656 28.607 M187.732 28.117 C 189.096 29.072,188.941 30.825,187.525 30.466 C 183.475 29.440,181.382 30.078,181.608 32.272 C 181.736 33.529,181.950 33.689,185.951 35.527 C 192.174 38.387,190.218 44.796,183.124 44.792 C 180.026 44.790,177.996 43.799,177.996 42.287 C 177.996 41.313,178.815 40.700,179.422 41.220 C 181.204 42.749,185.541 42.471,186.074 40.793 C 186.592 39.162,185.050 37.754,181.655 36.757 C 179.272 36.058,177.652 32.367,178.792 30.237 C 180.080 27.830,185.490 26.546,187.732 28.117 M196.374 27.834 C 196.757 28.077,196.848 30.058,196.767 36.374 L 196.660 44.597 195.187 44.719 L 193.713 44.841 193.713 36.435 C 193.713 31.812,193.831 27.911,193.975 27.767 C 194.334 27.408,195.765 27.448,196.374 27.834 M215.523 27.901 C 215.955 28.601,215.297 29.862,214.500 29.862 C 213.474 29.862,213.182 30.754,213.712 32.273 C 215.128 36.333,211.798 39.877,206.804 39.625 C 204.173 39.492,204.126 39.507,204.126 40.472 C 204.126 41.435,204.198 41.458,207.859 41.677 C 215.940 42.160,218.423 47.110,212.181 50.294 C 205.864 53.517,196.506 48.049,201.395 43.991 C 202.128 43.383,202.120 42.535,201.375 41.791 C 200.604 41.019,200.629 39.876,201.448 38.490 C 201.992 37.569,202.027 37.187,201.644 36.348 C 200.464 33.757,201.626 29.843,204.013 28.368 C 205.457 27.476,215.020 27.088,215.523 27.901 M205.358 30.898 C 203.802 32.455,203.886 35.033,205.543 36.581 C 207.432 38.346,209.625 37.739,210.545 35.198 C 211.898 31.453,208.019 28.238,205.358 30.898 M204.179 45.363 C 201.874 47.850,206.620 49.881,210.707 48.156 C 212.286 47.489,212.853 45.529,211.605 45.050 C 209.238 44.142,205.151 44.314,204.179 45.363 M5.290 58.644 C 5.187 58.914,5.149 133.929,5.204 225.344 L 5.305 391.552 198.977 391.651 C 341.931 391.723,392.789 391.634,393.182 391.308 C 393.628 390.937,393.698 364.086,393.615 224.608 L 393.517 58.350 199.497 58.251 C 44.486 58.172,5.439 58.251,5.290 58.644 M45.532 104.824 C 46.318 106.292,45.390 106.876,42.268 106.876 C 38.340 106.876,38.538 106.320,38.416 117.714 L 38.310 127.505 36.935 127.505 L 35.560 127.505 35.455 117.431 C 35.335 105.860,35.756 106.892,31.147 106.882 C 28.659 106.876,27.602 105.951,28.473 104.541 C 28.975 103.730,45.090 103.997,45.532 104.824 M48.552 112.967 C 49.014 114.263,49.495 115.589,49.621 115.914 C 49.746 116.238,50.237 117.694,50.712 119.150 C 52.305 124.030,52.381 123.981,54.858 116.503 L 56.810 110.609 58.464 110.488 C 59.374 110.422,60.118 110.448,60.118 110.546 C 60.118 110.644,59.307 112.997,58.315 115.775 C 57.324 118.553,56.368 121.267,56.192 121.807 C 55.452 124.075,53.022 130.634,52.394 132.057 C 51.776 133.458,51.582 133.595,50.219 133.595 C 48.402 133.595,48.341 133.200,49.701 130.228 L 50.679 128.090 49.283 124.261 C 48.515 122.155,47.646 119.813,47.352 119.057 C 44.258 111.105,44.157 110.312,46.252 110.487 C 47.649 110.604,47.746 110.708,48.552 112.967 M66.012 111.198 C 66.012 111.631,66.183 111.984,66.393 111.984 C 66.602 111.984,67.403 111.631,68.173 111.198 C 72.058 109.016,76.804 110.976,77.812 115.180 C 79.795 123.447,74.119 130.469,68.308 126.936 C 66.551 125.867,66.405 126.110,66.405 130.082 L 66.405 133.595 64.833 133.595 L 63.261 133.595 63.261 122.004 L 63.261 110.413 64.637 110.413 C 65.750 110.413,66.012 110.562,66.012 111.198 M93.084 111.041 C 95.459 112.226,97.336 116.667,96.289 118.624 C 95.892 119.365,95.438 119.436,90.464 119.537 L 85.069 119.646 84.953 120.642 C 84.653 123.209,88.578 125.910,91.252 124.977 C 95.034 123.659,97.626 125.371,94.303 126.993 C 88.026 130.054,81.729 126.127,81.729 119.150 C 81.729 112.163,87.323 108.167,93.084 111.041 M87.363 113.046 C 86.100 113.676,84.478 116.436,85.040 116.998 C 85.375 117.333,92.948 117.399,93.277 117.070 C 93.850 116.497,92.611 113.864,91.430 113.144 C 89.940 112.236,89.033 112.214,87.363 113.046 M69.665 113.168 C 64.853 115.106,65.036 122.794,69.941 124.816 C 72.608 125.915,74.838 123.164,74.805 118.814 C 74.770 114.171,72.732 111.933,69.665 113.168 M18.071 117.677 C 19.215 119.056,18.300 119.450,13.949 119.450 C 9.642 119.450,8.994 119.188,9.572 117.682 C 9.900 116.829,17.363 116.825,18.071 117.677 M33.700 149.247 C 34.086 149.492,34.174 152.098,34.093 160.931 L 33.988 172.299 32.829 172.431 C 30.732 172.669,30.648 172.218,30.648 160.660 C 30.648 148.882,31.008 147.538,33.700 149.247 M100.754 151.123 C 101.187 151.289,101.375 151.872,101.375 153.045 C 101.375 154.970,101.703 155.206,104.380 155.206 C 107.085 155.206,106.859 157.299,104.133 157.493 C 101.442 157.684,101.375 157.824,101.375 163.266 C 101.375 169.096,101.787 169.967,104.469 169.808 C 105.934 169.722,106.090 169.801,106.090 170.632 C 106.090 172.025,105.348 172.495,103.152 172.495 C 99.154 172.495,98.235 170.830,98.226 163.569 C 98.219 158.063,98.150 157.809,96.536 157.414 C 94.948 157.025,95.213 155.569,96.955 155.120 C 98.152 154.811,98.232 154.683,98.232 153.063 C 98.232 151.747,98.396 151.292,98.919 151.155 C 100.003 150.872,100.096 150.870,100.754 151.123 M42.827 156.184 L 43.199 157.163 44.641 156.184 C 46.401 154.990,49.379 154.853,51.127 155.885 C 53.396 157.226,53.865 159.049,53.743 166.059 L 53.635 172.299 52.259 172.299 L 50.884 172.299 50.680 166.208 C 50.383 157.301,48.487 155.404,44.106 159.630 L 42.829 160.861 42.829 166.702 L 42.829 172.543 41.356 172.421 L 39.882 172.299 39.775 164.254 C 39.717 159.830,39.755 155.984,39.861 155.708 C 40.227 154.755,42.418 155.107,42.827 156.184 M61.297 155.969 C 61.297 157.224,62.039 157.304,63.668 156.226 C 70.139 151.944,76.801 161.083,72.807 168.762 C 71.048 172.143,66.617 173.682,63.854 171.872 C 62.387 170.911,62.083 171.460,62.083 175.065 C 62.083 178.266,62.051 178.382,61.101 178.620 C 58.896 179.174,58.939 179.412,58.939 166.810 L 58.939 155.206 60.118 155.206 C 61.023 155.206,61.297 155.383,61.297 155.969 M81.380 161.886 C 81.512 165.452,81.645 168.416,81.675 168.473 C 82.112 169.311,84.332 170.013,85.408 169.655 C 88.472 168.635,88.770 167.924,88.890 161.331 L 88.998 155.403 90.570 155.403 L 92.141 155.403 92.253 163.065 C 92.314 167.279,92.267 171.125,92.147 171.611 C 91.859 172.785,90.002 172.859,89.701 171.709 C 89.442 170.716,88.768 170.716,87.141 171.708 C 85.469 172.727,82.558 172.749,80.923 171.754 C 78.565 170.321,78.402 169.769,78.257 162.750 C 78.102 155.269,78.135 155.113,79.860 155.279 L 81.139 155.403 81.380 161.886 M64.983 158.314 C 59.403 160.854,62.067 171.860,67.702 169.550 C 70.918 168.233,71.458 159.119,68.375 158.219 C 68.048 158.124,67.515 157.941,67.191 157.812 C 66.866 157.683,65.873 157.909,64.983 158.314 M18.071 162.470 C 19.228 163.865,18.308 164.244,13.765 164.244 C 9.401 164.244,8.210 163.630,9.692 162.148 C 10.259 161.582,17.566 161.863,18.071 162.470 M44.859 193.670 C 51.171 196.422,52.629 209.280,47.151 213.889 C 41.568 218.586,32.962 216.900,30.624 210.651 C 26.466 199.536,34.990 189.367,44.859 193.670 M77.800 196.857 L 77.996 198.625 80.081 198.834 C 83.855 199.213,83.785 201.572,80.000 201.572 C 77.948 201.572,77.676 202.390,77.875 207.968 C 78.064 213.288,78.432 213.986,80.844 213.609 C 82.584 213.337,83.313 214.526,82.131 215.708 C 80.507 217.332,75.982 216.240,75.231 214.043 C 75.065 213.559,74.824 210.599,74.695 207.466 C 74.469 201.997,74.425 201.763,73.604 201.646 C 71.557 201.355,71.632 198.821,73.688 198.821 C 74.571 198.821,74.656 198.668,74.656 197.086 C 74.656 195.243,74.993 194.887,76.621 195.013 C 77.479 195.079,77.628 195.312,77.800 196.857 M128.803 196.955 L 128.923 198.821 130.375 198.827 C 134.639 198.842,135.022 201.073,130.845 201.562 L 129.077 201.768 128.967 207.029 C 128.841 213.047,129.190 213.986,131.430 213.645 C 133.603 213.314,134.296 214.292,132.945 215.784 C 132.120 216.696,129.028 216.759,127.787 215.890 C 126.081 214.695,125.737 213.353,125.737 207.910 C 125.737 202.352,125.596 201.572,124.591 201.572 C 122.403 201.572,122.176 199.445,124.305 198.897 C 125.354 198.627,125.557 198.376,125.654 197.227 C 125.835 195.061,126.013 194.831,127.404 194.965 C 128.632 195.083,128.689 195.164,128.803 196.955 M38.185 195.964 C 32.567 196.654,31.008 209.671,36.178 212.724 C 40.868 215.495,46.331 212.212,46.958 206.246 C 47.735 198.854,44.597 195.177,38.185 195.964 M57.226 199.122 C 57.521 199.311,57.723 201.547,57.817 205.634 L 57.959 211.857 59.107 212.845 C 60.616 214.143,62.490 213.881,64.309 212.118 L 65.619 210.848 65.619 205.038 L 65.619 199.229 66.606 198.981 C 68.640 198.471,68.762 198.976,68.762 207.899 L 68.762 216.095 67.802 216.336 C 66.608 216.636,66.012 216.291,66.012 215.301 C 66.012 214.313,65.434 214.337,63.959 215.387 C 61.331 217.259,57.584 216.656,55.738 214.065 C 54.647 212.532,54.054 200.563,55.012 199.408 C 55.534 198.779,56.499 198.654,57.226 199.122 M88.723 199.293 C 88.982 199.552,89.194 200.088,89.194 200.483 C 89.194 201.122,89.432 201.070,91.334 200.012 C 96.894 196.919,101.144 200.142,101.164 207.466 C 101.183 214.672,96.454 218.673,91.424 215.706 C 89.725 214.703,89.587 214.970,89.587 219.286 L 89.587 222.397 88.016 222.397 L 86.444 222.397 86.444 210.838 C 86.444 199.120,86.463 198.956,87.839 198.852 C 88.066 198.835,88.464 199.033,88.723 199.293 M107.926 199.126 C 108.233 199.322,108.430 201.315,108.516 205.112 C 108.711 213.757,110.937 216.158,115.038 212.149 L 116.306 210.909 116.306 205.249 C 116.306 199.210,116.733 198.147,118.835 198.954 C 119.588 199.243,119.779 215.860,119.035 216.320 C 118.384 216.722,116.699 216.157,116.699 215.536 C 116.699 214.820,115.903 214.317,115.575 214.826 C 114.516 216.466,110.307 216.987,108.273 215.731 C 105.978 214.312,105.305 211.940,105.305 205.274 C 105.305 199.340,105.936 197.860,107.926 199.126 M92.731 202.012 C 87.965 203.907,88.328 212.503,93.220 213.577 C 96.151 214.221,97.839 212.041,97.839 207.611 C 97.839 202.778,95.966 200.726,92.731 202.012 M18.071 206.478 C 19.215 207.858,18.300 208.251,13.949 208.251 C 9.642 208.251,8.994 207.990,9.572 206.483 C 9.900 205.631,17.363 205.626,18.071 206.478 M34.185 245.650 C 34.428 256.215,34.973 257.347,39.821 257.362 C 44.466 257.376,44.947 256.337,45.187 245.776 L 45.383 237.132 46.955 237.132 L 48.527 237.132 48.522 245.580 C 48.516 257.623,47.002 260.118,39.699 260.118 C 32.312 260.118,30.660 257.349,30.653 244.957 C 30.648 236.721,30.617 236.848,32.599 237.015 L 33.988 237.132 34.185 245.650 M142.118 237.578 C 142.685 239.056,141.751 239.480,137.483 239.686 L 133.399 239.882 133.399 243.615 L 133.399 247.348 137.132 247.544 C 141.153 247.756,141.847 247.984,141.847 249.093 C 141.847 250.041,140.797 250.283,136.653 250.289 L 133.227 250.295 133.116 255.108 L 133.006 259.921 131.434 259.921 L 129.862 259.921 129.758 249.200 C 129.690 242.255,129.799 238.207,130.066 237.707 C 130.645 236.625,141.707 236.507,142.118 237.578 M62.207 243.281 C 63.996 244.223,63.930 246.243,62.126 245.780 C 55.296 244.025,53.743 247.953,60.250 250.526 C 66.941 253.171,65.280 260.118,57.957 260.118 C 54.452 260.118,52.955 259.351,53.120 257.640 C 53.252 256.280,53.214 256.284,56.115 257.285 C 59.211 258.353,62.036 256.733,60.872 254.557 C 60.519 253.898,57.675 252.259,56.885 252.259 C 55.500 252.259,53.043 249.189,53.048 247.465 C 53.057 244.184,58.874 241.527,62.207 243.281 M77.650 243.467 C 80.338 244.743,80.550 245.455,80.550 253.204 L 80.550 260.118 79.562 260.118 C 79.019 260.118,78.224 259.899,77.794 259.630 C 77.173 259.242,76.854 259.242,76.233 259.630 C 74.013 261.017,69.241 260.002,67.919 257.863 C 65.489 253.933,69.004 249.902,74.861 249.902 L 77.407 249.902 77.407 248.602 C 77.407 245.805,73.470 244.672,70.054 246.486 C 68.837 247.132,68.777 247.128,68.368 246.363 C 67.014 243.833,73.896 241.686,77.650 243.467 M98.958 243.177 C 99.731 243.667,99.353 244.928,98.298 245.383 C 97.465 245.742,97.407 245.947,97.627 247.741 C 98.289 253.126,94.603 256.080,88.620 254.958 C 87.752 254.795,87.415 255.667,87.995 256.571 C 88.263 256.988,89.438 257.208,92.219 257.363 C 102.521 257.934,101.767 266.405,91.414 266.405 C 85.274 266.405,82.679 263.711,84.942 259.686 C 85.709 258.321,85.741 258.052,85.255 257.078 C 84.957 256.481,84.673 255.897,84.624 255.780 C 84.575 255.663,84.814 254.991,85.155 254.287 C 85.689 253.185,85.705 252.718,85.274 250.922 C 84.504 247.710,85.489 245.242,88.212 243.560 C 89.487 242.773,97.849 242.474,98.958 243.177 M112.504 243.196 C 115.581 244.365,117.897 248.806,116.747 251.330 C 116.331 252.243,116.225 252.259,110.814 252.259 L 105.305 252.259 105.305 253.444 C 105.305 256.820,107.589 257.746,114.735 257.264 C 116.645 257.135,116.930 258.597,115.172 259.506 C 111.167 261.576,104.207 259.714,102.799 256.195 C 99.760 248.599,105.720 240.616,112.504 243.196 M148.691 243.068 C 149.033 243.199,149.312 243.647,149.312 244.064 C 149.312 244.770,149.413 244.754,150.779 243.826 C 153.293 242.117,156.162 242.571,155.925 244.640 C 155.805 245.699,155.657 245.790,153.757 245.981 C 152.636 246.094,151.661 246.271,151.592 246.374 C 151.522 246.477,151.113 246.978,150.683 247.486 C 150.004 248.288,149.876 249.165,149.705 254.165 L 149.509 259.921 148.175 260.049 C 146.243 260.233,146.182 259.961,146.175 251.212 C 146.168 242.601,146.307 242.153,148.691 243.068 M169.350 243.810 C 171.915 245.430,173.388 248.929,172.494 251.281 L 172.122 252.259 166.611 252.259 L 161.100 252.259 161.100 253.294 C 161.100 256.514,164.013 258.175,168.389 257.450 C 172.129 256.830,173.693 258.096,170.943 259.518 C 167.078 261.517,160.240 259.805,158.721 256.460 C 155.055 248.385,162.521 239.499,169.350 243.810 M185.645 243.491 C 186.409 243.855,187.033 244.340,187.033 244.568 C 187.033 244.796,187.492 244.488,188.052 243.883 C 190.626 241.107,190.766 241.661,190.766 254.617 L 190.766 266.208 189.391 266.208 L 188.016 266.208 187.903 262.377 C 187.841 260.270,187.714 258.546,187.621 258.546 C 187.527 258.546,186.821 258.900,186.051 259.332 C 180.694 262.341,176.238 258.862,176.238 251.670 C 176.237 244.701,180.468 241.023,185.645 243.491 M199.239 248.723 C 199.589 257.704,201.646 260.009,205.796 256.068 L 207.073 254.856 207.073 249.081 C 207.073 244.177,207.166 243.270,207.694 243.068 C 208.980 242.574,209.846 242.837,210.226 243.837 C 210.639 244.924,210.752 257.775,210.361 259.234 C 210.041 260.429,207.886 260.505,207.579 259.332 C 207.322 258.349,206.758 258.349,205.501 259.332 C 202.869 261.390,197.747 259.811,196.875 256.672 C 196.269 254.488,196.334 243.342,196.955 243.082 C 198.838 242.294,199.005 242.709,199.239 248.723 M226.093 243.720 C 228.790 245.262,230.394 248.845,229.472 251.270 C 229.109 252.225,229.038 252.238,223.688 252.346 L 218.271 252.456 218.375 253.765 C 218.623 256.888,221.147 258.147,225.663 257.401 C 228.583 256.919,229.077 257.030,229.077 258.166 C 229.077 261.200,218.734 260.794,216.365 257.667 C 210.897 250.450,218.586 239.427,226.093 243.720 M236.582 243.713 C 236.835 244.199,237.089 244.654,237.148 244.724 C 237.206 244.793,237.974 244.396,238.855 243.840 C 244.579 240.226,247.937 243.914,247.937 253.815 L 247.937 260.118 246.365 260.118 L 244.794 260.118 244.794 254.468 C 244.794 245.512,242.596 243.109,238.212 247.272 L 236.935 248.484 236.935 254.301 L 236.935 260.118 235.363 260.118 L 233.792 260.118 233.792 251.735 C 233.792 247.125,233.910 243.235,234.054 243.091 C 234.645 242.500,236.142 242.868,236.582 243.713 M262.878 243.620 C 265.963 245.193,265.384 247.868,262.283 246.367 C 258.213 244.397,255.403 246.564,255.403 251.670 C 255.403 256.689,258.361 258.972,262.279 256.974 C 264.266 255.961,264.834 255.983,264.827 257.073 C 264.795 261.716,255.422 261.240,252.989 256.472 C 249.154 248.954,255.970 240.096,262.878 243.620 M269.619 243.320 C 270.151 243.746,272.433 249.579,273.522 253.297 C 273.965 254.810,274.944 255.762,275.228 254.956 C 275.332 254.661,276.240 251.945,277.245 248.919 C 279.139 243.219,279.361 242.845,280.857 242.835 C 282.627 242.823,282.566 243.129,278.569 254.224 C 277.673 256.709,276.797 259.185,276.621 259.725 C 274.983 264.754,274.050 266.208,272.464 266.208 C 270.699 266.208,270.642 265.855,271.943 262.988 C 272.970 260.727,272.930 260.419,270.939 255.267 C 267.708 246.909,266.683 243.537,267.261 243.170 C 268.007 242.697,268.912 242.755,269.619 243.320 M89.156 246.407 C 87.017 248.696,88.459 253.045,91.356 253.045 C 92.899 253.045,94.695 250.899,94.695 249.055 C 94.695 245.696,91.325 244.084,89.156 246.407 M107.737 245.718 C 106.654 246.319,105.311 248.252,105.307 249.214 C 105.304 249.937,113.284 250.311,113.672 249.607 C 114.944 247.293,110.338 244.275,107.737 245.718 M163.549 245.669 C 162.428 246.210,160.951 248.553,161.246 249.322 C 161.422 249.780,162.299 249.902,165.410 249.902 L 169.352 249.902 169.352 248.894 C 169.352 246.132,166.210 244.387,163.549 245.669 M220.527 245.707 C 219.395 246.336,218.585 247.494,218.409 248.733 L 218.271 249.705 222.299 249.817 L 226.326 249.929 226.326 248.907 C 226.326 246.115,223.049 244.307,220.527 245.707 M181.651 245.959 C 178.385 247.344,178.640 256.006,181.988 257.393 C 186.575 259.293,190.305 250.894,186.509 247.214 C 185.102 245.851,183.117 245.338,181.651 245.959 M18.145 250.207 C 19.419 251.482,18.032 252.063,13.715 252.063 C 9.372 252.063,8.200 251.398,10.075 249.998 C 11.015 249.296,17.400 249.462,18.145 250.207 M71.808 252.983 C 70.172 253.970,70.241 256.518,71.930 257.516 C 74.295 258.913,77.407 256.912,77.407 253.993 L 77.407 252.259 75.147 252.295 C 73.797 252.317,72.453 252.593,71.808 252.983 M88.605 260.161 C 88.173 260.417,87.789 260.645,87.753 260.668 C 85.912 261.809,88.412 264.124,91.524 264.162 C 94.822 264.201,97.677 261.287,95.252 260.356 C 93.893 259.835,89.380 259.702,88.605 260.161 M87.426 291.945 L 87.426 303.929 86.051 303.929 C 84.924 303.929,84.653 303.770,84.550 303.045 C 84.395 301.949,84.407 301.949,82.515 303.143 C 78.146 305.902,73.562 303.395,72.589 297.716 C 71.227 289.767,76.426 284.796,83.006 287.756 L 84.479 288.419 84.479 284.068 L 84.479 279.717 85.953 279.839 L 87.426 279.961 87.426 291.945 M33.563 280.789 C 34.101 280.995,34.185 282.071,34.187 288.745 C 34.189 297.515,34.454 298.989,36.261 300.278 C 38.314 301.742,42.064 301.536,43.734 299.866 L 44.990 298.611 45.117 290.077 C 45.249 281.244,45.381 280.550,46.924 280.550 C 48.591 280.550,48.723 281.126,48.723 288.422 C 48.723 300.978,46.870 304.126,39.476 304.126 C 32.418 304.126,30.648 301.044,30.648 288.756 C 30.648 280.492,30.912 279.771,33.563 280.789 M160.479 280.789 C 161.218 281.072,161.308 282.727,160.609 283.179 C 160.339 283.354,158.350 283.585,156.189 283.694 L 152.259 283.890 152.142 286.832 C 151.949 291.675,151.845 291.552,156.148 291.552 C 162.677 291.552,162.822 293.813,156.305 293.994 L 152.259 294.106 152.063 299.018 L 151.866 303.929 150.393 304.051 L 148.919 304.173 148.919 292.624 C 148.919 286.271,149.037 280.956,149.181 280.812 C 149.509 280.485,159.632 280.464,160.479 280.789 M112.934 282.753 C 113.367 282.919,113.556 283.503,113.556 284.676 C 113.556 286.601,113.884 286.837,116.561 286.837 C 119.251 286.837,119.031 288.886,116.306 289.205 C 113.528 289.529,113.556 289.472,113.556 294.933 C 113.556 300.759,114.151 301.941,116.859 301.502 C 118.155 301.291,118.271 301.351,118.271 302.228 C 118.271 303.656,117.544 304.126,115.333 304.126 C 111.352 304.126,110.413 302.446,110.413 295.330 C 110.413 289.947,110.269 289.194,109.240 289.194 C 107.381 289.194,107.265 286.979,109.112 286.767 C 110.127 286.651,110.226 286.491,110.335 284.799 C 110.448 283.042,110.628 282.807,112.050 282.560 C 112.195 282.535,112.593 282.622,112.934 282.753 M56.934 287.917 C 57.467 288.627,57.849 288.848,58.048 288.562 C 60.648 284.806,67.303 286.931,68.647 291.945 C 70.839 300.126,64.918 306.931,58.765 303.301 L 57.367 302.476 57.367 305.973 C 57.367 308.169,57.192 309.645,56.896 309.941 C 56.174 310.663,54.692 310.502,54.238 309.653 C 53.788 308.812,53.651 287.541,54.093 287.099 C 54.709 286.483,56.175 286.906,56.934 287.917 M102.172 287.508 C 104.662 289.230,104.988 290.515,104.835 298.035 C 104.705 304.444,104.230 305.409,102.139 303.516 C 101.448 302.891,101.326 302.889,100.417 303.485 C 97.111 305.651,91.997 303.566,91.658 299.915 C 91.297 296.030,93.535 293.910,97.995 293.910 C 101.764 293.910,102.848 292.812,101.210 290.653 C 100.114 289.208,95.623 289.065,94.126 290.427 C 92.960 291.487,91.563 290.000,92.509 288.706 C 93.805 286.935,100.196 286.143,102.172 287.508 M132.364 287.786 C 134.224 288.960,135.314 291.130,135.342 293.713 L 135.363 295.678 129.796 295.874 C 123.634 296.092,123.588 296.107,123.958 297.792 C 124.617 300.792,127.434 302.241,130.963 301.394 C 134.642 300.511,136.552 302.194,133.376 303.521 C 125.218 306.929,117.812 299.568,121.212 291.430 C 122.984 287.189,128.541 285.373,132.364 287.786 M168.249 287.688 L 168.814 288.539 170.000 287.662 C 172.014 286.173,174.656 286.597,174.656 288.409 L 174.656 289.784 172.799 289.795 C 169.466 289.814,168.807 291.119,168.566 298.182 L 168.369 303.929 166.896 304.051 L 165.422 304.173 165.422 295.505 L 165.422 286.837 166.553 286.837 C 167.277 286.837,167.887 287.143,168.249 287.688 M188.216 287.721 C 190.439 289.234,191.076 290.435,191.120 293.198 L 191.159 295.678 185.855 295.874 C 179.753 296.100,179.488 296.191,179.976 297.892 C 180.856 300.961,183.482 302.315,186.771 301.394 C 190.306 300.404,192.284 301.797,189.587 303.377 C 185.758 305.622,179.126 303.821,177.375 300.061 C 173.684 292.134,181.548 283.183,188.216 287.721 M205.122 287.828 L 206.692 288.819 207.069 287.828 C 207.535 286.604,209.203 286.463,209.809 287.597 C 210.536 288.955,210.345 309.048,209.599 309.795 C 207.760 311.634,206.680 310.235,206.680 306.012 C 206.680 302.252,206.470 301.967,204.715 303.340 C 202.202 305.305,197.442 303.926,195.884 300.781 C 191.974 292.886,198.544 283.675,205.122 287.828 M218.075 293.320 C 218.287 300.101,218.336 300.298,220.059 301.189 C 221.425 301.895,223.170 301.344,224.645 299.742 C 225.454 298.864,225.526 298.362,225.628 292.914 L 225.737 287.033 227.308 287.033 L 228.880 287.033 228.880 295.481 L 228.880 303.929 227.603 304.052 C 226.535 304.155,226.326 304.043,226.326 303.365 C 226.326 302.328,225.276 302.317,223.969 303.340 C 222.766 304.280,219.350 304.399,217.721 303.556 C 215.427 302.370,215.141 301.406,214.995 294.380 C 214.841 286.900,214.874 286.744,216.598 286.910 L 217.878 287.033 218.075 293.320 M244.955 287.654 C 246.640 288.648,247.764 290.408,248.124 292.616 C 248.649 295.834,248.582 295.873,242.704 295.880 C 236.714 295.887,236.383 296.002,236.748 297.945 C 237.277 300.765,240.132 302.113,243.918 301.331 C 247.487 300.593,249.003 301.917,246.331 303.438 C 242.858 305.415,236.051 303.836,234.339 300.657 C 232.737 297.682,233.510 290.596,235.640 288.732 C 237.995 286.671,242.421 286.159,244.955 287.654 M255.289 287.623 C 255.549 288.616,256.222 288.616,257.849 287.624 C 259.459 286.643,262.374 286.590,263.981 287.512 C 266.337 288.864,266.601 289.848,266.601 297.250 L 266.601 303.929 265.179 304.048 C 263.351 304.201,263.274 303.917,263.267 296.987 C 263.260 290.061,262.612 288.787,259.528 289.635 C 256.619 290.435,256.189 291.404,256.183 297.167 C 256.176 303.904,256.094 304.201,254.271 304.048 L 252.849 303.929 252.742 295.885 C 252.683 291.460,252.722 287.615,252.828 287.339 C 253.148 286.505,255.054 286.725,255.289 287.623 M281.925 287.585 C 284.155 288.890,284.276 291.756,282.052 290.602 C 277.099 288.033,274.263 289.833,274.263 295.547 C 274.263 300.658,276.878 302.742,280.936 300.866 C 283.308 299.770,283.694 299.809,283.694 301.141 C 283.694 304.858,275.262 305.259,272.554 301.670 C 267.049 294.376,274.471 283.220,281.925 287.585 M289.055 288.605 C 289.367 289.470,289.961 291.149,290.373 292.338 C 293.409 301.086,292.973 301.029,295.672 293.023 C 297.585 287.346,297.748 287.027,298.780 286.906 C 301.064 286.639,301.185 287.446,299.481 291.552 C 299.257 292.092,298.619 293.816,298.063 295.383 C 295.391 302.917,294.988 304.036,294.416 305.501 C 292.575 310.215,292.398 310.469,291.051 310.338 C 289.219 310.161,289.239 308.977,291.135 305.307 C 291.454 304.689,290.460 301.527,287.611 294.106 C 284.938 287.144,284.911 286.719,287.157 286.916 C 288.313 287.018,288.561 287.239,289.055 288.605 M60.707 289.697 C 55.931 291.244,55.850 299.543,60.594 301.335 C 63.639 302.485,65.422 300.229,65.422 295.228 C 65.422 290.517,63.854 288.677,60.707 289.697 M78.325 289.765 C 74.777 291.311,74.700 299.373,78.217 301.191 C 82.954 303.641,87.048 294.750,82.907 291.008 C 82.041 290.227,81.172 289.587,80.974 289.587 C 80.776 289.587,80.379 289.505,80.091 289.405 C 79.803 289.305,79.009 289.467,78.325 289.765 M126.048 289.803 C 124.632 290.572,123.411 293.047,124.201 293.547 C 125.116 294.126,132.014 293.998,132.245 293.398 C 133.256 290.763,128.917 288.246,126.048 289.803 M181.969 289.743 C 180.862 290.356,179.994 291.785,179.975 293.026 C 179.960 293.960,187.435 294.456,187.991 293.557 C 189.495 291.122,184.821 288.162,181.969 289.743 M200.536 289.949 C 195.747 292.869,198.327 303.135,203.390 301.304 C 207.962 299.650,208.142 291.651,203.649 289.774 C 201.920 289.052,202.016 289.046,200.536 289.949 M238.995 289.715 C 237.863 290.344,237.052 291.501,236.877 292.741 L 236.739 293.713 240.766 293.825 L 244.794 293.937 244.781 292.646 C 244.754 289.870,241.596 288.270,238.995 289.715 M17.867 294.049 C 19.609 295.323,18.370 295.874,13.765 295.874 C 9.443 295.874,9.430 295.871,9.430 294.925 C 9.430 293.692,9.767 293.585,13.776 293.548 C 16.029 293.527,17.379 293.692,17.867 294.049 M97.642 296.248 C 97.210 296.411,96.474 296.675,96.006 296.835 C 94.258 297.435,94.420 300.418,96.259 301.505 C 97.572 302.280,98.590 302.015,100.513 300.397 C 103.477 297.903,101.363 294.849,97.642 296.248 M258.075 323.851 C 258.574 324.350,258.789 346.257,258.308 347.512 C 257.868 348.658,255.403 348.149,255.403 346.913 C 255.403 346.504,255.138 346.169,254.813 346.169 C 254.489 346.169,254.224 346.313,254.224 346.489 C 254.224 347.964,248.926 348.566,246.910 347.320 C 242.012 344.293,242.168 334.011,247.152 331.434 C 248.390 330.793,252.266 330.631,252.868 331.194 C 254.603 332.814,255.010 332.234,255.010 328.140 C 255.010 323.705,256.226 322.002,258.075 323.851 M116.910 324.716 C 117.536 325.174,117.598 325.457,117.273 326.386 C 116.570 328.394,113.556 328.004,113.556 325.905 C 113.556 324.363,115.490 323.678,116.910 324.716 M219.086 324.466 C 220.644 325.533,219.832 327.809,217.957 327.626 C 216.309 327.465,215.489 325.591,216.685 324.716 C 217.511 324.113,218.430 324.017,219.086 324.466 M34.093 334.872 L 34.198 344.990 37.629 344.996 C 42.594 345.003,43.623 345.464,43.008 347.403 C 42.748 348.221,32.660 348.523,31.434 347.749 C 30.939 347.437,30.826 345.683,30.729 336.761 C 30.599 324.956,30.686 324.434,32.737 324.633 L 33.988 324.754 34.093 334.872 M178.574 325.454 C 184.919 329.048,182.108 338.689,174.710 338.709 C 170.852 338.719,170.964 338.579,170.838 343.559 L 170.727 347.937 169.568 348.069 C 167.479 348.307,167.387 347.826,167.387 336.689 C 167.387 323.678,167.011 324.556,172.584 324.564 C 176.445 324.570,177.214 324.684,178.574 325.454 M171.350 327.464 C 171.052 327.823,170.934 329.418,171.007 332.081 L 171.120 336.149 172.471 336.278 C 177.160 336.724,180.316 332.354,177.849 328.831 C 176.766 327.286,172.281 326.342,171.350 327.464 M57.520 332.515 C 58.910 333.850,59.313 334.547,59.527 335.990 C 60.095 339.804,60.307 339.659,53.831 339.882 L 48.134 340.079 48.255 341.257 C 48.412 342.771,49.473 344.253,50.903 344.952 C 52.156 345.566,52.930 345.598,56.429 345.179 C 59.767 344.779,60.406 346.110,57.533 347.480 C 49.518 351.302,41.771 342.958,45.810 334.853 C 48.011 330.436,54.093 329.222,57.520 332.515 M74.307 331.662 C 76.390 333.145,76.621 334.101,76.621 341.250 C 76.621 348.549,76.488 348.876,74.047 347.561 C 72.852 346.918,72.688 346.913,71.850 347.500 C 69.722 348.990,65.220 347.989,63.885 345.728 C 61.743 342.102,64.573 337.917,69.166 337.917 C 72.562 337.917,73.477 337.573,73.477 336.297 C 73.477 333.421,68.578 332.278,65.722 334.486 C 65.455 334.693,64.957 334.755,64.615 334.624 C 63.837 334.325,63.997 332.413,64.833 332.027 C 65.157 331.877,65.776 331.560,66.208 331.323 C 67.678 330.515,73.010 330.738,74.307 331.662 M84.758 331.631 C 85.012 332.600,85.205 332.600,86.444 331.631 C 87.987 330.424,90.652 330.557,91.250 331.870 C 91.737 332.938,90.767 334.278,89.897 333.740 C 89.100 333.247,86.990 334.086,86.051 335.269 C 85.131 336.429,85.056 336.869,84.872 342.222 L 84.676 347.937 83.301 347.937 L 81.925 347.937 81.819 339.391 L 81.714 330.845 83.133 330.845 C 84.222 330.845,84.601 331.028,84.758 331.631 M97.332 331.631 C 97.589 332.614,98.154 332.614,99.411 331.631 C 100.819 330.529,104.568 330.546,106.134 331.662 C 108.217 333.145,108.448 334.101,108.448 341.250 C 108.448 348.308,108.386 348.499,106.286 347.972 L 105.305 347.726 105.305 341.865 C 105.305 333.089,103.522 331.045,99.188 334.849 L 97.839 336.034 97.839 341.880 L 97.839 347.726 96.857 347.972 C 94.704 348.513,94.695 348.479,94.695 339.305 L 94.695 330.845 95.911 330.845 C 96.796 330.845,97.182 331.058,97.332 331.631 M117.002 339.391 L 116.896 347.937 115.521 347.937 L 114.145 347.937 114.039 339.893 C 113.916 330.626,113.875 330.845,115.712 330.845 L 117.108 330.845 117.002 339.391 M125.344 331.631 C 125.344 332.619,125.777 332.620,127.397 331.632 C 130.689 329.625,134.895 331.076,136.109 334.637 C 137.017 337.301,137.023 347.547,136.117 347.895 C 133.655 348.840,133.202 347.817,133.202 341.302 C 133.202 334.158,132.115 332.315,128.748 333.750 C 126.000 334.921,125.771 335.536,125.649 342.057 L 125.540 347.937 124.381 348.069 C 122.360 348.299,122.200 347.643,122.200 339.087 C 122.200 334.842,122.318 331.251,122.462 331.107 C 123.128 330.441,125.344 330.844,125.344 331.631 M155.010 331.784 C 155.010 332.193,154.656 332.723,154.224 332.963 C 153.792 333.203,153.366 333.441,153.278 333.494 C 153.190 333.546,153.155 334.731,153.200 336.126 C 153.355 340.931,150.895 343.305,146.171 342.909 C 143.185 342.659,142.526 343.002,143.637 344.229 C 144.214 344.867,144.861 344.990,147.621 344.990 C 152.559 344.990,154.813 346.349,154.813 349.324 C 154.813 352.455,152.162 354.028,146.881 354.028 C 140.719 354.028,138.168 351.197,140.674 347.142 C 141.432 345.914,141.437 345.811,140.791 344.684 C 140.151 343.570,140.152 343.427,140.807 341.975 C 141.351 340.769,141.409 340.209,141.083 339.351 C 140.078 336.709,140.906 333.611,143.076 331.891 C 144.841 330.492,155.010 330.401,155.010 331.784 M195.677 331.434 C 197.842 332.553,199.015 334.613,199.017 337.296 L 199.018 339.686 193.418 339.795 L 187.819 339.904 187.832 341.366 C 187.857 344.170,191.117 346.216,194.303 345.428 C 197.090 344.738,197.520 344.694,198.139 345.041 C 200.247 346.220,196.896 348.134,192.723 348.134 C 187.059 348.134,184.477 345.434,184.483 339.520 C 184.491 332.651,190.139 328.570,195.677 331.434 M206.486 331.639 L 206.738 332.434 208.199 331.613 C 210.564 330.284,213.124 330.639,213.286 332.318 C 213.409 333.594,213.408 333.595,211.577 333.595 C 210.017 333.595,209.546 333.794,208.409 334.931 L 207.073 336.267 207.073 341.996 L 207.073 347.726 206.091 347.972 C 203.938 348.513,203.929 348.479,203.929 339.305 L 203.929 330.845 205.082 330.845 C 205.893 330.845,206.308 331.080,206.486 331.639 M219.556 339.391 L 219.450 347.937 218.075 347.937 L 216.699 347.937 216.594 339.391 L 216.488 330.845 218.075 330.845 L 219.662 330.845 219.556 339.391 M236.070 331.454 C 241.716 334.270,241.463 344.417,235.674 347.386 C 227.713 351.468,220.144 341.173,225.538 333.599 C 227.331 331.081,233.006 329.925,236.070 331.454 M50.515 333.604 C 46.706 336.038,47.720 337.907,52.849 337.906 C 56.460 337.905,56.859 337.644,56.267 335.667 C 55.517 333.163,52.756 332.173,50.515 333.604 M145.308 333.522 C 142.494 335.227,143.748 340.668,146.955 340.668 C 150.270 340.668,151.419 335.446,148.537 333.474 C 147.363 332.671,146.697 332.680,145.308 333.522 M190.064 333.568 C 186.124 336.093,187.075 337.907,192.338 337.906 C 195.828 337.905,196.324 337.619,195.830 335.896 C 195.105 333.369,192.203 332.198,190.064 333.568 M229.990 333.776 C 225.948 335.534,226.344 343.995,230.525 345.193 C 234.543 346.346,237.440 342.948,236.696 337.957 C 236.120 334.092,233.302 332.335,229.990 333.776 M248.700 334.091 C 244.295 337.059,247.161 347.006,251.866 345.084 C 257.155 342.923,255.896 333.202,250.327 333.202 C 250.157 333.202,249.425 333.602,248.700 334.091 M18.071 338.109 C 19.215 339.488,18.300 339.882,13.949 339.882 C 9.642 339.882,8.994 339.620,9.572 338.114 C 9.900 337.261,17.363 337.257,18.071 338.109 M67.682 340.887 C 66.125 342.127,65.984 343.672,67.314 344.922 C 69.478 346.954,73.623 344.762,73.400 341.703 L 73.281 340.079 71.120 339.974 C 69.295 339.886,68.760 340.029,67.682 340.887 M144.106 348.039 C 140.502 350.273,145.809 353.346,149.901 351.395 C 151.296 350.729,152.119 349.189,151.425 348.540 C 150.271 347.461,145.559 347.138,144.106 348.039 " stroke="none" fill="#f4f4f3" fill-rule="evenodd"></path></g></svg>