<svg id="svg" xmlns="http://www.w3.org/2000/svg" xmlns:xlink="http://www.w3.org/1999/xlink" width="400" height="806.7796610169491" viewBox="0, 0, 400,806.7796610169491" version="1.1"><g id="svgg"><path id="path0" d="M20.516 396.514 C 20.612 603.410,22.463 777.308,24.630 782.954 C 28.010 791.764,53.958 793.220,207.505 793.220 L 386.441 793.220 386.441 406.780 L 386.441 20.339 203.391 20.339 L 20.342 20.339 20.516 396.514 M364.575 150.847 L 362.712 261.017 201.695 262.835 L 40.678 264.652 40.678 152.665 L 40.678 40.678 203.558 40.678 L 366.438 40.678 364.575 150.847 M366.102 396.610 L 366.102 508.475 203.390 508.475 L 40.678 508.475 40.678 396.610 L 40.678 284.746 203.390 284.746 L 366.102 284.746 366.102 396.610 M366.102 661.017 L 366.102 772.881 203.390 772.881 L 40.678 772.881 40.678 661.017 L 40.678 549.153 203.390 549.153 L 366.102 549.153 366.102 661.017 " stroke="none" fill="#000000" fill-rule="evenodd"></path></g></svg>