<svg id="svg" xmlns="http://www.w3.org/2000/svg" xmlns:xlink="http://www.w3.org/1999/xlink" width="400" height="147.98927613941018" viewBox="0, 0, 400,147.98927613941018" version="1.1"><g id="svgg"><path id="path0" d="M30.284 73.190 L 30.563 119.571 191.957 119.797 L 353.351 120.024 362.198 107.826 L 371.046 95.628 371.046 61.219 L 371.046 26.810 200.525 26.810 L 30.004 26.810 30.284 73.190 M367.828 61.987 L 367.828 93.948 356.568 97.587 C 344.178 101.592,344.361 101.359,346.928 109.822 C 347.807 112.717,348.525 115.492,348.525 115.988 C 348.525 116.484,277.587 116.890,190.885 116.890 L 33.244 116.890 33.244 73.458 L 33.244 30.027 200.536 30.027 L 367.828 30.027 367.828 61.987 M165.147 73.384 C 165.147 83.697,165.419 85.791,166.756 85.791 C 168.067 85.791,168.373 83.953,168.412 75.871 L 168.460 65.952 170.825 70.064 C 178.353 83.152,179.803 85.260,181.504 85.587 C 183.201 85.914,183.378 84.774,183.378 73.537 C 183.378 63.220,183.107 61.126,181.769 61.126 C 180.463 61.126,180.160 62.886,180.155 70.509 L 180.149 79.893 175.059 70.777 C 167.157 56.630,165.147 57.158,165.147 73.384 M211.260 65.416 C 211.260 66.607,210.545 67.560,209.651 67.560 C 208.767 67.560,208.043 67.991,208.043 68.518 C 208.043 69.045,208.767 69.753,209.651 70.093 C 210.827 70.544,211.260 72.394,211.260 76.964 C 211.260 80.403,211.839 83.796,212.547 84.504 C 214.322 86.279,218.767 86.135,218.767 84.301 C 218.767 83.482,217.922 82.879,216.890 82.961 C 215.318 83.086,214.962 82.024,214.694 76.408 C 214.401 70.264,214.558 69.705,216.571 69.705 C 217.779 69.705,218.767 69.223,218.767 68.633 C 218.767 68.043,217.802 67.560,216.622 67.560 C 215.192 67.560,214.477 66.845,214.477 65.416 C 214.477 64.224,213.762 63.271,212.869 63.271 C 211.975 63.271,211.260 64.224,211.260 65.416 M191.372 70.193 C 185.961 75.604,189.468 85.791,196.742 85.791 C 201.754 85.791,204.841 82.906,205.560 77.550 C 206.702 69.034,197.370 64.194,191.372 70.193 M224.316 70.042 C 217.074 77.751,225.255 88.995,235.301 85.140 C 238.629 83.863,236.917 82.624,232.113 82.833 C 228.798 82.977,226.907 82.539,226.231 81.469 C 224.089 78.082,225.084 77.212,231.099 77.212 C 236.912 77.212,236.997 77.166,236.997 74.055 C 236.997 67.973,228.721 65.353,224.316 70.042 M200.536 71.850 C 205.823 77.137,200.306 86.155,194.340 81.977 C 191.057 79.677,191.057 73.675,194.340 71.374 C 197.408 69.226,197.954 69.268,200.536 71.850 M232.493 70.992 C 235.038 73.537,233.911 75.067,229.491 75.067 C 224.847 75.067,223.598 72.890,227.078 70.863 C 229.574 69.409,230.943 69.442,232.493 70.992 M359.728 102.681 C 351.298 115.674,351.208 115.738,350.137 109.399 C 349.140 103.497,349.023 103.694,354.700 101.692 C 361.629 99.248,361.918 99.305,359.728 102.681 " stroke="none" fill="#000000" fill-rule="evenodd"></path></g></svg>