<svg id="svg" xmlns="http://www.w3.org/2000/svg" xmlns:xlink="http://www.w3.org/1999/xlink" width="400" height="222.0779220779221" viewBox="0, 0, 400,222.0779220779221" version="1.1"><g id="svgg"><path id="path0" d="M36.678 115.260 L 37.013 188.961 192.532 189.291 L 348.052 189.621 348.052 115.590 L 348.052 41.558 192.197 41.558 L 36.342 41.558 36.678 115.260 M344.156 115.584 L 344.156 185.714 192.208 185.714 L 40.260 185.714 40.260 115.584 L 40.260 45.455 192.208 45.455 L 344.156 45.455 344.156 115.584 M112.768 104.584 C 105.565 108.495,104.492 123.919,111.031 129.543 C 122.712 139.591,137.718 124.285,131.661 108.500 C 129.661 103.287,119.162 101.111,112.768 104.584 M224.675 107.792 C 224.675 109.235,223.810 110.390,222.727 110.390 C 221.656 110.390,220.779 110.974,220.779 111.688 C 220.779 112.403,221.656 112.987,222.727 112.987 C 224.253 112.987,224.675 114.762,224.675 121.169 C 224.675 125.801,225.351 130.027,226.234 130.909 C 228.384 133.059,233.766 132.884,233.766 130.664 C 233.766 129.672,232.744 128.941,231.494 129.040 C 229.589 129.192,229.158 127.905,228.834 121.104 C 228.480 113.664,228.669 112.987,231.107 112.987 C 232.570 112.987,233.766 112.403,233.766 111.688 C 233.766 110.974,232.597 110.390,231.169 110.390 C 229.437 110.390,228.571 109.524,228.571 107.792 C 228.571 106.349,227.706 105.195,226.623 105.195 C 225.541 105.195,224.675 106.349,224.675 107.792 M126.550 109.380 C 131.695 116.726,127.744 128.571,120.149 128.571 C 110.957 128.571,107.203 116.497,113.991 108.766 C 116.905 105.448,124.040 105.796,126.550 109.380 M138.961 125.325 C 138.961 137.734,139.290 140.260,140.909 140.260 C 142.331 140.260,142.857 138.788,142.857 134.805 C 142.857 130.563,143.203 129.697,144.416 130.909 C 149.356 135.849,157.143 130.225,157.143 121.718 C 157.143 112.327,149.789 106.790,144.253 112.013 C 142.877 113.312,142.413 113.312,141.937 112.013 C 140.107 107.022,138.961 112.149,138.961 125.325 M165.161 113.395 C 156.391 122.731,166.299 136.348,178.465 131.679 C 182.496 130.133,180.422 128.632,174.604 128.885 C 170.589 129.060,168.300 128.529,167.481 127.234 C 164.887 123.132,166.093 122.078,173.377 122.078 C 180.417 122.078,180.519 122.023,180.519 118.255 C 180.519 110.889,170.496 107.717,165.161 113.395 M187.013 121.537 C 187.013 133.588,189.932 137.114,190.602 125.873 C 191.187 116.064,191.936 114.286,195.479 114.286 C 197.477 114.286,198.701 113.546,198.701 112.338 C 198.701 110.077,195.728 109.805,192.122 111.734 C 190.391 112.661,189.610 112.661,189.610 111.734 C 189.610 110.995,189.026 110.390,188.312 110.390 C 187.547 110.390,187.013 114.971,187.013 121.537 M203.571 111.285 C 202.321 111.611,201.299 112.713,201.299 113.732 C 201.299 115.930,201.462 115.952,205.748 114.322 C 209.954 112.723,212.987 113.854,212.987 117.022 C 212.987 118.944,212.039 119.481,208.643 119.481 C 203.068 119.481,199.370 123.289,200.515 127.850 C 201.500 131.775,206.557 133.447,211.135 131.361 C 213.077 130.477,214.286 130.413,214.286 131.197 C 214.286 131.896,214.870 132.468,215.584 132.468 C 216.334 132.468,216.883 128.370,216.883 122.773 C 216.883 110.964,214.075 108.540,203.571 111.285 M240.850 113.577 C 234.297 120.131,238.544 132.468,247.353 132.468 C 253.423 132.468,257.162 128.974,258.032 122.488 C 259.415 112.174,248.114 106.313,240.850 113.577 M263.636 121.429 C 263.636 130.375,264.006 132.468,265.584 132.468 C 267.092 132.468,267.532 130.765,267.532 124.935 C 267.532 117.125,268.987 114.286,272.987 114.286 C 274.273 114.286,275.325 113.409,275.325 112.338 C 275.325 110.007,271.284 109.755,269.091 111.948 C 267.879 113.160,267.532 113.160,267.532 111.948 C 267.532 111.091,266.656 110.390,265.584 110.390 C 264.006 110.390,263.636 112.482,263.636 121.429 M151.206 115.028 C 156.372 120.194,152.151 131.090,146.059 128.315 C 141.661 126.311,141.464 118.006,145.744 115.009 C 149.237 112.561,148.738 112.560,151.206 115.028 M175.065 114.545 C 178.147 117.628,176.782 119.481,171.429 119.481 C 165.805 119.481,164.292 116.844,168.506 114.390 C 171.529 112.629,173.188 112.668,175.065 114.545 M251.948 115.584 C 258.351 121.987,251.669 132.909,244.445 127.848 C 240.468 125.063,240.468 117.794,244.445 115.009 C 248.159 112.407,248.821 112.458,251.948 115.584 M212.753 124.867 C 212.116 129.147,208.336 130.970,205.655 128.290 C 202.862 125.497,205.248 122.078,209.990 122.078 C 212.504 122.078,213.081 122.661,212.753 124.867 " stroke="none" fill="#000000" fill-rule="evenodd"></path></g></svg>