<svg id="svg" xmlns="http://www.w3.org/2000/svg" xmlns:xlink="http://www.w3.org/1999/xlink" width="400" height="385.3658536585366" viewBox="0, 0, 400,385.3658536585366" version="1.1"><g id="svgg"><path id="path0" d="M208.770 104.501 C 207.528 106.509,216.185 117.501,234.007 136.544 L 261.134 165.530 250.689 175.298 C 242.296 183.147,240.845 185.674,243.303 188.153 C 245.765 190.637,248.407 189.232,256.844 180.952 L 267.326 170.665 329.395 235.324 C 363.532 270.886,392.835 299.987,394.512 299.991 C 402.826 300.015,400.884 297.855,295.289 189.669 L 272.112 165.924 281.399 156.413 C 292.936 144.599,288.930 139.491,277.112 150.945 C 266.600 161.134,268.627 162.218,237.888 129.990 C 219.206 110.404,210.066 102.403,208.770 104.501 M176.212 134.737 L 148.900 162.048 140.514 153.921 C 128.408 142.187,123.743 146.634,135.513 158.688 L 144.639 168.033 81.466 233.010 C 22.918 293.228,11.346 306.664,19.900 304.490 C 21.699 304.033,51.631 274.270,86.416 238.350 L 149.661 173.041 158.973 182.134 C 172.612 195.452,178.288 189.592,164.965 175.949 L 155.776 166.539 181.922 139.254 C 217.513 102.112,212.669 98.280,176.212 134.737 M171.477 252.228 C 155.179 266.247,165.615 297.561,186.585 297.561 C 200.821 297.561,208.537 288.560,208.537 271.951 C 208.537 255.343,200.821 246.341,186.585 246.341 C 181.365 246.341,175.800 248.510,171.477 252.228 M219.512 271.951 C 219.512 293.089,220.151 297.561,223.171 297.561 C 225.935 297.561,226.829 294.580,226.829 285.366 C 226.829 278.360,227.935 273.171,229.429 273.171 C 235.577 273.171,240.805 278.420,243.853 287.655 C 246.667 296.181,253.659 301.717,253.659 295.420 C 253.659 291.391,246.419 275.946,243.760 274.302 C 242.070 273.258,242.943 271.374,246.162 269.119 C 258.498 260.479,249.029 246.341,230.906 246.341 L 219.512 246.341 219.512 271.951 M196.452 257.206 C 207.463 268.217,200.658 292.683,186.585 292.683 C 179.384 292.683,170.732 281.369,170.732 271.951 C 170.732 262.534,179.384 251.220,186.585 251.220 C 188.720 251.220,193.160 253.914,196.452 257.206 M241.633 255.082 C 245.989 260.332,241.738 266.836,233.291 267.845 C 227.365 268.553,226.829 267.895,226.829 259.918 C 226.829 250.170,235.268 247.414,241.633 255.082 " stroke="none" fill="#000000" fill-rule="evenodd"></path></g></svg>