<svg id="svg" xmlns="http://www.w3.org/2000/svg" xmlns:xlink="http://www.w3.org/1999/xlink" width="400" height="126.24113475177305" viewBox="0, 0, 400,126.24113475177305" version="1.1"><g id="svgg"><path id="path0" d="M163.465 42.776 C 162.496 43.746,161.702 46.007,161.702 47.801 C 161.702 49.756,160.849 51.064,159.574 51.064 C 158.404 51.064,157.447 51.702,157.447 52.482 C 157.447 53.262,158.404 53.901,159.574 53.901 C 161.277 53.901,161.702 56.028,161.702 64.539 C 161.702 73.050,162.128 75.177,163.830 75.177 C 165.532 75.177,165.957 73.050,165.957 64.539 C 165.957 54.846,166.210 53.901,168.794 53.901 C 170.355 53.901,171.631 53.262,171.631 52.482 C 171.631 51.702,170.310 51.064,168.696 51.064 C 166.461 51.064,165.870 50.301,166.218 47.872 C 166.562 45.475,167.498 44.770,169.982 45.040 C 172.107 45.271,173.080 44.763,172.705 43.622 C 171.906 41.187,165.628 40.613,163.465 42.776 M92.199 58.865 C 92.199 72.419,92.558 75.177,94.326 75.177 C 95.902 75.177,96.454 73.522,96.454 68.794 C 96.454 62.715,96.647 62.411,100.518 62.411 C 106.376 62.411,112.057 57.473,112.057 52.379 C 112.057 45.937,107.660 42.553,99.291 42.553 L 92.199 42.553 92.199 58.865 M104.649 47.598 C 110.285 51.546,106.482 59.574,98.975 59.574 C 96.895 59.574,96.454 58.333,96.454 52.482 C 96.454 44.618,98.583 43.349,104.649 47.598 M119.149 53.901 C 115.186 57.863,115.231 68.422,119.227 72.418 C 122.627 75.819,133.360 75.872,134.472 72.494 C 134.960 71.012,134.123 70.711,131.108 71.288 C 125.538 72.353,120.567 70.190,120.567 66.702 C 120.567 64.166,121.481 63.830,128.369 63.830 C 135.745 63.830,136.170 63.636,136.170 60.284 C 136.170 55.469,131.426 51.064,126.241 51.064 C 123.877 51.064,120.725 52.325,119.149 53.901 M143.262 63.239 C 143.262 76.401,146.450 80.253,147.183 67.975 C 147.821 57.261,148.639 55.319,152.509 55.319 C 154.692 55.319,156.028 54.511,156.028 53.191 C 156.028 50.723,152.781 50.425,148.843 52.532 C 146.952 53.544,146.099 53.544,146.099 52.532 C 146.099 51.725,145.461 51.064,144.681 51.064 C 143.845 51.064,143.262 56.068,143.262 63.239 M177.373 53.561 C 175.467 55.104,173.987 58.313,173.497 61.963 C 171.986 73.228,184.329 79.629,192.263 71.696 C 202.485 61.474,188.554 44.507,177.373 53.561 M201.418 63.121 C 201.418 72.892,201.822 75.177,203.546 75.177 C 205.193 75.177,205.674 73.318,205.674 66.950 C 205.674 58.468,207.264 55.319,211.547 55.319 C 212.906 55.319,214.414 54.676,214.900 53.891 C 216.279 51.660,211.275 50.427,208.323 52.270 C 206.690 53.290,205.674 53.376,205.674 52.494 C 205.674 51.708,204.716 51.064,203.546 51.064 C 201.822 51.064,201.418 53.349,201.418 63.121 M219.858 63.121 C 219.858 72.892,220.261 75.177,221.986 75.177 C 223.658 75.177,224.113 73.213,224.113 66.007 C 224.113 58.194,224.547 56.606,227.041 55.271 C 231.989 52.623,234.043 55.809,234.043 66.131 C 234.043 73.227,234.501 75.177,236.170 75.177 C 237.823 75.177,238.298 73.295,238.298 66.747 C 238.298 59.691,238.802 57.964,241.393 56.149 C 246.270 52.733,248.227 55.591,248.227 66.131 C 248.227 73.227,248.686 75.177,250.355 75.177 C 253.473 75.177,253.387 56.426,250.253 53.293 C 247.505 50.544,243.942 50.445,240.422 53.018 C 238.151 54.679,237.455 54.679,235.795 53.018 C 233.358 50.582,228.128 50.488,225.638 52.837 C 224.135 54.255,223.629 54.255,223.109 52.837 C 221.283 47.859,219.858 52.367,219.858 63.121 M262.057 52.560 C 257.580 55.232,259.011 60.602,265.248 64.539 C 271.789 68.668,271.887 68.887,268.085 70.922 C 266.053 72.010,264.409 71.991,262.290 70.857 C 258.646 68.907,257.128 70.101,259.546 73.015 C 262.698 76.813,271.304 75.510,273.793 70.858 C 275.818 67.075,274.041 63.986,268.513 61.676 C 261.986 58.949,262.479 54.509,269.273 54.827 C 272.210 54.965,273.707 54.446,273.367 53.409 C 272.658 51.246,265.196 50.686,262.057 52.560 M130.213 55.603 C 133.579 58.969,132.088 60.993,126.241 60.993 C 120.099 60.993,118.447 58.114,123.050 55.433 C 126.351 53.510,128.163 53.553,130.213 55.603 M188.652 56.738 C 193.388 61.473,190.424 72.340,184.397 72.340 C 181.686 72.340,177.305 66.645,177.305 63.121 C 177.305 59.596,181.686 53.901,184.397 53.901 C 185.177 53.901,187.092 55.177,188.652 56.738 M311.761 64.915 L 311.348 75.887 189.007 76.249 C 81.569 76.567,66.667 76.870,66.667 78.731 C 66.667 80.596,81.448 80.851,189.362 80.851 L 312.057 80.851 312.057 91.489 C 312.057 97.340,312.535 102.094,313.121 102.053 C 313.706 102.011,324.709 96.666,337.572 90.173 L 360.959 78.368 336.567 66.156 L 312.175 53.944 311.761 64.915 " stroke="none" fill="#000000" fill-rule="evenodd"></path></g></svg>