<svg id="svg" xmlns="http://www.w3.org/2000/svg" xmlns:xlink="http://www.w3.org/1999/xlink" width="400" height="191.7808219178082" viewBox="0, 0, 400,191.7808219178082" version="1.1"><g id="svgg"><path id="path0" d="M182.877 6.250 C 138.480 12.272,101.799 28.092,80.532 50.388 C 73.086 58.194,72.486 58.526,64.258 59.386 C 17.099 64.315,7.192 133.751,51.549 148.465 C 57.265 150.361,59.299 151.938,62.442 156.910 C 69.344 167.830,81.895 173.973,97.307 173.973 C 114.114 173.973,120.566 169.496,105.702 168.149 C 94.275 167.112,82.192 158.743,82.192 151.866 C 82.192 147.600,94.923 146.848,101.248 150.740 C 194.416 208.067,362.725 177.136,376.690 100.121 C 387.439 40.847,286.880 -7.857,182.877 6.250 M254.803 10.236 C 348.095 21.230,400.027 79.989,358.742 127.838 C 312.554 181.372,177.734 193.070,107.366 149.650 L 98.978 144.475 104.784 138.062 C 127.646 112.810,118.428 71.327,87.905 62.109 C 77.018 58.821,77.017 58.816,86.242 50.275 C 121.483 17.648,186.549 2.193,254.803 10.236 M138.125 50.040 C 125.135 57.095,131.710 80.212,146.438 79.271 C 150.449 79.015,154.334 79.722,157.124 81.215 C 162.401 84.040,163.014 84.094,163.014 81.738 C 163.014 80.736,161.451 79.079,159.541 78.057 C 157.132 76.767,156.370 75.543,157.053 74.058 C 164.551 57.762,152.369 42.305,138.125 50.040 M250.685 50.000 C 250.685 51.411,251.583 52.083,253.082 51.794 C 255.970 51.238,255.788 48.807,252.812 48.187 C 251.571 47.929,250.685 48.684,250.685 50.000 M235.616 52.931 C 235.616 54.167,234.538 55.996,233.219 56.997 C 230.936 58.730,230.936 58.819,233.219 58.861 C 235.222 58.897,235.616 60.213,235.616 66.861 C 235.616 77.688,243.582 85.116,246.312 76.837 C 246.741 75.538,246.248 75.175,244.808 75.728 C 241.398 77.036,239.533 73.349,239.989 66.202 C 240.408 59.636,240.447 59.586,245.548 59.164 L 250.685 58.739 250.685 69.095 C 250.685 77.388,251.094 79.452,252.740 79.452 C 254.405 79.452,254.795 77.245,254.795 67.808 L 254.795 56.164 247.260 56.164 C 240.639 56.164,239.726 55.832,239.726 53.425 C 239.726 51.903,238.813 50.685,237.671 50.685 C 236.541 50.685,235.616 51.696,235.616 52.931 M152.662 55.099 C 158.089 62.848,153.922 75.342,145.911 75.342 C 138.016 75.342,133.654 66.984,136.981 58.233 C 139.662 51.181,148.658 49.383,152.662 55.099 M165.753 65.541 C 165.753 77.894,170.157 82.324,178.172 78.034 C 179.999 77.056,180.822 77.056,180.822 78.034 C 180.822 78.814,181.747 79.452,182.877 79.452 C 184.542 79.452,184.932 77.245,184.932 67.808 C 184.932 58.371,184.542 56.164,182.877 56.164 C 181.281 56.164,180.822 57.982,180.822 64.306 C 180.822 71.089,180.330 72.792,177.870 74.515 C 172.444 78.316,169.863 75.256,169.863 65.020 C 169.863 58.062,169.423 56.164,167.808 56.164 C 166.182 56.164,165.753 58.119,165.753 65.541 M193.773 59.527 C 184.410 68.890,194.821 83.456,207.422 78.621 C 211.418 77.087,209.751 74.968,205.255 75.867 C 200.459 76.826,194.521 73.904,194.521 70.585 C 194.521 69.166,196.680 68.517,202.397 68.219 C 209.848 67.830,210.254 67.627,209.900 64.457 C 208.979 56.208,199.875 53.425,193.773 59.527 M217.272 58.739 C 213.951 62.409,215.402 66.122,221.247 68.909 C 228.848 72.534,226.354 78.331,218.481 75.338 C 215.813 74.323,215.068 74.475,215.068 76.035 C 215.068 77.132,216.610 78.417,218.493 78.890 C 230.501 81.903,234.579 70.431,223.179 65.708 C 217.528 63.368,218.347 59.513,224.435 59.799 C 230.111 60.065,229.532 57.016,223.797 56.440 C 221.093 56.169,218.899 56.942,217.272 58.739 M264.622 59.335 C 257.758 66.642,262.239 79.452,271.660 79.452 C 278.414 79.452,282.192 75.256,282.192 67.755 C 282.192 56.959,271.616 51.891,264.622 59.335 M289.041 67.808 C 289.041 77.245,289.431 79.452,291.096 79.452 C 292.706 79.452,293.151 77.574,293.151 70.768 C 293.151 62.953,293.477 61.935,296.407 60.600 C 301.231 58.402,302.740 60.838,302.740 70.822 C 302.740 77.685,303.172 79.452,304.852 79.452 C 306.608 79.452,306.897 77.664,306.564 68.864 C 306.114 56.949,302.433 53.131,295.543 57.433 C 293.432 58.752,292.442 58.834,292.071 57.721 C 290.466 52.905,289.041 57.648,289.041 67.808 M204.697 61.057 C 208.213 64.574,207.206 65.753,200.685 65.753 C 197.295 65.753,194.521 65.181,194.521 64.481 C 194.521 62.568,198.570 58.904,200.685 58.904 C 201.707 58.904,203.513 59.873,204.697 61.057 M275.930 61.057 C 280.702 65.830,278.000 75.685,271.918 75.685 C 264.581 75.685,262.873 62.564,269.863 59.903 C 273.105 58.669,273.644 58.771,275.930 61.057 M66.118 70.863 C 56.662 91.516,61.978 114.290,81.106 135.072 C 87.770 142.313,82.601 147.945,69.291 147.945 C 39.837 147.945,38.634 64.032,68.075 63.067 C 69.105 63.034,68.380 65.923,66.118 70.863 M84.413 69.260 C 94.330 79.776,97.677 117.681,89.984 132.364 L 88.181 135.805 83.685 131.259 C 66.254 113.632,61.212 91.613,70.173 72.260 C 74.593 62.718,77.637 62.076,84.413 69.260 M258.904 121.918 C 258.904 134.642,259.309 138.449,260.616 138.014 C 261.852 137.602,262.329 133.120,262.329 121.918 C 262.329 110.715,261.852 106.234,260.616 105.822 C 259.309 105.386,258.904 109.193,258.904 121.918 M184.247 108.439 C 171.739 115.318,174.639 136.077,188.358 137.872 C 198.347 139.179,201.370 136.913,201.370 128.116 L 201.370 120.548 195.205 120.548 C 191.815 120.548,189.041 121.164,189.041 121.918 C 189.041 122.671,190.928 123.288,193.233 123.288 C 200.364 123.288,198.743 133.381,191.516 133.982 C 184.504 134.565,180.822 130.736,180.822 122.861 C 180.822 113.733,184.654 110.406,194.047 111.375 C 201.829 112.178,203.868 110.471,197.856 108.185 C 193.282 106.446,187.681 106.551,184.247 108.439 M211.024 117.480 C 209.184 118.970,207.754 122.069,207.282 125.595 C 205.822 136.474,217.743 142.656,225.405 134.994 C 235.277 125.122,221.823 108.736,211.024 117.480 M236.644 116.013 C 235.325 116.357,234.247 117.519,234.247 118.594 C 234.247 120.913,234.419 120.936,238.940 119.217 C 243.376 117.530,246.575 118.723,246.575 122.064 C 246.575 124.092,245.576 124.658,241.993 124.658 C 236.113 124.658,232.213 128.674,233.420 133.486 C 234.459 137.626,239.793 139.390,244.622 137.190 C 246.670 136.256,247.945 136.189,247.945 137.016 C 247.945 137.753,248.562 138.356,249.315 138.356 C 250.106 138.356,250.685 134.034,250.685 128.130 C 250.685 115.674,247.722 113.118,236.644 116.013 M221.918 120.548 C 226.491 125.121,223.629 135.616,217.808 135.616 C 215.190 135.616,210.959 130.116,210.959 126.712 C 210.959 123.308,215.190 117.808,217.808 117.808 C 218.562 117.808,220.411 119.041,221.918 120.548 M246.328 130.340 C 245.657 134.854,241.669 136.777,238.842 133.950 C 235.896 131.004,238.412 127.397,243.414 127.397 C 246.065 127.397,246.674 128.012,246.328 130.340 " stroke="none" fill="#000000" fill-rule="evenodd"></path></g></svg>