<svg id="svg" version="1.1" xmlns="http://www.w3.org/2000/svg" xmlns:xlink="http://www.w3.org/1999/xlink" width="400" height="852.8301886792452" viewBox="0, 0, 400,852.8301886792452"><g id="svgg"><path id="path0" d="M17.131 589.312 C 16.179 590.257,15.085 591.430,14.700 591.919 C 13.935 592.891,13.573 827.200,14.336 827.200 C 14.520 827.200,14.897 828.715,15.172 830.567 C 15.642 833.727,15.771 834.023,17.269 835.367 L 18.865 836.800 192.133 836.803 C 365.191 836.805,371.600 836.760,371.600 835.531 C 371.600 835.349,371.960 835.200,372.400 835.200 C 373.509 835.200,374.800 833.801,374.800 832.600 C 374.800 832.050,374.958 831.600,375.151 831.600 C 376.324 831.600,376.400 824.144,376.400 708.968 L 376.400 592.369 374.865 590.819 C 373.659 589.600,372.910 589.207,371.365 588.979 C 370.284 588.819,369.272 588.489,369.115 588.244 C 368.906 587.920,321.637 587.772,193.846 587.697 L 18.863 587.595 17.131 589.312 " stroke="none" fill="#f90404" fill-rule="evenodd"></path><path id="path1" d="M16.926 23.538 C 15.867 24.606,14.775 25.770,14.500 26.124 C 13.919 26.871,13.746 261.200,14.327 261.200 C 14.507 261.200,14.970 262.203,15.357 263.430 C 15.743 264.656,16.361 265.977,16.730 266.365 C 17.098 266.753,17.600 267.414,17.844 267.835 C 18.907 269.668,371.600 269.094,371.600 267.259 C 371.600 267.103,372.136 266.773,372.791 266.526 C 373.458 266.274,374.203 265.575,374.483 264.938 C 374.758 264.312,375.102 263.710,375.247 263.600 C 375.392 263.490,375.710 262.680,375.953 261.800 C 376.565 259.588,376.589 27.253,375.978 25.911 C 375.369 24.574,373.277 23.281,371.200 22.958 C 370.210 22.805,369.272 22.481,369.115 22.239 C 368.908 21.922,320.387 21.772,193.841 21.697 L 18.853 21.595 16.926 23.538 M18.000 294.934 C 17.450 295.192,16.325 296.095,15.500 296.942 L 14.000 298.480 14.000 415.640 C 14.000 480.078,14.151 532.800,14.336 532.800 C 14.520 532.800,14.894 534.285,15.166 536.100 C 15.665 539.435,16.177 540.452,17.989 541.712 C 19.445 542.725,363.598 542.783,369.380 541.771 C 373.284 541.088,374.800 540.084,374.800 538.179 C 374.800 537.641,374.958 537.200,375.151 537.200 C 376.324 537.200,376.400 529.744,376.400 414.712 L 376.400 298.257 374.974 296.950 C 371.995 294.222,384.647 294.396,192.088 294.432 C 60.594 294.457,18.760 294.578,18.000 294.934 " stroke="none" fill="#fcfcfc" fill-rule="evenodd"></path><path id="path2" d="M0.000 426.400 L 0.000 852.800 200.000 852.800 L 400.000 852.800 400.000 426.400 L 400.000 0.000 200.000 0.000 L 0.000 0.000 0.000 426.400 M369.115 22.239 C 369.272 22.481,370.210 22.805,371.200 22.958 C 373.277 23.281,375.369 24.574,375.978 25.911 C 376.589 27.253,376.565 259.588,375.953 261.800 C 375.710 262.680,375.392 263.490,375.247 263.600 C 375.102 263.710,374.758 264.312,374.483 264.938 C 374.203 265.575,373.458 266.274,372.791 266.526 C 372.136 266.773,371.600 267.103,371.600 267.259 C 371.600 269.094,18.907 269.668,17.844 267.835 C 17.600 267.414,17.098 266.753,16.730 266.365 C 16.361 265.977,15.743 264.656,15.357 263.430 C 14.970 262.203,14.507 261.200,14.327 261.200 C 13.746 261.200,13.919 26.871,14.500 26.124 C 14.775 25.770,15.867 24.606,16.926 23.538 L 18.853 21.595 193.841 21.697 C 320.387 21.772,368.908 21.922,369.115 22.239 M369.361 295.022 C 373.105 295.578,373.698 295.782,374.974 296.950 L 376.400 298.257 376.400 414.712 C 376.400 529.744,376.324 537.200,375.151 537.200 C 374.958 537.200,374.800 537.641,374.800 538.179 C 374.800 540.084,373.284 541.088,369.380 541.771 C 363.598 542.783,19.445 542.725,17.989 541.712 C 16.177 540.452,15.665 539.435,15.166 536.100 C 14.894 534.285,14.520 532.800,14.336 532.800 C 14.151 532.800,14.000 480.078,14.000 415.640 L 14.000 298.480 15.500 296.942 C 16.325 296.095,17.450 295.192,18.000 294.934 C 19.733 294.121,363.878 294.207,369.361 295.022 M369.115 588.244 C 369.272 588.489,370.284 588.819,371.365 588.979 C 372.910 589.207,373.659 589.600,374.865 590.819 L 376.400 592.369 376.400 708.968 C 376.400 824.144,376.324 831.600,375.151 831.600 C 374.958 831.600,374.800 832.050,374.800 832.600 C 374.800 833.801,373.509 835.200,372.400 835.200 C 371.960 835.200,371.600 835.349,371.600 835.531 C 371.600 836.760,365.191 836.805,192.133 836.803 L 18.865 836.800 17.269 835.367 C 15.771 834.023,15.642 833.727,15.172 830.567 C 14.897 828.715,14.520 827.200,14.336 827.200 C 13.573 827.200,13.935 592.891,14.700 591.919 C 15.085 591.430,16.179 590.257,17.131 589.312 L 18.863 587.595 193.846 587.697 C 321.637 587.772,368.906 587.920,369.115 588.244 " stroke="none" fill="#0a0505" fill-rule="evenodd"></path></g></svg>