<svg id="svg" xmlns="http://www.w3.org/2000/svg" xmlns:xlink="http://www.w3.org/1999/xlink" width="400" height="78.85714285714285" viewBox="0, 0, 400,78.85714285714285" version="1.1"><g id="svgg"><path id="path0" d="M146.286 45.714 C 146.286 57.143,146.571 59.429,148.000 59.429 C 149.429 59.429,149.714 57.143,149.714 45.714 C 149.714 34.286,149.429 32.000,148.000 32.000 C 146.571 32.000,146.286 34.286,146.286 45.714 M257.143 45.714 C 257.143 57.143,257.429 59.429,258.857 59.429 C 260.189 59.429,260.571 57.912,260.571 52.636 C 260.571 46.977,260.982 45.556,263.034 44.119 C 267.561 40.948,269.714 43.501,269.714 52.040 C 269.714 57.846,270.082 59.429,271.429 59.429 C 272.770 59.429,273.143 57.870,273.143 52.254 C 273.143 41.699,269.364 37.661,262.782 41.183 C 260.748 42.272,260.571 41.953,260.571 37.183 C 260.571 33.338,260.129 32.000,258.857 32.000 C 257.429 32.000,257.143 34.286,257.143 45.714 M105.143 46.286 C 105.143 57.206,105.433 59.429,106.857 59.429 C 108.173 59.429,108.571 57.968,108.571 53.143 C 108.571 44.022,112.793 45.027,116.971 55.143 C 118.357 58.500,122.286 61.315,122.286 58.952 C 122.286 57.407,117.684 48.116,116.582 47.435 C 115.680 46.878,116.012 46.092,117.630 44.959 C 123.687 40.717,119.105 33.143,110.481 33.143 L 105.143 33.143 105.143 46.286 M188.571 34.857 C 188.571 35.800,189.343 36.571,190.286 36.571 C 191.229 36.571,192.000 35.800,192.000 34.857 C 192.000 33.914,191.229 33.143,190.286 33.143 C 189.343 33.143,188.571 33.914,188.571 34.857 M278.857 34.857 C 278.857 36.034,279.606 36.595,280.857 36.354 C 283.266 35.890,283.114 33.862,280.632 33.345 C 279.596 33.129,278.857 33.759,278.857 34.857 M114.361 36.612 C 118.595 38.878,116.334 44.571,111.200 44.571 C 108.895 44.571,108.571 44.008,108.571 40.000 C 108.571 35.118,110.004 34.280,114.361 36.612 M176.000 37.714 C 176.000 38.984,175.238 40.000,174.286 40.000 C 173.343 40.000,172.571 40.514,172.571 41.143 C 172.571 41.771,173.343 42.286,174.286 42.286 C 175.628 42.286,176.000 43.848,176.000 49.486 C 176.000 53.562,176.595 57.281,177.371 58.057 C 179.263 59.949,184.000 59.795,184.000 57.841 C 184.000 56.968,183.100 56.325,182.000 56.413 C 180.324 56.546,179.945 55.414,179.660 49.429 L 179.320 42.286 183.945 42.286 L 188.571 42.286 188.571 50.857 C 188.571 57.714,188.914 59.429,190.286 59.429 C 191.675 59.429,192.000 57.587,192.000 49.714 L 192.000 40.000 185.714 40.000 C 180.190 40.000,179.429 39.723,179.429 37.714 C 179.429 36.444,178.667 35.429,177.714 35.429 C 176.762 35.429,176.000 36.444,176.000 37.714 M128.055 42.012 C 119.293 49.107,128.083 62.833,138.764 58.735 C 142.239 57.401,140.643 55.732,136.615 56.488 C 133.508 57.071,132.158 56.730,130.329 54.901 C 126.625 51.197,127.519 50.286,134.857 50.286 C 142.656 50.286,143.716 48.567,139.346 43.011 C 136.540 39.444,131.749 39.020,128.055 42.012 M157.429 40.788 C 156.329 41.075,155.429 42.044,155.429 42.941 C 155.429 44.876,155.572 44.895,159.344 43.461 C 163.045 42.053,165.714 43.049,165.714 45.837 C 165.714 47.528,164.880 48.000,161.891 48.000 C 156.986 48.000,153.732 51.351,154.739 55.365 C 155.606 58.819,160.056 60.291,164.084 58.455 C 165.794 57.676,166.857 57.621,166.857 58.310 C 166.857 58.925,167.371 59.429,168.000 59.429 C 168.660 59.429,169.143 55.823,169.143 50.897 C 169.143 40.505,166.671 38.372,157.429 40.788 M200.055 42.012 C 198.519 43.255,197.327 45.841,196.932 48.782 C 195.715 57.858,205.660 63.016,212.052 56.623 C 220.288 48.387,209.064 34.717,200.055 42.012 M219.429 49.714 C 219.429 57.587,219.754 59.429,221.143 59.429 C 222.474 59.429,222.857 57.912,222.857 52.636 C 222.857 46.977,223.268 45.556,225.320 44.119 C 229.847 40.948,232.000 43.501,232.000 52.040 C 232.000 57.846,232.367 59.429,233.714 59.429 C 235.056 59.429,235.429 57.870,235.429 52.254 C 235.429 41.699,231.650 37.661,225.068 41.183 C 223.544 41.999,222.857 41.999,222.857 41.183 C 222.857 40.532,222.086 40.000,221.143 40.000 C 219.754 40.000,219.429 41.841,219.429 49.714 M241.803 42.188 C 239.141 45.129,240.073 47.446,245.116 50.421 C 251.295 54.067,249.484 58.519,242.847 55.996 C 240.621 55.150,240.000 55.277,240.000 56.578 C 240.000 57.493,241.358 58.583,243.018 59.000 C 252.019 61.259,255.792 52.888,247.717 48.574 C 241.666 45.341,243.371 40.581,249.709 43.013 C 251.155 43.568,251.588 43.328,251.211 42.182 C 250.347 39.557,244.181 39.560,241.803 42.188 M278.857 49.714 C 278.857 57.587,279.182 59.429,280.571 59.429 C 281.961 59.429,282.286 57.587,282.286 49.714 C 282.286 41.841,281.961 40.000,280.571 40.000 C 279.182 40.000,278.857 41.841,278.857 49.714 M289.143 53.238 C 289.143 65.975,291.357 72.016,292.352 61.995 C 292.683 58.665,292.934 58.488,296.509 59.068 C 301.974 59.955,305.143 56.522,305.143 49.714 C 305.143 41.888,298.476 37.018,293.800 41.429 C 292.589 42.571,292.181 42.571,291.762 41.429 C 290.148 37.028,289.143 41.561,289.143 53.238 M25.143 44.000 C 25.143 45.490,30.159 45.714,63.429 45.714 C 96.698 45.714,101.714 45.490,101.714 44.000 C 101.714 42.510,96.698 42.286,63.429 42.286 C 30.159 42.286,25.143 42.510,25.143 44.000 M136.490 44.082 C 139.424 47.016,138.583 48.000,133.143 48.000 C 127.510 48.000,127.063 47.502,129.891 44.376 C 132.211 41.813,134.135 41.727,136.490 44.082 M209.143 44.571 C 212.958 48.387,210.570 57.143,205.714 57.143 C 203.530 57.143,200.000 52.554,200.000 49.714 C 200.000 46.874,203.530 42.286,205.714 42.286 C 206.343 42.286,207.886 43.314,209.143 44.571 M299.918 44.082 C 304.419 48.582,300.163 58.839,294.952 56.051 C 289.819 53.304,291.713 44.561,297.918 42.358 C 298.031 42.318,298.931 43.094,299.918 44.082 M307.429 44.000 C 307.429 45.489,312.317 45.714,344.571 45.714 C 376.825 45.714,381.714 45.489,381.714 44.000 C 381.714 42.511,376.825 42.286,344.571 42.286 C 312.317 42.286,307.429 42.511,307.429 44.000 M165.508 52.740 C 164.948 56.506,161.621 58.111,159.262 55.752 C 156.805 53.294,158.904 50.286,163.077 50.286 C 165.289 50.286,165.797 50.799,165.508 52.740 " stroke="none" fill="#000000" fill-rule="evenodd"></path></g></svg>