<svg id="svg" xmlns="http://www.w3.org/2000/svg" xmlns:xlink="http://www.w3.org/1999/xlink" width="400" height="493.1034482758621" viewBox="0, 0, 400,493.1034482758621" version="1.1"><g id="svgg"><path id="path0" d="M221.675 189.033 C 199.323 215.242,167.845 252.390,151.724 271.584 C 120.527 308.729,117.272 311.326,117.189 299.138 C 117.084 283.722,113.291 281.941,89.301 286.042 C 48.339 293.044,52.031 289.146,57.351 319.771 C 63.612 355.809,62.801 354.559,78.150 351.838 C 89.783 349.776,93.132 350.891,105.902 361.075 L 120.424 372.658 178.316 304.639 C 210.156 267.229,249.738 221.010,266.276 201.931 L 296.345 167.241 281.793 154.320 C 262.919 137.560,268.146 134.541,221.675 189.033 " stroke="none" fill="#000000" fill-rule="evenodd"></path></g></svg>