<svg id="svg" xmlns="http://www.w3.org/2000/svg" xmlns:xlink="http://www.w3.org/1999/xlink" width="400" height="228.82096069868996" viewBox="0, 0, 400,228.82096069868996" version="1.1"><g id="svgg"><path id="path0" d="M216.606 27.127 C 213.251 28.643,208.850 31.438,206.826 33.339 C 203.681 36.294,202.412 36.506,198.080 34.801 C 186.316 30.173,165.872 31.805,152.505 38.440 C 140.593 44.352,139.898 44.485,132.527 42.257 C 105.333 34.035,66.545 56.421,66.393 80.424 C 66.382 82.147,63.461 83.898,58.294 85.280 C 38.909 90.464,31.998 113.148,45.423 127.520 L 50.561 133.020 46.740 138.188 C 33.367 156.277,52.784 184.356,76.235 180.839 C 82.897 179.840,85.121 180.400,92.470 184.922 C 109.382 195.328,136.895 198.946,153.788 192.986 C 160.818 190.506,161.519 190.551,164.924 193.698 C 186.239 213.394,225.097 210.875,245.220 188.494 L 252.963 179.883 261.999 181.821 C 283.804 186.497,310.065 173.686,316.496 155.236 C 317.821 151.437,319.665 150.055,324.607 149.159 C 348.061 144.907,361.884 124.028,355.587 102.367 C 354.050 97.080,352.099 92.325,351.251 91.801 C 350.403 91.277,350.330 88.093,351.090 84.725 C 354.171 71.063,345.543 55.714,332.012 50.786 C 326.849 48.905,322.933 45.816,319.632 41.019 C 309.289 25.990,281.679 20.036,264.416 29.113 L 257.217 32.898 251.316 29.295 C 243.419 24.474,225.025 23.325,216.606 27.127 M250.894 35.181 L 257.654 39.654 264.348 35.212 C 281.590 23.769,309.464 30.899,318.911 49.168 C 320.485 52.211,322.894 54.148,325.103 54.148 C 341.789 54.148,352.447 79.230,341.360 92.407 C 335.961 98.822,337.193 102.807,343.332 98.785 C 348.807 95.197,351.619 99.907,351.342 112.201 C 351.023 126.347,342.426 138.952,331.004 142.017 C 329.083 142.532,325.742 143.463,323.581 144.084 C 320.660 144.924,319.651 144.488,319.651 142.389 C 319.651 134.754,308.022 122.299,300.873 122.277 C 296.564 122.264,298.805 126.778,304.677 129.941 C 325.736 141.282,307.399 173.377,277.520 177.472 C 266.444 178.991,254.404 175.478,255.558 171.065 C 257.100 165.169,251.746 167.276,249.101 173.606 C 236.207 204.466,185.312 211.855,164.583 185.875 C 159.319 179.278,154.551 177.796,156.298 183.301 C 160.160 195.468,112.541 192.265,93.381 179.070 C 85.334 173.528,83.767 173.041,79.357 174.718 C 62.355 181.182,43.532 163.981,48.707 146.708 C 51.442 137.580,54.603 135.508,64.957 136.057 C 76.034 136.645,75.977 132.391,64.888 130.882 C 37.075 127.098,36.714 93.816,64.436 89.196 C 69.780 88.306,70.559 87.412,72.436 80.017 C 79.647 51.614,112.415 37.517,139.764 51.052 C 146.529 54.400,148.883 54.884,150.268 53.215 C 151.541 51.681,151.233 50.748,149.193 49.965 C 144.940 48.333,148.814 44.493,158.412 40.828 C 168.047 37.148,184.840 36.788,196.133 40.019 C 203.922 42.247,204.758 42.170,208.360 38.885 C 219.946 28.321,238.134 26.737,250.894 35.181 M163.118 97.407 C 162.046 98.112,160.565 100.655,159.825 103.057 C 159.086 105.459,157.605 108.013,156.533 108.734 C 155.121 109.684,155.161 110.417,156.680 111.402 C 157.878 112.179,158.999 117.911,159.300 124.800 C 160.046 141.887,163.868 142.358,164.550 125.447 L 165.066 112.664 170.533 112.132 L 176.000 111.600 176.737 123.169 C 177.511 135.321,179.216 137.915,186.463 137.965 C 188.919 137.981,190.393 136.939,190.393 135.184 C 190.393 133.420,189.430 132.747,187.800 133.373 C 184.054 134.810,181.373 128.640,181.999 120.021 C 182.442 113.918,183.203 112.569,186.463 112.106 C 191.810 111.346,191.460 108.297,186.026 108.297 C 182.824 108.297,181.659 107.365,181.659 104.803 C 181.659 102.882,180.800 101.310,179.749 101.310 C 178.698 101.310,177.428 102.882,176.925 104.803 C 175.854 108.900,164.192 110.020,164.192 106.026 C 164.192 102.671,167.760 99.702,170.519 100.760 C 171.948 101.309,172.926 100.544,172.926 98.877 C 172.926 95.946,166.742 95.019,163.118 97.407 M289.956 117.031 C 289.956 134.498,290.393 137.991,292.576 137.991 C 294.760 137.991,295.197 134.498,295.197 117.031 C 295.197 99.563,294.760 96.070,292.576 96.070 C 290.393 96.070,289.956 99.563,289.956 117.031 M97.817 101.310 C 91.820 107.306,95.820 116.080,106.583 120.538 C 116.029 124.450,113.397 131.911,102.620 131.768 C 94.354 131.659,91.146 134.652,97.086 136.931 C 113.277 143.144,125.903 126.577,111.790 117.638 C 102.517 111.764,99.545 108.631,100.611 105.852 C 101.990 102.258,105.911 101.153,110.753 102.994 C 115.675 104.866,117.799 103.467,115.055 100.161 C 112.093 96.592,101.852 97.275,97.817 101.310 M127.840 111.858 C 122.682 116.665,122.495 129.482,127.511 134.498 C 136.358 143.345,150.218 136.374,150.218 123.076 C 150.218 109.613,137.236 103.105,127.840 111.858 M199.188 111.729 C 196.363 114.555,195.865 117.027,196.375 125.719 C 196.716 131.525,196.296 136.709,195.441 137.237 C 193.040 138.721,193.597 142.692,196.631 145.727 C 202.659 151.754,220.087 147.277,220.087 139.700 C 220.087 135.450,215.044 132.751,207.102 132.751 C 203.091 132.751,200.873 131.926,200.873 130.434 C 200.873 128.905,202.508 128.348,205.677 128.797 C 212.865 129.817,217.332 125.643,217.119 118.107 C 217.020 114.633,217.648 111.790,218.513 111.790 C 219.379 111.790,220.087 111.004,220.087 110.044 C 220.087 106.652,202.878 108.039,199.188 111.729 M229.150 111.858 C 223.992 116.665,223.805 129.482,228.821 134.498 C 237.668 143.345,251.528 136.374,251.528 123.076 C 251.528 109.613,238.546 103.105,229.150 111.858 M261.035 110.774 C 256.495 114.094,258.623 115.821,264.501 113.586 C 269.930 111.522,275.983 113.831,275.983 117.965 C 275.983 119.656,274.166 120.524,270.628 120.524 C 262.563 120.524,258.515 123.392,258.515 129.105 C 258.515 135.963,261.528 137.844,272.122 137.603 L 281.223 137.395 281.223 126.728 C 281.223 110.112,271.956 102.789,261.035 110.774 M143.641 116.030 C 148.041 122.455,143.960 133.188,137.118 133.188 C 131.513 133.188,129.311 130.355,129.311 123.144 C 129.311 113.220,138.570 108.624,143.641 116.030 M211.354 115.284 C 213.494 119.282,210.971 125.764,207.275 125.764 C 201.759 125.764,198.921 117.935,202.969 113.886 C 206.057 110.799,209.237 111.329,211.354 115.284 M244.951 116.030 C 249.351 122.455,245.270 133.188,238.428 133.188 C 232.823 133.188,230.621 130.355,230.621 123.144 C 230.621 113.220,239.880 108.624,244.951 116.030 M275.983 127.449 C 275.983 131.336,269.987 135.252,266.239 133.814 C 263.691 132.836,262.839 127.263,264.920 125.182 C 267.763 122.339,275.983 124.024,275.983 127.449 M212.664 137.967 C 213.865 137.981,214.847 139.086,214.847 140.424 C 214.847 144.608,205.949 146.478,200.986 143.338 C 197.212 140.950,202.074 135.686,206.865 136.973 C 208.853 137.507,211.463 137.954,212.664 137.967 " stroke="none" fill="#000000" fill-rule="evenodd"></path></g></svg>