<svg id="svg" version="1.1" xmlns="http://www.w3.org/2000/svg" xmlns:xlink="http://www.w3.org/1999/xlink" width="400" height="845.2830188679245" viewBox="0, 0, 400,845.2830188679245"><g id="svgg"><path id="path0" d="M113.267 21.900 C 161.154 21.956,239.634 21.956,287.667 21.900 C 335.700 21.844,296.520 21.798,200.600 21.798 C 104.680 21.798,65.380 21.844,113.267 21.900 M21.797 143.800 C 21.797 208.480,21.844 235.000,21.900 202.732 C 21.956 170.465,21.956 117.545,21.900 85.132 C 21.844 52.720,21.797 79.120,21.797 143.800 M383.797 143.800 C 383.797 208.480,383.844 235.000,383.900 202.732 C 383.956 170.465,383.956 117.545,383.900 85.132 C 383.844 52.720,383.797 79.120,383.797 143.800 M22.000 262.200 C 22.000 262.530,22.180 262.800,22.400 262.800 C 22.620 262.800,22.800 262.530,22.800 262.200 C 22.800 261.870,22.620 261.600,22.400 261.600 C 22.180 261.600,22.000 261.870,22.000 262.200 M24.279 266.781 C 24.392 267.211,24.960 267.852,25.542 268.205 L 26.600 268.847 25.700 268.060 C 25.205 267.626,24.800 267.086,24.800 266.859 C 24.800 266.633,24.637 266.346,24.437 266.223 C 24.238 266.100,24.167 266.351,24.279 266.781 M379.900 266.465 C 379.295 266.686,378.800 267.009,378.800 267.183 C 378.800 267.358,378.231 267.614,377.536 267.753 C 376.841 267.892,376.358 268.091,376.463 268.196 C 376.714 268.447,379.279 267.705,379.572 267.296 C 379.697 267.121,380.250 266.770,380.800 266.516 C 382.027 265.949,381.408 265.914,379.900 266.465 M26.000 293.560 C 26.000 293.759,25.370 294.293,24.600 294.747 C 23.830 295.201,23.200 295.843,23.200 296.172 C 23.200 296.502,22.838 296.965,22.396 297.202 C 21.409 297.730,21.295 535.717,22.281 536.327 C 22.546 536.490,22.882 537.369,23.027 538.280 C 23.285 539.894,24.179 541.025,25.940 541.968 C 28.292 543.226,379.600 542.445,379.600 541.181 C 379.600 541.026,380.135 540.793,380.789 540.662 C 381.666 540.487,382.050 540.132,382.251 539.312 C 382.401 538.700,382.641 538.110,382.785 538.000 C 383.941 537.117,384.000 531.109,384.000 415.254 C 384.000 302.249,383.974 297.974,383.269 297.269 C 382.868 296.868,382.428 296.249,382.292 295.894 C 382.031 295.215,380.132 294.546,377.300 294.137 C 376.365 294.002,375.600 293.736,375.600 293.546 C 375.600 293.352,298.735 293.200,200.800 293.200 C 97.306 293.200,26.000 293.347,26.000 293.560 M1.107 552.690 C 1.826 552.779,2.906 552.777,3.507 552.686 C 4.108 552.595,3.520 552.522,2.200 552.524 C 0.880 552.526,0.388 552.601,1.107 552.690 M5.400 553.627 C 5.840 554.162,6.356 554.713,6.546 554.852 C 7.006 555.187,8.062 562.365,7.737 562.946 C 7.557 563.267,7.617 563.277,7.942 562.980 C 9.055 561.960,7.312 554.589,5.683 553.427 L 4.600 552.655 5.400 553.627 M0.000 564.800 C 0.000 565.020,0.990 565.200,2.200 565.200 C 3.410 565.200,4.400 565.020,4.400 564.800 C 4.400 564.580,3.410 564.400,2.200 564.400 C 0.990 564.400,0.000 564.580,0.000 564.800 M113.267 587.900 C 161.154 587.956,239.634 587.956,287.667 587.900 C 335.700 587.844,296.520 587.798,200.600 587.798 C 104.680 587.798,65.380 587.844,113.267 587.900 M21.797 710.000 C 21.797 774.790,21.844 801.295,21.900 768.900 C 21.956 736.505,21.956 683.495,21.900 651.100 C 21.844 618.705,21.797 645.210,21.797 710.000 M383.797 709.800 C 383.797 774.480,383.844 801.000,383.900 768.732 C 383.956 736.465,383.956 683.545,383.900 651.132 C 383.844 618.720,383.797 645.120,383.797 709.800 M376.000 836.000 C 376.000 836.220,376.270 836.400,376.600 836.400 C 376.930 836.400,377.200 836.220,377.200 836.000 C 377.200 835.780,376.930 835.600,376.600 835.600 C 376.270 835.600,376.000 835.780,376.000 836.000 M113.267 836.700 C 161.154 836.756,239.634 836.756,287.667 836.700 C 335.700 836.644,296.520 836.598,200.600 836.598 C 104.680 836.598,65.380 836.644,113.267 836.700 " stroke="none" fill="#f8f804" fill-rule="evenodd"></path><path id="path1" d="M26.000 22.400 C 26.000 22.620,25.764 22.800,25.475 22.800 C 24.829 22.800,22.800 24.865,22.800 25.522 C 22.800 25.785,22.620 26.000,22.400 26.000 C 22.134 26.000,22.000 65.533,22.000 143.800 C 22.000 222.067,22.134 261.600,22.400 261.600 C 22.620 261.600,22.800 261.881,22.800 262.225 C 22.800 263.238,24.879 267.334,25.775 268.084 C 26.555 268.738,36.203 268.771,201.200 268.677 C 382.743 268.574,378.800 268.608,378.800 267.133 C 378.800 266.984,379.420 266.658,380.177 266.408 C 381.209 266.067,381.665 265.615,381.999 264.603 C 382.244 263.860,382.660 263.180,382.922 263.093 C 383.642 262.853,383.822 26.374,383.104 25.791 C 382.827 25.566,382.401 25.026,382.157 24.591 C 381.859 24.060,380.875 23.608,379.157 23.216 C 377.751 22.895,376.540 22.490,376.467 22.316 C 376.262 21.832,26.000 21.916,26.000 22.400 M0.000 558.600 L 0.000 564.400 2.416 564.400 C 4.709 564.400,8.023 563.264,7.986 562.492 C 7.653 555.638,5.998 552.800,2.334 552.800 L 0.000 552.800 0.000 558.600 M26.000 588.400 C 26.000 588.620,25.764 588.800,25.475 588.800 C 24.829 588.800,22.800 590.865,22.800 591.522 C 22.800 591.785,22.620 592.000,22.400 592.000 C 22.134 592.000,22.000 631.800,22.000 710.600 C 22.000 775.830,22.144 829.200,22.320 829.200 C 22.496 829.200,22.871 830.325,23.153 831.700 C 23.674 834.233,24.483 835.600,25.462 835.600 C 25.758 835.600,26.000 835.780,26.000 836.000 C 26.000 836.266,84.600 836.400,201.000 836.400 C 317.400 836.400,376.000 836.266,376.000 836.000 C 376.000 835.780,376.405 835.597,376.900 835.592 C 379.821 835.567,381.771 834.595,382.148 832.976 C 382.350 832.109,382.714 831.272,382.958 831.115 C 383.646 830.671,383.792 592.348,383.105 591.791 C 382.827 591.566,382.401 591.026,382.157 590.591 C 381.859 590.060,380.875 589.608,379.157 589.216 C 377.751 588.895,376.540 588.490,376.467 588.316 C 376.262 587.832,26.000 587.916,26.000 588.400 " stroke="none" fill="#fcfcfc" fill-rule="evenodd"></path><path id="path2" d="M0.000 276.200 L 0.000 552.400 2.075 552.400 C 5.976 552.400,7.017 553.589,7.851 558.996 C 8.468 562.997,8.190 563.613,5.500 564.217 C 4.895 564.352,4.400 564.629,4.400 564.832 C 4.400 565.034,3.410 565.200,2.200 565.200 L 0.000 565.200 0.000 705.200 L 0.000 845.200 200.000 845.200 L 400.000 845.200 400.000 422.600 L 400.000 0.000 200.000 0.000 L 0.000 0.000 0.000 276.200 M377.115 22.261 C 377.272 22.514,378.210 22.844,379.200 22.993 C 381.036 23.269,382.757 24.424,383.555 25.916 C 384.164 27.054,384.188 259.907,383.579 262.100 C 383.350 262.925,383.005 263.600,382.812 263.600 C 382.620 263.600,382.254 264.230,382.000 265.000 C 381.688 265.945,381.222 266.480,380.569 266.644 C 380.036 266.777,379.600 267.034,379.600 267.215 C 379.600 267.396,378.627 267.826,377.438 268.172 C 374.369 269.064,26.653 269.118,25.477 268.226 C 24.701 267.638,23.200 264.947,23.200 264.144 C 23.200 263.876,22.885 263.342,22.500 262.957 C 21.408 261.865,21.207 27.089,22.297 25.627 C 23.192 24.427,24.427 23.192,25.627 22.297 C 26.807 21.417,376.570 21.381,377.115 22.261 M375.600 293.546 C 375.600 293.736,376.365 294.002,377.300 294.137 C 380.132 294.546,382.031 295.215,382.292 295.894 C 382.428 296.249,382.868 296.868,383.269 297.269 C 383.974 297.974,384.000 302.249,384.000 415.254 C 384.000 531.109,383.941 537.117,382.785 538.000 C 382.641 538.110,382.401 538.700,382.251 539.312 C 382.050 540.132,381.666 540.487,380.789 540.662 C 380.135 540.793,379.600 541.026,379.600 541.181 C 379.600 542.445,28.292 543.226,25.940 541.968 C 24.179 541.025,23.285 539.894,23.027 538.280 C 22.882 537.369,22.546 536.490,22.281 536.327 C 21.295 535.717,21.409 297.730,22.396 297.202 C 22.838 296.965,23.200 296.502,23.200 296.172 C 23.200 295.843,23.830 295.201,24.600 294.747 C 25.370 294.293,26.000 293.759,26.000 293.560 C 26.000 293.347,97.306 293.200,200.800 293.200 C 298.735 293.200,375.600 293.352,375.600 293.546 M377.115 588.261 C 377.272 588.514,378.210 588.844,379.200 588.993 C 381.036 589.269,382.757 590.424,383.555 591.916 C 384.836 594.309,384.040 832.000,382.751 832.000 C 382.558 832.000,382.400 832.422,382.400 832.938 C 382.400 834.232,381.327 835.060,379.200 835.405 C 378.210 835.566,377.272 835.901,377.115 836.149 C 376.563 837.020,26.793 836.974,25.637 836.103 C 23.664 834.615,23.249 833.996,22.973 832.129 C 22.817 831.068,22.489 830.072,22.244 829.915 C 21.379 829.359,21.430 592.790,22.296 591.629 C 23.192 590.427,24.426 589.193,25.627 588.297 C 26.807 587.417,376.570 587.381,377.115 588.261 " stroke="none" fill="#060606" fill-rule="evenodd"></path></g></svg>